<svg version="1.2" xmlns="http://www.w3.org/2000/svg" viewBox="0 0 500 500" width="500" height="500">
	<title>39879138_8767131</title>
	<style>
		.s0 { fill: #c7c7c7 } 
		.s1 { fill: #88c8fc } 
		.s2 { fill: #29275f } 
		.s3 { fill: #508dd2 } 
		.s4 { fill: #ffffff } 
		.s5 { fill: #67a4e9 } 
		.s6 { fill: #afd4ef } 
		.s7 { fill: #e6ac4b } 
	</style>
	<g id="BACKGROUND">
		<g>
			<g>
				<g>
				</g>
			</g>
		</g>
	</g>
	<g id="OBJECTS">
		<g>
			<path fill-rule="evenodd" class="s0" d="m244.3 395.5c-118.1 0-213.6-18.7-213.6-41.9 0-23.1 95.5-41.8 213.6-41.8 118.2 0 213.7 18.7 213.7 41.8 0 23.2-95.5 41.9-213.7 41.9z"/>
		</g>
		<g>
			<g>
				<g>
					<path class="s1" d="m425 286.2c-18.5 14.7-44.1-8-38-26.5 3.2-9.6 10.7-17.3 12.2-27.4 1.6-10.5 6.5-14.9 14.6-21.2 3.2-2.5 4.5-7.1 5.9-10.8 2.8-7 7-12.9 13.7-16.7 8.2-4.7 24.5 1.6 26.5 12 2.5 12.7-13.9 18.6-19.3 26.8-4.6 6.9-0.2 16.1-7 23.6-10.1 11.4 5.9 29.4-8.6 40.2z"/>
				</g>
			</g>
			<g>
				<path class="s2" d="m405.6 307.6c-0.4 0-0.7-0.3-0.7-0.6-3.3-36.1 7.7-72.7 30.1-100.3 0.3-0.4 0.8-0.4 1.1-0.2 0.3 0.3 0.4 0.8 0.1 1.1-22.2 27.4-33.1 63.5-29.8 99.2 0 0.4-0.3 0.8-0.7 0.8q0 0-0.1 0z"/>
			</g>
		</g>
		<g>
			<g>
				<path class="s3" d="m416.1 262.5c-5 7.1-8.9 15-17.4 16.5-12.8 2.4-28.1 14.6-27.3 30.5-0.2 32.4 49.2 31.7 53.1 7.7 1.8-11.4 4.7-16.4 16.3-18.1 7-0.9 9.1-6.8 11-12.8 1.8-2.8 4.4-4.9 7.6-6.1 4.4-1.6 9.4-0.9 14.1-1 4.2-0.1 8.4-1 11.5-3.8 2.9-2.6 4.9-6.3 5.4-10.5 0.5-4.1-0.6-8.5-3-12.2-2.3-3.4-5.7-6.3-9.4-7.7-4.3-1.7-8.6-1.7-12.5-0.1-4.6 1.9-8.1 5.3-11.6 8.6q0 0.1-0.1 0.1c-4.5 4.3-11 5.8-17.4 4.2-7.6-1.9-14.9-2.9-20.3 4.7z"/>
			</g>
			<g>
				<path class="s2" d="m370.8 338.9q-0.2 0-0.4-0.1c-0.3-0.2-0.4-0.7-0.2-1 21-35.4 54-61.8 92.9-74.3 0.3-0.1 0.8 0.1 0.9 0.5 0.1 0.4-0.1 0.8-0.5 0.9-38.5 12.4-71.2 38.6-92 73.6-0.2 0.3-0.4 0.4-0.7 0.4z"/>
			</g>
		</g>
		<g>
			<g>
				<g>
					<path class="s3" d="m71.9 299.6c18.5 14.7 44.1-8 38-26.5-3.2-9.6-10.7-17.3-12.2-27.4-1.6-10.5-6.5-14.9-14.6-21.2-3.2-2.5-4.5-7.1-5.9-10.8-2.8-7-7-12.9-13.7-16.7-8.3-4.7-24.5 1.6-26.5 12-2.5 12.7 13.9 18.6 19.3 26.8 4.6 6.9 0.2 16.1 7 23.6 10.1 11.4-6 29.4 8.6 40.2z"/>
				</g>
			</g>
			<g>
				<path class="s2" d="m91.3 321.1q-0.1 0-0.1-0.1c-0.4 0-0.7-0.4-0.7-0.8 3.2-35.7-7.6-71.8-29.8-99.2-0.3-0.3-0.2-0.8 0.1-1 0.3-0.3 0.8-0.3 1 0.1 22.5 27.6 33.5 64.2 30.2 100.3 0 0.4-0.4 0.7-0.7 0.7z"/>
			</g>
		</g>
		<g>
			<g>
				<path class="s1" d="m83.9 271.6c5 7.1 8.9 15 17.4 16.5 12.8 2.4 28.1 14.6 27.3 30.5 0.2 32.4-49.2 31.8-53.1 7.7-1.8-11.4-4.7-16.4-16.3-18-7-1-9.1-6.9-11-12.9-1.8-2.8-4.4-4.9-7.6-6-4.4-1.6-9.4-0.9-14.1-1.1-4.2-0.1-8.4-1-11.5-3.7-2.9-2.7-4.9-6.4-5.4-10.6-0.5-4.1 0.6-8.4 3-12.1 2.3-3.5 5.7-6.3 9.4-7.8 4.3-1.7 8.6-1.7 12.5 0 4.6 1.8 8.1 5.2 11.6 8.5q0.1 0.1 0.1 0.1c4.5 4.3 11 5.8 17.4 4.2 7.6-1.9 14.9-2.9 20.3 4.7z"/>
			</g>
			<g>
				<path class="s2" d="m129.2 348c-0.3 0-0.5-0.1-0.7-0.4-20.8-35-53.5-61.2-92-73.5-0.4-0.2-0.6-0.6-0.5-1 0.1-0.4 0.6-0.6 0.9-0.5 38.9 12.5 71.9 38.9 92.9 74.3 0.2 0.3 0.1 0.8-0.2 1q-0.2 0.1-0.4 0.1z"/>
			</g>
		</g>
		<g>
			<g>
				<path class="s2" d="m437.1 380.6h-377.1c-4.3 0-7.7-3.4-7.7-7.6v-3.2h392.5v3.2c0 4.2-3.5 7.6-7.7 7.6z"/>
			</g>
			<g>
				<path fill-rule="evenodd" class="s4" d="m403.8 310.1h-310.5l-41 59.7h392.5z"/>
			</g>
			<g>
				<path class="s2" d="m398.5 113.1h-299.9c-2.8 0-5.2 2.3-5.2 5.2v191.8h310.3v-191.8c0-2.9-2.4-5.2-5.2-5.2z"/>
			</g>
			<g>
				<path fill-rule="evenodd" class="s5" d="m102.9 129.4h291.3v165.4h-291.3z"/>
			</g>
			<g>
				<path class="s2" d="m437.1 381.4h-377.1c-4.7 0-8.4-3.8-8.4-8.4v-3.2c0-0.4 0.3-0.7 0.7-0.7h392.4c0.5 0 0.8 0.3 0.8 0.7v3.2c0 4.6-3.8 8.4-8.4 8.4zm-384-10.8v2.4c0 3.8 3.1 6.9 6.9 6.9h377.1c3.8 0 6.9-3.1 6.9-6.9v-2.4z"/>
			</g>
			<g>
				<path class="s2" d="m444.8 370.6h-392.5c-0.2 0-0.5-0.2-0.6-0.4-0.2-0.3-0.1-0.6 0-0.8l41-59.8c0.1-0.2 0.3-0.3 0.6-0.3h310.5c0.3 0 0.5 0.1 0.6 0.3l41 59.8c0.1 0.2 0.1 0.5 0 0.8-0.1 0.2-0.4 0.4-0.6 0.4zm-391-1.5h389.5l-39.9-58.3h-309.7z"/>
			</g>
			<g>
				<path class="s2" d="m403.7 310.8h-310.3c-0.4 0-0.7-0.3-0.7-0.7v-191.8c0-3.3 2.6-6 5.9-6h299.9c3.2 0 5.9 2.7 5.9 6v191.8c0 0.4-0.3 0.7-0.7 0.7zm-309.5-1.5h308.7v-191c0-2.5-2-4.5-4.4-4.5h-299.9c-2.4 0-4.4 2-4.4 4.5z"/>
			</g>
			<g>
				<path class="s2" d="m394.2 295.5h-291.3c-0.4 0-0.7-0.3-0.7-0.7v-165.4c0-0.4 0.3-0.7 0.7-0.7h291.3c0.4 0 0.7 0.3 0.7 0.7v165.4c0 0.4-0.3 0.7-0.7 0.7zm-290.5-1.5h289.7v-163.8h-289.7z"/>
			</g>
			<g>
				<path fill-rule="evenodd" class="s4" d="m168.8 301.6h159.5v7.3h-159.5z"/>
			</g>
			<g>
				<path class="s5" d="m235 121.1c0 2.7-2.2 4.9-4.9 4.9-2.7 0-4.9-2.2-4.9-4.9 0-2.7 2.2-4.9 4.9-4.9 2.7 0 4.9 2.2 4.9 4.9z"/>
			</g>
			<g>
				<path class="s2" d="m304.8 365.7h-112.5c-0.3 0-0.6-0.1-0.7-0.4-0.1-0.2-0.1-0.5 0.1-0.7l11.7-17.2c0.1-0.2 0.4-0.3 0.6-0.3h89.1c0.2 0 0.5 0.1 0.6 0.3l11.7 17.2c0.2 0.2 0.2 0.5 0.1 0.7-0.2 0.3-0.4 0.4-0.7 0.4zm-111.1-1.5h109.7l-10.7-15.6h-88.3z"/>
			</g>
			<g>
				<g>
					<g>
						<path class="s2" d="m134 326.1h-20.8c-0.2 0-0.5-0.2-0.6-0.4-0.2-0.2-0.2-0.5 0-0.7l5.3-9.5c0.1-0.3 0.4-0.4 0.6-0.4h20c0.2 0 0.5 0.1 0.6 0.3 0.2 0.3 0.2 0.5 0.1 0.8l-4.5 9.4c-0.2 0.3-0.4 0.5-0.7 0.5zm-19.5-1.5h19l3.8-8h-18.3z"/>
					</g>
					<g>
						<path class="s2" d="m169.8 326.1h-20.7c-0.3 0-0.5-0.1-0.7-0.4-0.1-0.2-0.1-0.4 0-0.7l3.9-9.4c0.1-0.3 0.4-0.5 0.7-0.5h19.9c0.3 0 0.5 0.1 0.6 0.3 0.2 0.2 0.2 0.5 0.1 0.7l-3.1 9.5c-0.1 0.3-0.4 0.5-0.7 0.5zm-19.6-1.5h19.1l2.6-8h-18.4z"/>
					</g>
					<g>
						<path class="s2" d="m205.6 326.1h-20.7c-0.2 0-0.5-0.1-0.6-0.3-0.1-0.2-0.2-0.4-0.1-0.7l2.5-9.4c0.1-0.4 0.4-0.6 0.7-0.6h19.9c0.3 0 0.5 0.1 0.6 0.3q0.2 0.2 0.2 0.6l-1.7 9.5c-0.1 0.3-0.4 0.6-0.8 0.6zm-19.7-1.5h19.1l1.4-8h-18.4z"/>
					</g>
					<g>
						<path class="s2" d="m241.5 326.1h-20.8q-0.3 0-0.5-0.3-0.3-0.2-0.2-0.6l1.1-9.4c0-0.4 0.3-0.7 0.7-0.7h20q0.3 0 0.5 0.2 0.2 0.3 0.2 0.6l-0.3 9.4c0 0.5-0.3 0.8-0.7 0.8zm-19.9-1.5h19.1l0.3-8h-18.5z"/>
					</g>
					<g>
						<path class="s2" d="m277.3 326.1h-20.7c-0.5 0-0.8-0.3-0.8-0.8l-0.3-9.4q0-0.3 0.2-0.6 0.2-0.2 0.6-0.2h19.9c0.4 0 0.7 0.3 0.7 0.7l1.1 9.4q0.1 0.4-0.1 0.6-0.3 0.3-0.6 0.3zm-20-1.5h19.2l-1-8h-18.5z"/>
					</g>
					<g>
						<path class="s2" d="m313.1 326.1h-20.7c-0.4 0-0.7-0.3-0.8-0.6l-1.7-9.5q0-0.4 0.2-0.6c0.2-0.2 0.4-0.3 0.6-0.3h19.9c0.4 0 0.7 0.2 0.7 0.6l2.6 9.4c0 0.3 0 0.5-0.2 0.7-0.1 0.2-0.3 0.3-0.6 0.3zm-20.1-1.5h19.2l-2.2-8h-18.4z"/>
					</g>
					<g>
						<path class="s2" d="m349 326.1h-20.8c-0.3 0-0.6-0.2-0.7-0.5l-3.1-9.5c-0.1-0.2 0-0.5 0.1-0.7 0.1-0.2 0.4-0.3 0.6-0.3h20c0.3 0 0.5 0.2 0.6 0.5l4 9.4c0.1 0.3 0 0.5-0.1 0.7-0.1 0.3-0.4 0.4-0.6 0.4zm-20.2-1.5h19.1l-3.3-8h-18.5z"/>
					</g>
					<g>
						<path class="s2" d="m384.8 326.1h-20.7c-0.3 0-0.6-0.2-0.7-0.5l-4.5-9.4c-0.1-0.3-0.1-0.5 0-0.8 0.1-0.2 0.4-0.3 0.6-0.3h20c0.3 0 0.5 0.1 0.6 0.4l5.4 9.5c0.1 0.2 0.1 0.5 0 0.7-0.2 0.2-0.4 0.4-0.7 0.4zm-20.3-1.5h19l-4.5-8h-18.3z"/>
					</g>
				</g>
			</g>
			<g>
				<g>
					<g>
						<path class="s2" d="m111.5 339.4h-20.7c-0.3 0-0.6-0.2-0.7-0.4-0.1-0.2-0.1-0.5 0-0.7l5.3-9.5c0.2-0.3 0.4-0.4 0.7-0.4h19.9c0.3 0 0.5 0.1 0.7 0.3 0.1 0.3 0.1 0.5 0 0.8l-4.5 9.4c-0.1 0.3-0.4 0.5-0.7 0.5zm-19.5-1.5h19l3.8-8h-18.3z"/>
					</g>
					<g>
						<path class="s2" d="m147.3 339.4h-20.7c-0.3 0-0.5-0.2-0.6-0.4-0.2-0.2-0.2-0.4-0.1-0.7l3.9-9.4c0.1-0.3 0.4-0.5 0.7-0.5h20c0.2 0 0.4 0.1 0.6 0.3 0.1 0.2 0.1 0.4 0.1 0.7l-3.1 9.5c-0.1 0.3-0.4 0.5-0.8 0.5zm-19.6-1.5h19.1l2.6-8h-18.4z"/>
					</g>
					<g>
						<path class="s2" d="m183.2 339.4h-20.8c-0.2 0-0.4-0.1-0.6-0.3-0.1-0.2-0.2-0.4-0.1-0.7l2.5-9.4c0.1-0.4 0.4-0.6 0.7-0.6h20c0.2 0 0.4 0.1 0.6 0.3q0.2 0.2 0.1 0.6l-1.7 9.5c0 0.3-0.4 0.6-0.7 0.6zm-19.8-1.5h19.2l1.4-8h-18.5z"/>
					</g>
					<g>
						<path class="s2" d="m219 339.4h-20.7q-0.4 0-0.6-0.3-0.2-0.2-0.2-0.6l1.1-9.4c0.1-0.4 0.4-0.7 0.8-0.7h19.9q0.3 0 0.5 0.2 0.3 0.3 0.3 0.6l-0.3 9.4c0 0.5-0.4 0.8-0.8 0.8zm-19.9-1.5h19.2l0.2-8h-18.5z"/>
					</g>
					<g>
						<path class="s2" d="m254.8 339.4h-20.7c-0.4 0-0.7-0.3-0.8-0.8l-0.3-9.4q0-0.3 0.3-0.6 0.2-0.2 0.5-0.2h19.9c0.4 0 0.7 0.3 0.8 0.7l1.1 9.4q0 0.4-0.2 0.6-0.2 0.3-0.6 0.3zm-20-1.5h19.2l-0.9-8h-18.5z"/>
					</g>
					<g>
						<path class="s2" d="m290.7 339.4h-20.8c-0.3 0-0.6-0.3-0.7-0.6l-1.7-9.5q-0.1-0.4 0.2-0.6 0.2-0.3 0.5-0.3h20c0.3 0 0.6 0.2 0.7 0.6l2.5 9.4c0.1 0.3 0 0.5-0.1 0.7-0.2 0.2-0.4 0.3-0.6 0.3zm-20.1-1.5h19.1l-2.1-8h-18.5z"/>
					</g>
					<g>
						<path class="s2" d="m326.5 339.4h-20.7c-0.4 0-0.7-0.2-0.8-0.5l-3.1-9.5c0-0.3 0-0.5 0.1-0.7 0.2-0.2 0.4-0.3 0.7-0.3h19.9c0.3 0 0.6 0.2 0.7 0.5l3.9 9.4c0.1 0.3 0.1 0.5-0.1 0.7-0.1 0.2-0.3 0.4-0.6 0.4zm-20.2-1.5h19.1l-3.3-8h-18.4z"/>
					</g>
					<g>
						<path class="s2" d="m362.3 339.4h-20.7c-0.3 0-0.6-0.2-0.7-0.5l-4.5-9.4c-0.1-0.3-0.1-0.5 0-0.8 0.2-0.2 0.4-0.3 0.7-0.3h19.9c0.3 0 0.5 0.1 0.7 0.4l5.3 9.5c0.1 0.2 0.1 0.5 0 0.7-0.1 0.2-0.4 0.4-0.7 0.4zm-20.2-1.5h19l-4.5-8h-18.3z"/>
					</g>
					<g>
						<path class="s2" d="m397.4 339.4h-20.7c-0.3 0-0.6-0.2-0.7-0.5l-4.5-9.4c-0.1-0.3-0.1-0.5 0-0.8 0.2-0.2 0.4-0.3 0.7-0.3h19.9c0.3 0 0.5 0.1 0.7 0.4l5.3 9.5c0.1 0.2 0.1 0.5 0 0.7-0.1 0.2-0.4 0.4-0.7 0.4zm-20.2-1.5h19l-4.5-8h-18.3z"/>
					</g>
				</g>
			</g>
		</g>
		<g>
			<g>
				<g>
					<path class="s4" d="m334 100.3v161c0 9.6-7.8 17.4-17.4 17.4h-136.2c-9.5 0-17.3-7.8-17.3-17.4v-161c0-9.6 7.8-17.4 17.3-17.4h136.2c9.6 0 17.4 7.8 17.4 17.4z"/>
				</g>
				<g>
					<path class="s1" d="m281 92.7c0 2.4-1.9 4.3-4.3 4.3-2.3 0-4.2-1.9-4.2-4.3 0-2.4 1.9-4.3 4.2-4.3 2.4 0 4.3 1.9 4.3 4.3z"/>
				</g>
				<g>
					<path class="s3" d="m299.9 92.7c0 2.4-1.9 4.3-4.3 4.3-2.4 0-4.3-1.9-4.3-4.3 0-2.4 1.9-4.3 4.3-4.3 2.4 0 4.3 1.9 4.3 4.3z"/>
				</g>
				<g>
					<path class="s2" d="m318.8 92.7c0 2.4-2 4.3-4.3 4.3-2.4 0-4.3-1.9-4.3-4.3 0-2.4 1.9-4.3 4.3-4.3 2.3 0 4.3 1.9 4.3 4.3z"/>
				</g>
				<g>
					<path class="s2" d="m316.6 279.4h-136.2c-9.9 0-18.1-8.1-18.1-18.1v-161c0-10 8.2-18.1 18.1-18.1h136.2c10 0 18.1 8.1 18.1 18.1v161c0 10-8.1 18.1-18.1 18.1zm-136.2-195.7c-9.1 0-16.6 7.4-16.6 16.6v161c0 9.2 7.5 16.6 16.6 16.6h136.2c9.2 0 16.6-7.4 16.6-16.6v-161c0-9.2-7.4-16.6-16.6-16.6z"/>
				</g>
				<g>
					<path class="s2" d="m334 101h-170.9c-0.4 0-0.8-0.3-0.8-0.7 0-0.4 0.4-0.8 0.8-0.8h170.9c0.4 0 0.7 0.4 0.7 0.8 0 0.4-0.3 0.7-0.7 0.7z"/>
				</g>
			</g>
			<g>
				<path fill-rule="evenodd" class="s3" d="m222 122.2l-18.6-7.9-18.5 7.9v-43.8h37.1z"/>
			</g>
			<g>
				<g>
					<g>
						<path fill-rule="evenodd" class="s1" d="m175.8 132.5h43.1v46.5h-43.1z"/>
					</g>
				</g>
				<g>
					<g>
						<path fill-rule="evenodd" class="s0" d="m224.8 132.5h96.5v3.9h-96.5z"/>
					</g>
					<g>
						<path fill-rule="evenodd" class="s0" d="m224.8 143h96.5v4h-96.5z"/>
					</g>
					<g>
						<path fill-rule="evenodd" class="s0" d="m224.8 153.6h96.5v4h-96.5z"/>
					</g>
					<g>
						<path fill-rule="evenodd" class="s0" d="m224.8 164.2h96.5v3.9h-96.5z"/>
					</g>
					<g>
						<path fill-rule="evenodd" class="s0" d="m224.8 174.8h55.8v3.9h-55.8z"/>
					</g>
					<g>
						<g>
							<path fill-rule="evenodd" class="s0" d="m175.8 195.3h145.5v4h-145.5z"/>
						</g>
						<g>
							<path fill-rule="evenodd" class="s0" d="m175.8 205.9h145.5v3.9h-145.5z"/>
						</g>
						<g>
							<path fill-rule="evenodd" class="s0" d="m175.8 216.5h145.5v3.9h-145.5z"/>
						</g>
						<g>
							<path fill-rule="evenodd" class="s0" d="m175.8 227h145.5v4h-145.5z"/>
						</g>
						<g>
							<path fill-rule="evenodd" class="s0" d="m175.8 237.6h104.8v4h-104.8z"/>
						</g>
					</g>
				</g>
				<g>
					<path fill-rule="evenodd" class="s1" d="m253.7 113.1h67v11h-67z"/>
				</g>
				<g>
					<path class="s2" d="m252.7 268.6q-0.2 0-0.3 0l-15.4-7.3c-0.3-0.2-0.5-0.7-0.3-1 0.2-0.4 0.6-0.6 1-0.4l15 7.2 15-7.2c0.4-0.2 0.8 0 1 0.4 0.2 0.3 0 0.8-0.4 1l-15.3 7.3q-0.1 0-0.3 0z"/>
				</g>
			</g>
		</g>
		<g>
			<g>
				<path class="s4" d="m463.4 444.3h-88.9l-24-90.7c0 0-24.5-25.8-36.1-44.3-11.7-18.5-16.2-24.6-17.2-30.7-0.8-5.4-7.2-44.5-8.5-52.9-0.2-0.9 0.1-1.8 0.7-2.5q0.2-0.2 0.4-0.3c2.8-2.1 9.6-4.9 17.4 8.5 8.9 15.4 10.2 34.9 10.4 39.4l3.2 5.4 8.6 14.6 10.9 18.2c0 0 11.5-2.1 19.4-11.5l-10.9-18.2-8.6-14.6-3.4-5.8h-0.1l-23.2-32.8c0 0-11.5-4.9-22.8-10.2-11.2-5.4-14.8-23.9-6.6-22.6 3.1 0.5 10 3 17.3 5.9 11.9 4.8 25.1 10.7 25.1 10.7 5.1-4.7 13.9-2 13.9-2 0 0 6.1-3.2 12.2-2.3 6.2 0.9 34.2 27.3 38.7 36 4.4 8.8 14.8 91.1 14.8 91.1z"/>
			</g>
			<g>
				<path class="s6" d="m295.8 200c-0.1 1.5-0.6 3.1-1.4 4.5-1 1.5-2.9 2-4.5 1.3l-8-3.2c-1.5-0.7-2.5-2.2-2.3-3.9 0.2-1.3 0.6-2.8 1.4-4.1 0.9-1.4 2.7-2 4.3-1.4l8.1 2.8c1.6 0.6 2.7 2.3 2.4 4z"/>
			</g>
			<g>
				<path class="s6" d="m299.2 237.5c-2.2 1.7-5.4 1.8-7.2 1.7-0.7 0-1.2-0.5-1.4-1.2l-1.8-11.5c-0.1-0.5 0.1-1.1 0.5-1.4 2.3-1.7 4.9-1.7 6.3-1.6 0.5 0.1 0.9 0.4 1.2 0.8 1.4 3.1 2.5 9.6 2.9 11.8 0.1 0.5-0.1 1-0.5 1.4z"/>
			</g>
			<g>
				<path class="s7" d="m340.2 264.7c-7.9 9.3-19.4 11.5-19.4 11.5l-3.2-5.4c-0.2-4.5-1.5-24-10.4-39.4-7.8-13.4-14.6-10.6-17.4-8.5q-0.2 0.2-0.4 0.3l-23.3-39.3c0.4 0.6 1.4 2 2.8 3.3l0.2 0.3q0.5 0.5 1.2 0.9 0.1 0.2 0.3 0.3 0.4 0.2 0.8 0.4 0.2 0.2 0.5 0.3 0.2 0.1 0.5 0.1 0.2 0.1 0.5 0.1 0 0 0 0 0.3 0.1 0.5 0.1 0.8 0 1.6-0.5c2.1-1.2 2.6-3.6 2.5-5.6q0-0.1 0-0.2 0-0.6-0.1-1.1 0-0.1 0-0.2-0.1-0.2-0.1-0.4 0 0 0 0c-0.2-0.9-0.3-1.5-0.4-1.6q0.1 0 0.2 0.1 0 0.1 0.1 0.2 0.1 0.1 0.1 0.1 0.3 0.3 0.8 0.7 0.1 0.2 0.3 0.4 0.3 0.2 0.5 0.4 0.1 0 0.2 0.1 0.2 0.2 0.6 0.4 0 0 0.1 0.1 0.5 0.3 1.1 0.6 0.3 0.1 0.5 0.2 0.3 0.1 0.6 0.2 0.3 0.1 0.6 0.1 0.8 0.2 1.6 0 0.2-0.1 0.4-0.2 0.3-0.1 0.5-0.2 0.7-0.4 1-1.1 0.1-0.1 0.2-0.2 0-0.1 0-0.1 0.1-0.2 0.2-0.6 0.1 0 0.1-0.1 0.1-0.3 0.1-0.5 0-0.3 0.1-0.7 0 0 0-0.1 0-0.6 0-1.3 0-0.3 0-0.6-0.1-0.8-0.3-1.7 0-0.3-0.1-0.6-0.1-0.3-0.2-0.7-0.1-0.4-0.2-0.8c-0.3-1-0.6-1.8-0.6-2l16 27c-7.3-2.9-14.2-5.4-17.3-5.9-8.3-1.3-4.6 17.2 6.6 22.6 11.3 5.3 22.8 10.2 22.8 10.2l23.2 32.8h0.1z"/>
			</g>
			<g>
				<path class="s0" d="m348.8 279.3c-7.9 9.4-19.4 11.5-19.4 11.5l-8.6-14.6c0 0 11.5-2.2 19.4-11.5z"/>
			</g>
			<g>
				<path class="s4" d="m359.7 297.5c-7.9 9.4-19.4 11.5-19.4 11.5l-10.9-18.2c0 0 11.5-2.1 19.4-11.5z"/>
			</g>
			<g>
				<path class="s4" d="m286.8 178.6q0 0.7 0 1.3 0 0.1 0 0.1 0 0.4-0.1 0.7 0 0.1 0 0.1-0.1 0.1-0.1 0.2 0 0.1 0 0.2-0.1 0.1-0.1 0.1-0.1 0.4-0.2 0.6 0 0 0 0.1-0.1 0.1-0.2 0.2-0.3 0.7-1 1.1-0.2 0.1-0.5 0.2-0.2 0.1-0.4 0.2-0.8 0.2-1.6 0-0.3 0-0.6-0.1-0.3-0.1-0.6-0.2-0.2-0.1-0.5-0.2-0.6-0.3-1.1-0.6-0.1-0.1-0.1-0.1-0.4-0.2-0.6-0.4-0.1-0.1-0.2-0.1-0.2-0.2-0.5-0.4-0.1-0.2-0.3-0.4-0.5-0.4-0.8-0.7 0-0.1-0.1-0.1-0.1-0.1-0.1-0.2-0.1-0.1-0.2-0.1c0.1 0.1 0.3 0.7 0.4 1.6q0 0 0 0 0 0.2 0.1 0.4 0 0.1 0 0.2 0.1 0.5 0.1 1.1 0 0.1 0 0.2c0.1 2-0.4 4.4-2.5 5.6q-0.8 0.5-1.6 0.5-0.2 0-0.5-0.1 0 0 0 0-0.3 0-0.5-0.1-0.3 0-0.5-0.1-0.3-0.1-0.5-0.3-0.4-0.2-0.8-0.4-0.2-0.1-0.3-0.3-0.6-0.4-1.2-0.9l-0.2-0.3c-1.4-1.3-2.4-2.7-2.8-3.3q-0.1-0.2-0.2-0.2l-3.7-19.4c2.1-1.1 5.3-3.3 6.7-6.3l16.5 14.2q0 0 0 0c0 0.2 0.3 1 0.6 2q0.1 0.4 0.2 0.8 0.1 0.4 0.2 0.7 0.1 0.3 0.1 0.6 0.2 0.8 0.3 1.7 0 0.3 0 0.6z"/>
			</g>
			<g>
				<path class="s2" d="m268.9 158c-1.4 3-4.6 5.2-6.7 6.3l-1.4-6.9 3.2-3.7z"/>
			</g>
			<g>
				<path class="s2" d="m374.5 445.1c-0.3 0-0.6-0.2-0.7-0.6l-24-90.5c-2-2.1-25-26.6-36.1-44.3-2-3.2-3.8-6-5.4-8.6-7.7-12.1-11-17.2-11.8-22.3-0.9-5.4-7.2-44.6-8.6-53-0.2-1.1 0.2-2.3 1-3.1q0.1-0.2 0.4-0.4c1.6-1.2 4.1-2.4 7.2-1.8 4 0.8 7.8 4.3 11.3 10.5 8.8 15.1 10.3 33.9 10.5 39.6l22.3 37.6c2.3-0.6 11.5-3.1 18.1-10.8l-22.6-38.1-23.1-32.6c-1.6-0.6-12.2-5.3-22.6-10.2-8.7-4.1-12.8-15.4-11.2-20.8 0.7-2.4 2.5-3.5 5-3.2 2.8 0.5 8.7 2.5 17.5 6 10.6 4.3 22.3 9.5 24.6 10.5 5-4 12.4-2.3 14-1.9 1.3-0.6 6.8-3.1 12.4-2.3 6.9 1 34.9 28 39.2 36.5 4.4 8.7 14.3 86.3 14.9 91.2l57.3 111.5c0.2 0.4 0 0.8-0.3 1-0.4 0.2-0.8 0-1-0.3l-57.4-111.6q-0.1-0.2-0.1-0.3c-0.1-0.8-10.4-82.3-14.7-90.8-4.5-8.8-32.2-34.8-38.1-35.7-5.8-0.8-11.7 2.2-11.8 2.3q-0.3 0.1-0.6 0c0 0-8.4-2.5-13.1 1.8-0.2 0.2-0.6 0.3-0.8 0.2-0.2-0.1-13.3-6-25.1-10.7-8.6-3.4-14.5-5.5-17.1-5.9q-2.6-0.4-3.4 2.2c-1.5 4.8 2.6 15.3 10.5 19 11.1 5.2 22.6 10.2 22.7 10.2q0.2 0.1 0.3 0.3l23.2 32.7c0.1 0 0.1 0.1 0.1 0.1l22.9 38.6c0.2 0.3 0.1 0.7-0.1 0.9-7.9 9.5-19.3 11.7-19.8 11.8-0.3 0-0.6-0.1-0.8-0.4l-22.6-38.2q-0.1-0.2-0.1-0.3c-0.3-5.4-1.7-24.2-10.4-39.2-3.3-5.7-6.8-9-10.3-9.7-2.6-0.5-4.7 0.5-6 1.5q-0.1 0.1-0.2 0.2c-0.5 0.5-0.7 1.2-0.6 1.9 1.3 8.3 7.7 47.5 8.6 52.9 0.8 4.9 3.9 9.8 11.6 21.8 1.6 2.6 3.4 5.4 5.4 8.6 11.5 18.2 35.8 44 36 44.2q0.1 0.2 0.2 0.4l24.1 90.6c0.1 0.4-0.2 0.9-0.6 1q-0.1 0-0.2 0z"/>
			</g>
			<g>
				<path class="s2" d="m329.4 291.5c-0.2 0-0.5-0.1-0.6-0.3l-11.8-20q-0.1-0.2-0.1-0.3c-0.3-5.4-1.7-24.2-10.4-39.2-3.3-5.7-6.8-9-10.3-9.7-2.6-0.5-4.7 0.5-6 1.5q-0.1 0.1-0.2 0.2c-0.2 0.2-0.4 0.3-0.7 0.3-0.2 0-0.4-0.2-0.5-0.4l-23.3-39.3c-0.2-0.4-0.1-0.8 0.2-1 0.4-0.2 0.8-0.1 1 0.2 0.5 0.7 1.5 2 2.7 3.2l0.2 0.2c0.4 0.4 0.8 0.7 1.1 0.9 0.1 0.1 0.2 0.2 0.3 0.2l0.1 0.1q0.3 0.2 0.6 0.3 0.2 0.2 0.4 0.3 0.3 0 0.5 0.1 0.1 0.1 0.4 0.1 0 0 0 0 0.9 0.1 1.7-0.3 2.2-1.3 2-5c0-0.1 0-0.2 0-0.2q0-0.5-0.1-1 0 0 0-0.1 0 0 0-0.1 0-0.2 0-0.3 0-0.1-0.1-0.1c-0.1-0.6-0.2-1.1-0.3-1.4q0-0.1 0-0.2c-0.1-0.3 0.1-0.6 0.4-0.8 0.3-0.1 0.6-0.1 0.9 0.2q0 0 0.1 0.2 0.1 0 0.1 0.1 0.1 0.1 0.2 0.2c0.2 0.1 0.4 0.3 0.7 0.6 0.1 0.1 0.2 0.2 0.3 0.3l0.2 0.1q0.1 0.1 0.3 0.2 0 0.1 0.1 0.1c0.2 0.2 0.4 0.3 0.5 0.5l0.3 0.1q0.4 0.3 0.9 0.5l0.1 0.1q0.2 0.1 0.4 0.1 0.3 0.1 0.5 0.2 0.3 0.1 0.4 0.1c0.6 0.1 1 0 1.4-0.1q0.2 0 0.3-0.1 0.2-0.1 0.4-0.2 0.5-0.3 0.8-0.7 0-0.1 0.1-0.2 0 0 0-0.1 0.1-0.2 0.2-0.5c0 0 0.1-0.1 0.1-0.2q0 0 0-0.1c0 0 0-0.1 0-0.1 0 0 0-0.1 0-0.1 0 0 0.1-0.1 0.1-0.1q0-0.2 0-0.5 0-0.1 0-0.1c0.1-0.4 0.1-0.8 0-1.3v-0.5q-0.1-0.9-0.2-1.6-0.1-0.3-0.1-0.5-0.1-0.5-0.2-0.8-0.1-0.4-0.2-0.8c-0.3-1-0.6-1.7-0.6-1.9-0.2-0.4 0-0.8 0.3-1 0.4-0.2 0.8 0 1 0.3l16 27.1c0.2 0.2 0.2 0.6 0 0.8-0.2 0.3-0.6 0.4-0.9 0.2-8.6-3.4-14.5-5.5-17.1-5.9q-2.6-0.3-3.4 2.2c-1.5 4.8 2.6 15.3 10.5 19 11.1 5.2 22.6 10.2 22.7 10.3q0.2 0 0.3 0.2l23.2 32.7c0.1 0.1 0.1 0.1 0.1 0.1l12.1 20.4c0.1 0.3 0.1 0.6-0.1 0.9-8 9.4-19.4 11.6-19.8 11.7q-0.1 0-0.2 0zm-11.1-20.9l11.5 19.3c2.2-0.5 11.4-3.1 18.1-10.7l-11.8-19.9-23.1-32.6c-1.6-0.6-12.2-5.3-22.6-10.2-8.7-4.1-12.8-15.4-11.2-20.8 0.7-2.4 2.6-3.5 5-3.2 2.5 0.4 7.7 2.2 15.4 5.2l-12.2-20.6q0.1 0.4 0.1 0.9v0.5q0.1 0.8 0 1.5 0 0 0 0.2 0 0.3-0.1 0.6c0 0 0 0.1 0 0.1q0 0.2-0.1 0.3 0 0.1 0 0.2 0 0.1 0 0.1c-0.1 0.3-0.2 0.5-0.3 0.7q0 0 0 0.1-0.1 0.2-0.3 0.4-0.4 0.7-1.2 1.2-0.3 0.2-0.6 0.3-0.3 0.1-0.5 0.2-0.9 0.2-1.9 0.1c-0.2 0-0.5-0.1-0.7-0.2q-0.3 0-0.6-0.2-0.3-0.1-0.6-0.2c-0.4-0.2-0.7-0.4-1.2-0.7l-0.2-0.1q-0.3-0.2-0.6-0.5 0 0-0.1-0.1-0.2-0.1-0.4-0.2 0.1 0.4 0.1 1 0 0.1 0 0.2c0.2 3-0.8 5.2-2.8 6.4-0.8 0.4-1.7 0.6-2.6 0.5q0 0 0 0-0.3-0.1-0.6-0.1-0.3-0.1-0.6-0.2-0.3-0.2-0.6-0.3-0.3-0.2-0.8-0.5l19.4 32.8c1.5-1.1 3.9-2.2 6.9-1.6 4 0.8 7.8 4.3 11.3 10.5 8.8 15.1 10.3 33.9 10.5 39.6z"/>
			</g>
			<g>
				<path class="s2" d="m340.3 309.8c-0.3 0-0.5-0.2-0.7-0.4l-10.8-18.2c-0.1-0.3-0.2-0.5 0-0.7 0.1-0.3 0.3-0.4 0.5-0.5 0.1 0 11.4-2.2 19-11.2 0.1-0.2 0.4-0.3 0.6-0.3 0.2 0 0.5 0.2 0.6 0.4l10.8 18.2c0.2 0.3 0.1 0.7-0.1 0.9-7.9 9.5-19.3 11.7-19.8 11.8q-0.1 0-0.1 0zm-9.7-18.5l10 16.9c2.3-0.6 11.5-3.1 18.1-10.8l-10-16.9c-6.6 7.4-15.1 10-18.1 10.8z"/>
			</g>
			<g>
				<path class="s2" d="m273.4 190.4q-0.3 0-0.6 0 0 0 0 0-0.3-0.1-0.6-0.1-0.3-0.1-0.6-0.2-0.3-0.2-0.6-0.3-0.3-0.2-0.8-0.5h-0.1q-0.2-0.2-0.3-0.3-0.5-0.3-1.2-1l-0.3-0.2c-1.3-1.3-2.3-2.7-2.8-3.5q-0.2-0.2-0.2-0.2-0.1-0.1-0.1-0.3l-5.1-26.2c0-0.2 0-0.5 0.2-0.6l3.1-3.8q0.2-0.2 0.5-0.3 0.3 0 0.6 0.2l21.3 18.5q0.2 0.1 0.3 0.4c0.1 0.3 0.4 1.1 0.7 2q0.1 0.4 0.2 0.8 0.1 0.4 0.1 0.8 0.1 0.2 0.2 0.6c0.1 0.5 0.1 1.1 0.2 1.8v0.5q0 0 0 0 0.1 0.8 0 1.5 0 0 0 0.2 0 0.3-0.1 0.6c0 0 0 0.1 0 0.1q0 0.2-0.1 0.3 0 0.1 0 0.2 0 0.1 0 0.1c-0.1 0.3-0.2 0.5-0.3 0.7q0 0 0 0.1-0.1 0.2-0.3 0.4-0.4 0.7-1.2 1.2-0.3 0.2-0.6 0.3-0.3 0.1-0.5 0.2-0.9 0.2-1.9 0.1-0.3-0.1-0.7-0.2-0.3 0-0.6-0.2-0.3-0.1-0.6-0.2c-0.4-0.2-0.7-0.4-1.2-0.7l-0.2-0.1q-0.3-0.2-0.6-0.5 0 0-0.1-0.1-0.2-0.1-0.4-0.2 0.1 0.4 0.1 1 0 0.1 0 0.2c0.2 3-0.8 5.2-2.8 6.4q-0.9 0.5-2 0.5zm-0.4-1.5q0 0 0 0 0.9 0.1 1.7-0.3 2.2-1.3 2-5c0-0.1 0-0.2 0-0.2q0-0.5-0.1-1 0 0 0-0.1 0 0 0-0.1 0-0.2 0-0.3 0-0.1 0-0.1c-0.2-0.6-0.3-1.1-0.4-1.4q0-0.1 0-0.2c-0.1-0.3 0.1-0.6 0.4-0.8 0.3-0.1 0.6-0.1 0.9 0.2q0 0 0.1 0.2 0.1 0 0.1 0 0.2 0.2 0.2 0.3c0.2 0.1 0.4 0.3 0.7 0.6q0.2 0.2 0.3 0.3l0.2 0.1q0.1 0.1 0.3 0.2 0 0.1 0.1 0.1c0.2 0.2 0.4 0.3 0.6 0.5l0.2 0.1q0.5 0.3 0.9 0.5l0.1 0.1q0.2 0.1 0.4 0.1 0.3 0.1 0.5 0.2 0.3 0.1 0.5 0.1 0.7 0.1 1.3-0.1 0.2 0 0.4-0.1 0.1-0.1 0.3-0.2 0.5-0.3 0.8-0.7 0.1-0.2 0.1-0.2 0 0 0-0.1 0.1-0.2 0.2-0.5c0 0 0.1-0.2 0.1-0.2q0 0 0-0.1c0-0.1 0-0.1 0-0.1 0 0 0-0.1 0-0.1 0 0 0.1-0.1 0.1-0.1q0-0.2 0-0.5 0-0.1 0-0.1c0.1-0.4 0.1-0.8 0-1.3v-0.5q-0.1-0.9-0.2-1.6-0.1-0.3-0.1-0.5-0.1-0.5-0.2-0.8-0.1-0.4-0.2-0.8c-0.2-0.8-0.5-1.5-0.6-1.8l-20.7-17.8-2.4 2.8 5.1 25.8q0 0 0.1 0.1c0.4 0.7 1.4 2 2.6 3.2l0.2 0.2c0.4 0.4 0.8 0.7 1.1 0.9 0.1 0.1 0.2 0.2 0.3 0.2l0.1 0.1q0.3 0.2 0.6 0.3 0.2 0.2 0.4 0.3 0.3 0 0.5 0.1 0.2 0.1 0.4 0.1z"/>
			</g>
			<g>
				<path class="s2" d="m284.1 194c-0.3 0-0.6-0.1-0.7-0.4l-6-12c-0.2-0.4 0-0.9 0.3-1 0.4-0.2 0.9-0.1 1 0.3l6 12.1c0.2 0.3 0.1 0.8-0.3 1q-0.2 0-0.3 0z"/>
			</g>
			<g>
				<path class="s2" d="m332.2 272.2c-0.3 0-0.5-0.1-0.7-0.3l-14.9-24.2c-0.2-0.4-0.1-0.8 0.3-1 0.3-0.2 0.8-0.1 1 0.2l14.9 24.2c0.2 0.3 0.1 0.8-0.2 1q-0.2 0.1-0.4 0.1z"/>
			</g>
			<g>
				<path class="s2" d="m359.7 248.1q-0.4 0-0.6-0.3l-33.2-37.4c-0.3-0.3-0.2-0.8 0.1-1.1 0.3-0.2 0.8-0.2 1 0.1l33.2 37.4c0.3 0.3 0.3 0.8 0 1.1q-0.3 0.2-0.5 0.2z"/>
			</g>
			<g>
				<path class="s2" d="m371.5 237q-0.3 0-0.5-0.2l-31.1-28.3c-0.3-0.3-0.4-0.8-0.1-1.1 0.3-0.3 0.8-0.3 1.1 0l31.1 28.3c0.3 0.3 0.4 0.7 0.1 1q-0.3 0.3-0.6 0.3z"/>
			</g>
			<g>
				<path class="s2" d="m350.5 354.4c-0.4 0-0.7-0.2-0.8-0.6 0-0.4 0.2-0.8 0.6-0.9 0.1 0 9.2-1.9 14.6-4 0.4-0.2 0.8 0 0.9 0.4 0.2 0.4 0 0.8-0.4 1-5.5 2.1-14.4 4-14.8 4.1q0 0-0.1 0z"/>
			</g>
		</g>
		<g>
			<g>
				<g>
					<path fill-rule="evenodd" class="s6" d="m114.3 143.3c-1.8 0-3.4-1.6-3.4-3.4 0-1.9 1.6-3.5 3.4-3.5 1.9 0 3.5 1.6 3.5 3.5 0 1.8-1.6 3.4-3.5 3.4z"/>
				</g>
			</g>
			<g>
				<g>
					<path class="s6" d="m130.8 143.3c-1.8 0-3.4-1.6-3.4-3.4 0-1.9 1.6-3.5 3.4-3.5 1.9 0 3.5 1.6 3.5 3.5 0 1.8-1.6 3.4-3.5 3.4z"/>
				</g>
			</g>
			<g>
				<g>
					<path fill-rule="evenodd" class="s6" d="m114.3 159.8c-1.8 0-3.4-1.6-3.4-3.4 0-1.9 1.6-3.5 3.4-3.5 1.9 0 3.5 1.6 3.5 3.5 0 1.8-1.6 3.4-3.5 3.4z"/>
				</g>
			</g>
			<g>
				<g>
					<path fill-rule="evenodd" class="s6" d="m114.3 176.3c-1.8 0-3.4-1.6-3.4-3.5 0-1.8 1.6-3.4 3.4-3.4 1.9 0 3.5 1.6 3.5 3.4 0 1.9-1.6 3.5-3.5 3.5z"/>
				</g>
			</g>
			<g>
				<g>
					<path fill-rule="evenodd" class="s6" d="m114.3 192.8c-1.8 0-3.4-1.6-3.4-3.5 0-1.9 1.6-3.4 3.4-3.4 1.9 0 3.5 1.5 3.5 3.4 0 1.9-1.6 3.5-3.5 3.5z"/>
				</g>
			</g>
			<g>
				<g>
					<path class="s6" d="m110.9 205.8c0-1.9 1.6-3.4 3.4-3.4 1.9 0 3.5 1.5 3.5 3.4 0 1.9-1.6 3.4-3.5 3.4-1.8 0-3.4-1.5-3.4-3.4z"/>
				</g>
			</g>
			<g>
				<g>
					<path class="s6" d="m130.8 159.8c-1.8 0-3.4-1.6-3.4-3.4 0-1.9 1.6-3.5 3.4-3.5 1.9 0 3.5 1.6 3.5 3.5 0 1.8-1.6 3.4-3.5 3.4z"/>
				</g>
			</g>
			<g>
				<g>
					<path class="s6" d="m127.4 172.8c0-1.8 1.6-3.4 3.4-3.4 1.9 0 3.5 1.6 3.5 3.4 0 1.9-1.6 3.5-3.5 3.5-1.8 0-3.4-1.6-3.4-3.5z"/>
				</g>
			</g>
			<g>
				<g>
					<path class="s6" d="m127.4 189.3c0-1.8 1.6-3.4 3.4-3.4 1.9 0 3.5 1.6 3.5 3.4 0 1.9-1.6 3.5-3.5 3.5-1.8 0-3.4-1.6-3.4-3.5z"/>
				</g>
			</g>
			<g>
				<g>
					<path class="s6" d="m127.4 205.8c0-1.9 1.6-3.4 3.4-3.4 1.9 0 3.5 1.5 3.5 3.4 0 1.9-1.6 3.4-3.5 3.4-1.8 0-3.4-1.5-3.4-3.4z"/>
				</g>
			</g>
			<g>
				<g>
					<path fill-rule="evenodd" class="s6" d="m114.3 225.7c-1.8 0-3.4-1.5-3.4-3.4 0-1.9 1.6-3.4 3.4-3.4 1.9 0 3.5 1.5 3.5 3.4 0 1.9-1.6 3.4-3.5 3.4z"/>
				</g>
			</g>
			<g>
				<g>
					<path class="s6" d="m127.4 222.3c0-1.9 1.6-3.4 3.4-3.4 1.9 0 3.5 1.5 3.5 3.4 0 1.9-1.6 3.4-3.5 3.4-1.8 0-3.4-1.5-3.4-3.4z"/>
				</g>
			</g>
		</g>
		<g>
			<g>
				<g>
					<path class="s6" d="m366.8 143.4c-1.9 0-3.4-1.5-3.4-3.4 0-1.9 1.5-3.4 3.4-3.4 1.9 0 3.4 1.5 3.4 3.4 0 1.9-1.5 3.4-3.4 3.4z"/>
				</g>
			</g>
			<g>
				<g>
					<path class="s6" d="m383.3 143.4c-1.9 0-3.4-1.5-3.4-3.4 0-1.9 1.5-3.4 3.4-3.4 1.9 0 3.4 1.5 3.4 3.4 0 1.9-1.5 3.4-3.4 3.4z"/>
				</g>
			</g>
			<g>
				<g>
					<path fill-rule="evenodd" class="s6" d="m366.8 159.9c-1.9 0-3.4-1.5-3.4-3.4 0-1.9 1.5-3.4 3.4-3.4 1.9 0 3.4 1.5 3.4 3.4 0 1.9-1.5 3.4-3.4 3.4z"/>
				</g>
			</g>
			<g>
				<g>
					<path fill-rule="evenodd" class="s6" d="m366.8 176.4c-1.9 0-3.4-1.5-3.4-3.4 0-1.9 1.5-3.4 3.4-3.4 1.9 0 3.4 1.5 3.4 3.4 0 1.9-1.5 3.4-3.4 3.4z"/>
				</g>
			</g>
			<g>
				<g>
					<path fill-rule="evenodd" class="s6" d="m366.8 192.9c-1.9 0-3.4-1.5-3.4-3.4 0-1.9 1.5-3.4 3.4-3.4 1.9 0 3.4 1.5 3.4 3.4 0 1.9-1.5 3.4-3.4 3.4z"/>
				</g>
			</g>
			<g>
				<g>
					<path fill-rule="evenodd" class="s6" d="m383.3 159.9c-1.9 0-3.4-1.5-3.4-3.4 0-1.9 1.5-3.4 3.4-3.4 1.9 0 3.4 1.5 3.4 3.4 0 1.9-1.5 3.4-3.4 3.4z"/>
				</g>
			</g>
			<g>
				<g>
					<path fill-rule="evenodd" class="s6" d="m383.3 176.4c-1.9 0-3.4-1.5-3.4-3.4 0-1.9 1.5-3.4 3.4-3.4 1.9 0 3.4 1.5 3.4 3.4 0 1.9-1.5 3.4-3.4 3.4z"/>
				</g>
			</g>
			<g>
				<g>
					<path fill-rule="evenodd" class="s6" d="m383.3 192.9c-1.9 0-3.4-1.5-3.4-3.4 0-1.9 1.5-3.4 3.4-3.4 1.9 0 3.4 1.5 3.4 3.4 0 1.9-1.5 3.4-3.4 3.4z"/>
				</g>
			</g>
			<g>
				<g>
					<path fill-rule="evenodd" class="s6" d="m349.8 142.9c-1.9 0-3.4-1.6-3.4-3.4 0-1.9 1.5-3.5 3.4-3.5 1.9 0 3.4 1.6 3.4 3.5 0 1.8-1.5 3.4-3.4 3.4z"/>
				</g>
			</g>
			<g>
				<g>
					<path fill-rule="evenodd" class="s6" d="m349.8 159.4c-1.9 0-3.4-1.6-3.4-3.5 0-1.8 1.5-3.4 3.4-3.4 1.9 0 3.4 1.6 3.4 3.4 0 1.9-1.5 3.5-3.4 3.5z"/>
				</g>
			</g>
			<g>
				<g>
					<path fill-rule="evenodd" class="s6" d="m349.8 175.9c-1.9 0-3.4-1.6-3.4-3.5 0-1.8 1.5-3.4 3.4-3.4 1.9 0 3.4 1.6 3.4 3.4 0 1.9-1.5 3.5-3.4 3.5z"/>
				</g>
			</g>
			<g>
				<g>
					<path class="s6" d="m346.4 188.9c0-1.9 1.5-3.4 3.4-3.4 1.9 0 3.4 1.5 3.4 3.4 0 1.9-1.5 3.4-3.4 3.4-1.9 0-3.4-1.5-3.4-3.4z"/>
				</g>
			</g>
		</g>
		<g>
			<g>
				<path class="s6" d="m368.8 70.1c0 1.1-0.8 1.9-1.9 1.9h-4.9v5c0 1-0.9 1.9-1.9 1.9-0.6 0-1-0.2-1.4-0.6-0.3-0.3-0.5-0.8-0.5-1.3v-5h-5c-1.1 0-1.9-0.8-1.9-1.9 0-0.5 0.2-1 0.5-1.3 0.4-0.4 0.9-0.6 1.4-0.6h5v-4.9c0-1.1 0.8-1.9 1.9-1.9 0.5 0 1 0.2 1.3 0.5 0.3 0.4 0.6 0.8 0.6 1.4v4.9h4.9c1.1 0 1.9 0.9 1.9 1.9z"/>
			</g>
			<g>
				<path class="s6" d="m364.8 91.5c-3.3 0-3.3 5.1 0 5.1 3.3 0 3.3-5.1 0-5.1z"/>
			</g>
			<g>
				<path class="s6" d="m388.3 70.7c-3.3 0-3.3 5.1 0 5.1 3.3 0 3.4-5.1 0-5.1z"/>
			</g>
		</g>
		<g>
			<g>
				<path class="s6" d="m448.5 154c0 1.1-0.9 1.9-1.9 1.9h-5v5c0 1.1-0.8 1.9-1.9 1.9-0.5 0-1-0.2-1.3-0.6-0.4-0.3-0.6-0.8-0.6-1.3v-5h-5c-1 0-1.9-0.8-1.9-1.9 0-0.5 0.3-1 0.6-1.3 0.3-0.3 0.8-0.6 1.3-0.6h5v-4.9c0-1.1 0.9-1.9 1.9-1.9 0.5 0 1 0.2 1.4 0.5 0.3 0.4 0.5 0.9 0.5 1.4v4.9h5c1 0 1.9 0.9 1.9 1.9z"/>
			</g>
			<g>
				<path class="s6" d="m420.3 169.5c-3.3 0-3.3 5.1 0 5.1 3.3 0 3.3-5.1 0-5.1z"/>
			</g>
			<g>
				<path class="s6" d="m423.1 131.9c-3.3 0-3.3 5.1 0 5.1 3.3 0 3.3-5.1 0-5.1z"/>
			</g>
		</g>
		<g>
			<g>
				<path class="s6" d="m143 92.7c0 1-0.8 1.9-1.9 1.9h-4.9v5c0 1-0.9 1.9-1.9 1.9-0.6 0-1-0.3-1.4-0.6-0.3-0.3-0.5-0.8-0.5-1.3v-5h-5c-1.1 0-1.9-0.9-1.9-1.9 0-0.5 0.2-1 0.5-1.4 0.4-0.3 0.9-0.5 1.4-0.5h5v-5c0-1 0.8-1.9 1.9-1.9 0.5 0 1 0.2 1.3 0.6 0.3 0.3 0.6 0.8 0.6 1.3v5h4.9c1.1 0 1.9 0.8 1.9 1.9z"/>
			</g>
			<g>
				<path class="s6" d="m112 86.4c-3.3 0-3.3 5.1 0 5.1 3.3 0 3.3-5.1 0-5.1z"/>
			</g>
			<g>
				<path class="s6" d="m148 68.4c-3.3 0-3.3 5.1 0 5.1 3.3 0 3.3-5.1 0-5.1z"/>
			</g>
		</g>
		<g>
			<g>
				<path class="s6" d="m64.9 173.6c0 1.1-0.8 1.9-1.9 1.9h-4.9v5c0 1-0.9 1.9-1.9 1.9-0.6 0-1-0.2-1.4-0.6-0.3-0.3-0.6-0.8-0.6-1.3v-5h-4.9c-1.1 0-1.9-0.8-1.9-1.9 0-0.5 0.2-1 0.5-1.3 0.4-0.4 0.9-0.6 1.4-0.6h4.9v-4.9c0-1.1 0.9-1.9 2-1.9 0.5 0 1 0.2 1.3 0.5 0.3 0.4 0.6 0.8 0.6 1.4v4.9h4.9c1.1 0 1.9 0.9 1.9 1.9z"/>
			</g>
			<g>
				<path class="s6" d="m33.2 167.7c-3.3 0-3.3 5.2 0 5.2 3.3 0 3.3-5.2 0-5.2z"/>
			</g>
		</g>
	</g>
</svg>