<svg version="1.2" xmlns="http://www.w3.org/2000/svg" viewBox="0 0 500 500" width="500" height="500">
	<title>13233885_5181746</title>
	<style>
		.s0 { opacity: .4;fill: #d0d1d3 } 
		.s1 { fill: #434244 } 
		.s2 { fill: #383838 } 
		.s3 { fill: #ffffff } 
		.s4 { fill: #e5b7ac } 
		.s5 { fill: #e5e5e6 } 
		.s6 { fill: #f1f1f2 } 
		.s7 { opacity: .5;fill: #ca7e86 } 
		.s8 { fill: #9cc7ed } 
		.s9 { fill: #d0d1d3 } 
		.s10 { fill: #59595b } 
		.s11 { fill: #808083 } 
		.s12 { fill: #babcbe } 
		.s13 { fill: #be717e } 
		.s14 { fill: #c58f80 } 
		.s15 { opacity: .2;fill: #c58f80 } 
		.s16 { fill: #e6e6e7 } 
		.s17 { fill: #68aae3 } 
		.s18 { opacity: .4;fill: #aa7168 } 
		.s19 { fill: #b56f61 } 
		.s20 { fill: #996158 } 
		.s21 { fill: #aa7168 } 
		.s22 { opacity: .3;fill: #c58f80 } 
		.s23 { fill: #a87067 } 
		.s24 { fill: #b78074 } 
		.s25 { fill: #ca7e86 } 
		.s26 { fill: #583b1c } 
		.s27 { fill: #4b804d } 
		.s28 { opacity: .4;fill: #ca7e86 } 
		.s29 { fill: #bbbcbf } 
		.s30 { fill: #a6a8aa } 
		.s31 { fill: #6d6e70 } 
		.s32 { fill: #df922f } 
		.s33 { fill: #cfd1d2 } 
		.s34 { fill: #6cb476 } 
		.s35 { fill: #9b7b53 } 
		.s36 { fill: #7f5e40 } 
		.s37 { fill: #3b3b3b } 
		.s38 { fill: #583c1c } 
		.s39 { fill: #d7a39b } 
		.s40 { fill: #e38669 } 
		.s41 { fill: #599c8d } 
		.s42 { fill: #4b8c7b } 
		.s43 { fill: #72c7b5 } 
		.s44 { fill: #c53e5d } 
	</style>
	<g id="BACKGROUND">
	</g>
	<g id="OBJECTS">
		<g>
		</g>
		<path class="s0" d="m466 445c0 0-97.6 28.7-218 28.7-120.4 0-218-28.7-218-28.7 0 0 97.6-28.7 218-28.7 120.4 0 218 28.7 218 28.7z"/>
		<g>
			<g>
				<path class="s1" d="m372.5 420.9l-0.6 4.4c0 0-10.6 5.3-12.3 5.3-1.7 0.1-22.7-4-19.7 15.9l51.9-1.8-1-24.4z"/>
				<path class="s1" d="m409.3 442c0 1.8 0 4.8 0 4.8 0 0 20.2 6.8 29.8-1.7 0 0 0.1-1.7-0.4-4.2-0.6-3.4-2.3-8.2-6.9-12.3l-1.9-10.8-15.2 3.9v6.1c0 0-4.9 11.2-5.4 13.9q0 0.2 0 0.3z"/>
				<path fill-rule="evenodd" class="s2" d="m425.8 238.4l7.3 183.1-21.5 1.9-18.8-148.9v148.9h-23.9l-6.4-184.2z"/>
				<path class="s2" d="m409.3 442c0 1.8 0 4.8 0 4.8 0 0 20.2 6.8 29.8-1.7 0 0 0.1-1.7-0.4-4.2-13.4 7.1-28.5 1.1-29.4 0.8q0 0.2 0 0.3z"/>
				<path fill-rule="evenodd" class="s2" d="m391.8 444.7l-0.4-4.8-51.7 2.4 0.2 4.2z"/>
			</g>
			<path class="s3" d="m445.6 323.8l-21.1 1.7-28.8 2.4-4.5-17.5-3.6 16.6-37.6-1.2 7.5-140.1-2.7-38.2c0 0 16.5-17.1 37-20.8 34.8 2.5 47.3 18.8 47.3 18.8 0 0-1.9 30.3-8.5 47.8q-0.2 0.6-0.3 2 0 1.7 0.1 4.4 0 1.7 0.2 3.7 0 0 0 0.2c1.9 29 13.3 108.3 14.8 119q0.1 0.6 0.1 0.9 0.1 0.3 0.1 0.3z"/>
			<path class="s0" d="m430.7 150.1q0 0 0 0.1 0-0.1 0-0.1z"/>
			<path class="s0" d="m430.4 199.7q0 0-0.1 0 0-0.1 0.1 0 0 0 0 0z"/>
			<path class="s0" d="m424.5 325.5c0 0 11-30.6-2.9-128.7-4.9-34.2 5.1-45.6 5.4-46.6 0 0.2-0.2 1.6-1.8 10.7-1.4 7.8 0.7 26 1.5 34.4 0.2 2.7 3.1 4.4 3.6 4.4 0 0.4 0.1 1.7 0.3 3.7q0 0 0 0.2c1.9 29 13.3 108.3 14.8 119q0.1 0.6 0.1 0.9 0.1 0.3 0.1 0.3z"/>
			<g>
				<path class="s4" d="m434.8 255.3c0 0 30.7-29.5 31.2-36 0.5-6.5-12.8-33-12.8-33l-18.7 1.7 14.2 30.7-21.2 30.4"/>
				<path class="s4" d="m427.5 249.1c0 0-15.1 7.9-14.9 10.1 0.2 2.3 4.1 0.8 6.9-0.8 0 0-3.5 11.9-2 16.1 0.7 1.8 4.2 0.9 4.9-2 0 0 8.3-1.6 9.7-4 3.2-4.4 3-7.4 2.5-14.4z"/>
				<path class="s3" d="m438.5 147.9c0 0 32.1 64.7 31.2 70.7-1 5.9-28.6 40.7-28.6 40.7l-15.1-15.8 15.1-27.4-16.9-25.9c0 0-9.8-37.4 14.3-42.3z"/>
			</g>
			<g>
				<path class="s4" d="m357.8 190.7l-10.4 30.7 15.5 30.4c0 0 13.4 6.6 13.5 8.9 0.2 2.2-5.1-0.3-7.4-1.4 0 0 4.5 8 3.6 15.4-0.2 1.9-2.8 1.7-3.8-1 0 0-6.1 0-7.4-2.2-2.9-3.6-3.2-6.6-3.8-13.6 0 0-22.4-29.5-22.7-35.9-0.4-6.5 9.3-33.1 9.3-33.1z"/>
				<path class="s3" d="m354.9 150.5c0 0-23.4 64.8-22.7 70.7 0.7 6 20.8 40.8 20.8 40.8l11-15.8-11-27.5 12.3-25.8c0 0 7.1-37.5-10.4-42.4z"/>
			</g>
			<path fill-rule="evenodd" class="s5" d="m411.6 286.4l12 2.9 11.9-2.9v-22.6h-23.9z"/>
			<path fill-rule="evenodd" class="s5" d="m355.6 286.4l11.1 2.9 11.1-2.9v-22.6h-22.2z"/>
			<path fill-rule="evenodd" class="s5" d="m391.8 315l0.2-19.4 0.1-19.5-0.1-38.8-0.5-38.9-0.4-19.4-0.5-19.4-0.2 19.4v19.4l0.1 38.9 0.5 38.8 0.3 19.5z"/>
			<path class="s6" d="m441.1 216.1l-5.8-8.9c3.5 3.7 4.5 4.3 6.6 2.8 6-4.5 13.4 0 19.8 3.8-11.9-3.3-18.3-2.5-20.6 2.3z"/>
			<path class="s6" d="m357.5 162.4l-1.5 50.1-3 6.2 8.8 21.9c0 0-6.2-17.3-14.4-19.2-8.1-1.8-8.1-1.8-8.1-1.8l9-1z"/>
			<g>
				<path class="s4" d="m409.4 128.6l-1.2 5.7c0 0-0.5 1.3-1.3 3.5-2.8 7.2-9.4 23.4-15.8 30.8-6.6-13.8-8.8-24.5-9.5-30.1-0.4-2.9 0.2-4.2 0.2-4.2 0 0-0.4-4.9-0.4-6.1 0-1.2 0-9.8 0-9.8l11.4 1.8 14.1-13.3c0 0-0.1 1.1-0.2 2.6-0.1 2.2-0.2 5.5 0.1 8.4 0.1 1.7 0.5 3.4 0.9 5 0.8 3.2 1.7 5.7 1.7 5.7z"/>
				<path class="s7" d="m407.7 122.9c-9 18.1-22 10.6-26.3 7.4v-9.1l11.4 1.9 13.9-13.6c-0.1 2.2-0.2 5.5 0.1 8.4 0.1 1.7 0.5 3.4 0.9 5z"/>
			</g>
			<g>
				<path class="s8" d="m408.8 137.8c-2.1 5.6-6.4 16.1-11.2 24.9-2.3 4.2-4.7 8-7.1 10.8-1.4-3.1-2.6-6.2-3.7-9.3-4.2-12.6-4.7-24-5.4-29.3 7.9 5.9 18 6 27.3-7.8z"/>
				<path fill-rule="evenodd" class="s9" d="m383.6 148.7l8.5-9.9 8 10.2-1.4 3.6-6.6-11.3-7.3 12z"/>
				<path class="s10" d="m393.2 147.7l1.9-4.8c-2.6-2.3-3.9-2-6.3 0 0.5 2 0.8 3.2 1.7 4.9l-3.7 15.8c1.1 3 2.3 6.1 3.7 9.2 2.4-2.7 4.8-6.5 7.1-10.7z"/>
			</g>
			<g>
				<path fill-rule="evenodd" class="s5" d="m408.9 126.7l-18.4 46.7 21.7-20.6-4.1-8.3 9.2-3.8-3.7-9.5z"/>
				<path class="s5" d="m381.4 128.2c0.5 14 4 29.5 8.9 44.6l-20-20 6.4-7.7-7.6-3.5 6.6-9.8z"/>
			</g>
			<g>
				<g>
					<g>
						<path class="s11" d="m371 187q-1-0.5-1.9-1.3c-3.4-3-5.1-9.4-5.3-19-0.1-7.1 0.8-13.4 0.8-13.4l0.8 0.1c0 0.2-3.4 24.9 4.2 31.7 1.8 1.6 4.1 2.1 6.8 1.4l0.2 0.7q-3.1 0.8-5.6-0.2z"/>
					</g>
					<g>
						<path class="s11" d="m363.1 185q-1.5-0.6-3.1-2l0.5-0.6c2.7 2.3 5.3 3 7.5 2.1 8.6-3.4 11.1-28.4 11.2-28.7l0.7 0.1c0 0.1-0.6 6.5-2.3 13.2-2.4 9.2-5.5 14.6-9.3 16.2q-2.4 0.9-5.2-0.3z"/>
					</g>
					<g>
						<path class="s10" d="m364.6 153.9c-0.2-0.1-0.4-0.3-0.4-0.6 0-0.3 0.4-7 4.1-10.1q2.2-1.9 5.4-1.5 3.1 0.5 4.9 2.9c2.9 4 1.7 10.5 1.6 10.8 0 0.3-0.4 0.6-0.8 0.5-0.3-0.1-0.6-0.4-0.5-0.8 0-0.1 1.1-6.2-1.4-9.7q-1.4-1.9-4-2.3c-1.7-0.2-3.1 0.1-4.3 1.1-3.3 2.8-3.6 9.1-3.6 9.1 0 0.4-0.3 0.7-0.7 0.7q-0.1 0-0.3-0.1z"/>
					</g>
					<path class="s12" d="m380.7 186.5c0 0.9-1 1.7-2.3 1.8-1.3 0.1-2.4-0.6-2.5-1.5 0-0.9 1-1.7 2.3-1.8 1.3-0.1 2.4 0.6 2.5 1.5z"/>
					<path class="s12" d="m361 182.9c-0.6 0.7-1.9 0.5-2.9-0.3-1-0.9-1.3-2.1-0.7-2.8 0.6-0.7 1.9-0.6 2.9 0.3 1 0.9 1.3 2.1 0.7 2.8z"/>
					<g>
						<path class="s10" d="m373.2 142.8c-0.3-0.1-0.4-0.4-0.4-0.7 0.1-0.4 2.1-14.9 8.7-15 0.1 0-0.1 1.4-0.1 1.4-5.4 0.7-7.2 13.7-7.2 13.8-0.1 0.4-0.4 0.6-0.8 0.6q-0.1 0-0.2-0.1z"/>
					</g>
				</g>
				<g>
					<path fill-rule="evenodd" class="s11" d="m414.1 180.1h0.9v4.6h-0.9z"/>
					<path class="s12" d="m418.5 187.6c0 2.4-2 4.4-4.4 4.4-2.5 0-4.4-2-4.4-4.4 0-2.5 1.9-4.4 4.4-4.4 2.4 0 4.4 1.9 4.4 4.4z"/>
					<path fill-rule="evenodd" class="s11" d="m412.2 189.3c-1.4 0-2.5-1.1-2.5-2.5 0-1.5 1.1-2.6 2.5-2.6 1.4 0 2.6 1.1 2.6 2.6 0 1.4-1.2 2.5-2.6 2.5z"/>
					<path class="s10" d="m413.9 180.8c0-1 0-9.3 1-25.4 0.7-13.3-4.4-25.2-6.2-28.9l-0.6-2c0.1-0.8 9.2 9.5 8.1 31-0.7 16.1-0.9 25.2-0.9 25.3-0.4 0.4-1.4 0-1.4 0z"/>
				</g>
			</g>
			<g>
				<path class="s4" d="m373.2 99.7c-0.5 16.1 7.9 29.4 18.8 29.8 10.8 0.3 20-12.5 20.5-28.6 0.5-16.1-7.9-29.4-18.8-29.7-10.9-0.3-20 12.4-20.5 28.5z"/>
				<path class="s1" d="m402.9 87.2c0 0-11.5 6.5-14.6 4-3.2-2.4-2.3-6-2.3-6 0 0-15 8.1-19.9 3-4.8-5.1 4.5-8.3 4.5-8.3 0 0.1-4.9-2.1-3.4-9.2 1.8-8.6 14.3-7.6 18.4-6.3 0 0-0.3-5.2 4.4-7.3 4.8-2 17.8 7.7 20.4 15.5 0 0 4.8-2.3 7 2 2.1 4.3-1.2 8.4-1.2 8.4 0 0 2.3 1.2 2.4 3 0.1 3.6-3.4 6.4-3.4 14.3 0 0-4.8 2.3-4.7 8.9 0 0-3.4-11.2-0.2-18 0 0-7.2 0.9-7.4-4z"/>
				<g>
					<path class="s4" d="m374.9 103.9c0 0-3.5-8.9-9.3-6.9-5.8 1.9 0.2 16.8 9 13.9z"/>
					<path class="s13" d="m367.2 101.1c4.1 0 6.4 3.8 6.5 4 0.1 0.1 0 0.3-0.2 0.4q0 0.1-0.1 0.1-0.2 0-0.3-0.2c0 0-0.9-1.4-2.4-2.5-1.4 0.9-0.8 3.3-0.8 3.3 0.1 0.2 0 0.4-0.2 0.5q-0.1 0-0.1 0c-0.2 0-0.3-0.1-0.3-0.3-0.1-0.1-0.8-2.6 0.8-3.9-0.8-0.4-1.7-0.7-2.8-0.7q0 0-0.1 0c-0.1 0-0.3-0.2-0.3-0.4 0-0.2 0.1-0.3 0.3-0.3z"/>
				</g>
				<g>
					<path class="s4" d="m410.3 111.1c5.8 2.2 10.8-3.4 11.8-8.1 0.5-2.4 0-4.5-1.9-5.3-4-1.6-7.1 2.3-8.7 4.7-0.6 1-1.2 8.7-1.2 8.7z"/>
					<path class="s13" d="m418.3 101.7c-4.1-0.1-6.5 3.5-6.6 3.6-0.1 0.2-0.1 0.4 0.1 0.5q0.1 0.1 0.1 0.1 0.2 0 0.3-0.2c0.1 0 1-1.4 2.6-2.3 1.3 0.9 0.6 3.3 0.5 3.3 0 0.2 0.1 0.4 0.3 0.5q0 0 0.1 0c0.1 0 0.2-0.1 0.3-0.2 0-0.2 0.9-2.6-0.6-4 0.8-0.4 1.7-0.6 2.8-0.6q0 0 0.1 0c0.2 0.1 0.3-0.1 0.3-0.3 0.1-0.2-0.1-0.4-0.3-0.4z"/>
				</g>
				<path fill-rule="evenodd" class="s1" d="m370.6 89.2l2.5 11.5 2.3 4.6 0.5-18.4z"/>
				<path class="s1" d="m386 104.5c0 2.2-0.6 4-1.2 4-0.6 0-1.2-1.8-1.2-4 0-2.2 0.6-4 1.2-4 0.6 0 1.2 1.8 1.2 4z"/>
				<path class="s1" d="m400.5 104.5c0 2.2-0.5 4-1.1 4-0.7 0-1.2-1.8-1.2-4 0-2.2 0.5-4 1.2-4 0.6 0 1.1 1.8 1.1 4z"/>
				<g>
					<g>
						<g>
							<path class="s13" d="m405.3 107.8c0.1 0.4 0.9 0.5 1.9 0.4 1-0.1 1.8-0.4 1.7-0.8 0-0.3-0.8-0.5-1.8-0.4-1 0.1-1.8 0.5-1.8 0.8z"/>
							<path class="s13" d="m405.1 109.8c0.1-0.3 0.9-0.5 1.9-0.3 1 0.2 1.7 0.6 1.7 0.9-0.1 0.3-0.9 0.5-1.9 0.3-1-0.2-1.8-0.6-1.7-0.9z"/>
						</g>
						<g>
							<path class="s13" d="m379.9 109c-0.1-0.3-0.9-0.5-1.9-0.4-1 0.2-1.8 0.5-1.7 0.8 0 0.4 0.8 0.5 1.8 0.4 1-0.1 1.8-0.4 1.8-0.8z"/>
							<path class="s13" d="m380.1 107.1c0 0.3-0.9 0.4-1.9 0.3-1-0.2-1.7-0.6-1.7-0.9 0.1-0.4 0.9-0.5 1.9-0.3 1 0.2 1.8 0.6 1.7 0.9z"/>
						</g>
					</g>
					<g>
						<g>
							<path class="s13" d="m391.9 112.2q0 0 0.1 0c0.5 0 1.7-0.4 1.9-3.5 0.4-5-0.3-7.9-0.4-8 0-0.2-0.2-0.3-0.4-0.2-0.2 0-0.3 0.2-0.2 0.4 0 0 0.7 2.8 0.4 7.8-0.2 2-0.8 2.8-1.4 2.8-0.7 0.1-1.9-1.3-2.3-3.6-0.1-0.2-0.2-0.3-0.4-0.3-0.2 0.1-0.3 0.3-0.3 0.4 0.5 2.5 1.7 4.2 3 4.2z"/>
						</g>
						<g>
							<path class="s13" d="m391.9 117.9c5.2 0.1 8.5-3.8 8.6-3.9 0.1-0.2 0.1-0.4-0.1-0.5-0.1-0.1-0.3-0.1-0.4 0-0.1 0.1-3.2 3.8-8.1 3.7-4.8-0.2-7-4.1-7-4.1-0.1-0.2-0.3-0.2-0.5-0.1-0.2 0.1-0.2 0.3-0.1 0.4 0.1 0.2 2.4 4.3 7.6 4.5z"/>
						</g>
						<g>
							<g>
								<path class="s1" d="m382 97q1.7-0.6 3.7 0.5c0.5 0.2 1.1 0 1.3-0.4 0.3-0.5 0.1-1.1-0.4-1.4q-2.8-1.4-5.3-0.6c-2.5 0.9-3.8 4.5-3.4 4.7 0.1 0.1 2.3-2.3 4.1-2.8z"/>
							</g>
							<g>
								<path class="s1" d="m406.2 100.8c0.5-0.1-0.3-3.9-2.8-5q-2.3-1.2-5.3-0.1c-0.5 0.2-0.7 0.7-0.6 1.3 0.2 0.5 0.8 0.7 1.3 0.5q2.2-0.7 3.8 0c1.7 0.8 3.5 3.4 3.6 3.3z"/>
							</g>
						</g>
					</g>
				</g>
			</g>
		</g>
		<g>
			<g>
				<path class="s14" d="m153.2 186.4c-1.7 2.2-5.7 3.7-10.1 3.2q-0.2 0-0.4-0.1c-2.8-0.3-5.7-1.5-8.3-3.7-1.1-3.4-2.3-7.2-3.6-11.1q-1-3.4-2-7c-1.9-6.4-3.8-13.1-5.4-19.6-8-44.2 11.6-25 17.6-16.3q0.1 0.2 0.1 0.3 0.2 0.3 0.3 0.6c6.2 16 9.3 24.7 10.8 38.1 0.3 2.8 0.5 5.8 0.7 9.1q0.2 3 0.3 6.5z"/>
				<path class="s15" d="m134.4 185.8c0 0 2.6 2.2 0 0-1.1-3.4-2.3-7.2-3.6-11.1q-1-3.4-2-7c6.7-10.8 10.7-23 12.3-35.6q0.2 0.3 0.3 0.6c6.2 16 9.3 24.7 10.8 38.1-2.8-2.4-13.1-7.1-13.6-5.5-3 10.4-4.2 20.5-4.2 20.5z"/>
				<path class="s8" d="m135.2 162c8.3 0 15.2 5.6 17.5 9.2 0-12-5.5-28.5-11.7-39.4-6-8.7-25.6-27.9-17.6 16.3 0.5 2.1 11.2 11.8 11.8 13.9z"/>
			</g>
			<g>
				<path class="s3" d="m131.2 443.5l-29-1 1.1-26 18.6 0.7 0.7 4.6c0 0 10.8 5.6 12.6 5.7"/>
				<path class="s16" d="m135.2 427.5c1.8 0 20.3 2.2 20.1 16.9l-24.1-0.9"/>
				<path class="s3" d="m83.3 441.4q0 0.3 0 0.4c0 2 0 5.6 0 5.6 0 0-22.6 7.9-33.3-2 0 0-0.2-2 0.4-4.9"/>
				<path class="s3" d="m50.4 440.5c0.7-3.9 2.6-9.5 7.7-14.3l2.1-12.5 17.1 4.4v7.2c0 0 5.4 13 6 16.1"/>
				<path class="s16" d="m83.3 441.4c0 0-1.8-7.5-15.9-8.4-14-0.9-17 7.5-17 7.5l15.5 8.8z"/>
				<path fill-rule="evenodd" class="s17" d="m128.9 247.1v171.1l-30.5 1.8-0.5-52-0.9-103.6-3.2 35-11.1 120.6-28.5-2.7 4.4-119 2.1-55z"/>
				<path class="s0" d="m128.9 247.1v46.6c-10.1 1.6-22.6 1.2-22.9 4.2-1.4 13.5-2.8 40.3-8.1 75.5l-0.9-109-2.7 29.7c-9.2 0.3-27.8-1.1-27.9 0-2.7 24.9-8.9 58.2-11.2 97.1l5.5-147.9z"/>
				<path fill-rule="evenodd" class="s3" d="m102.2 442.5v-5.2l53.4 2.6-0.3 4.5z"/>
				<path class="s3" d="m83.3 441.8c0 2 0 5.6 0 5.6 0 0-22.6 7.9-33.3-2 0 0-0.2-2 0.4-4.9 15 8.3 31.9 1.3 32.9 0.9q0 0.3 0 0.4z"/>
			</g>
			<path class="s8" d="m138.6 289l-30.3 1-3.9 0.1-5.5-17.6-3 18.7-3.1-0.3-39.3-3.3c0 0 8.1-104.6 5.1-112.9-4.2-11.5-6.5-28.3-7.7-39.3-0.7-6.8-1-11.5-1-11.5 0 0 12.8-17.3 48.5-20 21 4 37.8 22.1 37.8 22.1 0 0-0.5 33-1.3 46.9-3 47.9 3.7 116.1 3.7 116.1z"/>
			<path fill-rule="evenodd" class="s17" d="m82.6 270.5l-23.8-1.6 1.7-27.4 23.9 1.5z"/>
			<path class="s0" d="m124.1 123.9l7.6 37.4c0 0 3.8 0.6 7.7 1.3 4 0.7 9.7 4.8 9.7 4.8 0 0-1.6-4.9-5.9-7.4-2.6-1.4-5.2-1.9-6.6-1.9-0.9 0-12.5-34.2-12.5-34.2z"/>
			<path class="s0" d="m66.7 204.5c-6.1 52-5.2 76.9 17.1 85.6l-30.3-2.5c0 0 8.1-104.6 5.1-112.9-4.2-11.5-6.5-28.3-7.7-39.3l3.5-11.5c0 0 24 13.8 30.4 31 6.4 17.1 46.9 6.4 46.9 6.4l3.8 0.6c0 0-2.2 27.2-1.8 36.6 0.4 9.4-67 6-67 6z"/>
			<path class="s0" d="m104.4 290.1l-5.5-17.6c0.3-2.9 1.4-13.2 1.4-13.2 0.1 16.2 4.1 30.8 4.1 30.8z"/>
			<path class="s17" d="m111.3 108.2c-3.9-1.7-8-3.5-12.3-4.3-7.9 0.6-20.1 3.2-21.6 3.8 0 0 0.2 6.8 1.4 11.1 3.8 13.8 11.9 17.6 20.6 25 12.9-12 11.5-26.5 11.5-26.5 0 0 0.4-8 0.4-9.1z"/>
			<g>
				<g>
					<g>
						<path class="s11" d="m90.6 165.8q-1.2-0.1-2.4-0.6c-4.2-1.7-8.1-7.3-11.5-16.5-2.5-6.8-3.8-13.2-3.8-13.2l0.7-0.2c0.1 0.2 5.3 25.2 14.9 29.2 2.3 0.9 4.7 0.6 7.1-1l0.5 0.6q-2.8 1.9-5.5 1.7z"/>
					</g>
					<g>
						<path class="s11" d="m82.3 166.6q-1.7-0.1-3.8-0.9l0.3-0.7c3.5 1.3 6.2 1.1 8.1-0.5 7-6.3 0.9-31.3 0.9-31.5l0.8-0.2c0 0 1.5 6.4 2.2 13.5 0.9 9.7-0.3 16-3.4 18.8q-2 1.7-5.1 1.5z"/>
					</g>
					<g>
						<path class="s10" d="m73.1 136.1c-0.3 0-0.5-0.2-0.6-0.5-0.1-0.3-2.1-6.9 0.4-11.1q1.6-2.6 4.8-3.3 3.2-0.6 5.7 1.1c4.1 2.9 5.2 9.5 5.3 9.8 0 0.4-0.2 0.8-0.6 0.8-0.4 0.1-0.8-0.2-0.8-0.5 0-0.1-1.1-6.4-4.7-8.9q-2-1.4-4.6-0.9c-1.8 0.4-3 1.2-3.8 2.6-2.2 3.7-0.4 9.9-0.4 10 0.2 0.3-0.1 0.7-0.4 0.9q-0.2 0-0.3 0z"/>
					</g>
					<path class="s9" d="m99.7 162c0.4 0.9-0.3 2-1.5 2.5-1.3 0.6-2.6 0.3-2.9-0.6-0.4-0.8 0.3-1.9 1.5-2.5 1.3-0.5 2.6-0.2 2.9 0.6z"/>
					<path class="s12" d="m79.5 165.3c-0.3 0.9-1.6 1.2-2.9 0.7-1.2-0.5-2-1.6-1.6-2.5 0.3-0.9 1.6-1.2 2.9-0.7 1.2 0.5 1.9 1.6 1.6 2.5z"/>
					<g>
						<path class="s10" d="m77.6 122.4c-0.3 0-0.6-0.2-0.6-0.5-0.1-0.5-3.1-15.1 3.2-17.4 0.1-0.1 0.4 1.3 0.4 1.3-5 2.6-2.3 15.7-2.2 15.8 0 0.4-0.2 0.8-0.6 0.8q-0.1 0-0.2 0z"/>
					</g>
				</g>
				<g>
					<path fill-rule="evenodd" class="s11" d="m117.5 160.1l1-0.1 0.5 4.7-1 0.1z"/>
					<path class="s12" d="m114.7 167.3c-0.1 3.1 2.7 5.4 5.7 4.7 1.8-0.5 3.2-2.2 3.3-4.1 0.2-3.1-2.6-5.4-5.6-4.6-1.9 0.4-3.3 2.1-3.4 4z"/>
					<path class="s11" d="m118.4 166.4c-0.1 1.8 1.6 3.2 3.4 2.7 1-0.3 1.7-1.2 1.8-2.2 0.2-1.9-1.5-3.3-3.3-2.8-1 0.3-1.8 1.2-1.9 2.3z"/>
					<path class="s10" d="m117.4 161.1c-0.1-1.1-0.9-9.5-1.6-26-0.6-13.6-7.1-25.3-9.2-28.8l-0.8-2c0-0.9 10.2 8.8 11.4 30.7 0.9 16.5 1.6 25.8 1.6 25.9-0.3 0.5-1.4 0.2-1.4 0.2z"/>
				</g>
			</g>
			<g>
				<path class="s14" d="m80.4 107.6c0 0 1.7 9.2 2.5 11.4 2.8 7.4 8.3 12.9 15.8 19.3 10.3-10.9 9.9-22.9 9.9-22.9 0 0 0.4-5 0.4-6.2 0-1.3 0.5-11.3 0.5-11.3l-12.2 3.1-16.2-8z"/>
				<path class="s18" d="m80.6 102c9.2 18.6 23.6 16.7 28 13.4l0.4-13.3-11.7 1.8-16.2-14.8c0.1 1.6 0 6.2-0.1 9.5-0.1 1.6-0.2 2.9-0.4 3.4z"/>
			</g>
			<g>
				<g>
					<path class="s14" d="m80.3 86.5l-0.4 6.5c-5.7 1.6-9.8-4.2-10.3-8.7-0.3-2.3 0.4-4.2 2.3-4.8 3.9-1.1 6.5 2.8 7.7 5.2 0.5 1 0.7 1.8 0.7 1.8z"/>
					<path class="s19" d="m73 82.3c3.6 1.5 4.3 5.5 4.3 5.7 0 0.2-0.1 0.3-0.3 0.4q-0.1 0-0.1-0.1-0.2 0-0.2-0.2c0 0-0.3-1.5-1.3-3-1.5 0.3-1.8 2.6-1.8 2.7 0 0.1-0.2 0.3-0.3 0.2q-0.1 0-0.1 0c-0.2 0-0.2-0.2-0.2-0.3 0-0.1 0.2-2.6 2-3.1-0.5-0.7-1.2-1.3-2.1-1.7q-0.1 0-0.1 0c-0.2 0-0.3-0.3-0.2-0.4 0.1-0.2 0.3-0.3 0.4-0.2z"/>
				</g>
				<g>
					<path class="s14" d="m114.4 84.9l-0.4 6.5c5.4 2.3 10.2-2.9 11.3-7.3 0.6-2.2 0.2-4.2-1.6-5-3.7-1.6-6.8 1.9-8.3 4.1-0.7 1-1 1.7-1 1.7z"/>
					<path class="s19" d="m122.2 81.7c-3.7 1-4.9 4.9-5 5.1 0 0.2 0.1 0.3 0.2 0.4q0.1 0 0.2 0 0.2 0 0.2-0.2c0 0 0.5-1.5 1.6-2.8 1.6 0.5 1.5 2.8 1.5 2.8 0 0.2 0.1 0.4 0.3 0.4q0.1 0 0.1 0c0.1-0.1 0.2-0.2 0.2-0.3 0-0.2 0.1-2.6-1.6-3.4 0.6-0.6 1.4-1.1 2.3-1.3q0.1-0.1 0.1-0.1c0.2 0 0.3-0.2 0.3-0.4-0.1-0.1-0.2-0.2-0.4-0.2z"/>
				</g>
				<path class="s14" d="m117.4 73.6c0.2 5.7-1.7 20.9-2.2 23.5-0.5 2.6-7.8 15.1-10.1 15.3-2.3 0.2-10.5 0.8-13.3-0.7-2.9-1.5-11.8-12.7-12.4-14.9-0.7-2.1-2.1-16.6-2.2-22-0.5-16.5 8.1-23.7 19.2-24 11.1-0.3 20.5 6.3 21 22.8z"/>
				<path class="s1" d="m104.3 83.7c0 1.6 0.6 2.9 1.2 2.9 0.7 0 1.2-1.3 1.2-2.9 0-1.6-0.5-2.9-1.2-2.9-0.6 0-1.2 1.3-1.2 2.9z"/>
				<path class="s1" d="m89.4 83.7c0 1.6 0.6 2.9 1.2 2.9 0.7 0 1.2-1.3 1.2-2.9 0-1.6-0.5-2.9-1.2-2.9-0.6 0-1.2 1.3-1.2 2.9z"/>
				<path class="s20" d="m111.7 97.5c-1.1 0.5 0.7-4.3-13.4-4-12.7 0.3-12.2 3.4-14.8 3.4-2.6 0-5.1-7.1-5.1-7.1 0.3 3.4 0.7 6.2 1 7 0.6 2.2 9.5 13.4 12.4 14.9 2.8 1.5 11 0.9 13.3 0.7 2.3-0.2 9.6-12.7 10.1-15.3 0.2-1.2 0.7-4.9 1.2-9.2 0 0-3.7 9-4.7 9.6zm-13 8.1c-5.9 0-11.5-3.1-11.5-6 0-3 5.6-4.6 11.5-4.6 5.8 0 11.6 1.3 11.6 4.2 0 3-5.8 6.4-11.6 6.4z"/>
				<g>
					<g>
						<g>
							<path class="s19" d="m84.5 88.3c0 0.4-0.9 0.5-1.9 0.4-1-0.1-1.8-0.5-1.8-0.8 0.1-0.3 0.9-0.5 1.9-0.4 1.1 0.1 1.8 0.5 1.8 0.8z"/>
							<path class="s19" d="m84.7 90.3c0-0.3-0.9-0.4-1.9-0.3-1 0.2-1.8 0.6-1.7 1 0 0.3 0.9 0.4 1.9 0.2 1-0.1 1.8-0.5 1.7-0.9z"/>
						</g>
						<g>
							<path class="s19" d="m110.6 89.6c0-0.4 0.9-0.6 1.9-0.4 1 0.1 1.8 0.4 1.8 0.8-0.1 0.3-0.9 0.5-2 0.4-1-0.1-1.8-0.5-1.7-0.8z"/>
							<path class="s19" d="m110.3 87.6c0.1 0.3 1 0.4 2 0.2 1-0.1 1.8-0.5 1.7-0.9-0.1-0.3-0.9-0.4-1.9-0.3-1.1 0.2-1.8 0.6-1.8 1z"/>
						</g>
					</g>
					<g>
						<g>
							<path class="s19" d="m98.3 92.8q-0.1 0-0.1 0c-0.6 0-1.8-0.4-2-3.6-0.4-5.1 0.4-8 0.4-8.1 0-0.2 0.2-0.3 0.4-0.3 0.2 0.1 0.3 0.2 0.3 0.4 0 0.1-0.8 2.9-0.4 8 0.1 2.1 0.8 2.9 1.3 2.9 0.8 0.1 2-1.3 2.4-3.7 0.1-0.2 0.3-0.3 0.4-0.3 0.2 0.1 0.4 0.3 0.3 0.5-0.4 2.4-1.7 4.2-3 4.2z"/>
						</g>
						<g>
							<path class="s19" d="m99.4 101.7c-4.9 0.1-8-3.5-8.1-3.7-0.1-0.1-0.1-0.3 0.1-0.4 0.1-0.2 0.3-0.1 0.4 0 0.1 0 3 3.6 7.6 3.5 4.6-0.2 6.7-3.9 6.7-3.9 0.1-0.2 0.3-0.2 0.4-0.1 0.2 0.1 0.2 0.3 0.2 0.4-0.1 0.2-2.3 4.1-7.3 4.2z"/>
						</g>
						<g>
							<g>
								<path class="s20" d="m108.4 77.2q-1.7-0.6-3.8 0.5c-0.5 0.3-1.1 0.1-1.4-0.4-0.2-0.5 0-1.1 0.5-1.3q2.8-1.5 5.4-0.7c2.6 0.9 3.9 4.6 3.4 4.8-0.1 0.1-2.3-2.3-4.1-2.9z"/>
							</g>
							<g>
								<path class="s20" d="m83.6 81.2c-0.5-0.2 0.4-4 2.9-5.2q2.4-1.2 5.4-0.1c0.5 0.2 0.8 0.8 0.6 1.3-0.2 0.5-0.8 0.8-1.3 0.6q-2.2-0.8-3.9 0c-1.7 0.8-3.6 3.4-3.7 3.4z"/>
							</g>
						</g>
					</g>
				</g>
			</g>
			<g>
				<g>
					<g>
						<path class="s14" d="m115.6 163.3c0 0 7.5-1.8 14.5-1 3.8 1 8.2 5.5 9 6.1 1.5 1.8 2.9 7.9 2.6 9.4 0.3 2.1-1 4.2-2.7 2-1.8-3.7-3.6-7.7-3.6-7.7l-3.9-4.1c0 0 3.2 3 4 4.2 0.8 1.1 2.4 11.3 1.7 12.6-0.7 1.2-3.1 0.2-3.4-2.2 0 0 0.1 2.4-0.6 3-0.7 0.5-1.5 0.1-2.3-3 0 0-0.6 2-1.5 2.1-1.9-0.2-2.6-7-3-7.4-0.4-0.4-6.4 2.5-9.8-5-4-6.4-1-9-1-9z"/>
						<path class="s21" d="m133.8 182.6c0-1.4-0.1-2.7-0.3-4-0.3-1.3-0.5-2.7-1.1-3.8 0.4 2.6 0.8 5.2 1.4 7.8z"/>
						<path class="s21" d="m130.9 182.6c0-1.1-0.2-2.2-0.4-3.2-0.2-1.1-0.5-2.1-1-3 0.4 2.1 0.7 4.2 1.4 6.2z"/>
					</g>
				</g>
				<path class="s14" d="m137.8 195.3q-0.5 0-1-0.1c-9.2-1.1-52.8-12.9-52.8-12.9l-0.1-2.7-0.3-5.8 6.5-1.8c0 0 14.9-0.1 36.3 2.4q2.3 0.1 4.4 0.3c9.7 0.9 17 4.1 20.4 7.8 1.1 1.3 1.8 2.6 2 3.9 0.7 5.4-6.6 9.6-15.4 8.9z"/>
				<path class="s14" d="m137.8 195.3q-0.5 0-1-0.1c-9.2-1.1-52.8-12.9-52.8-12.9l-0.1-2.7-0.3-5.8 6.5-1.8c0 0 15-1.7 36.4 0.8 18.1 2 21.3 6 24.7 9.7 1.1 1.3 1.8 2.6 2 3.9 0.7 5.4-6.6 9.6-15.4 8.9z"/>
				<path class="s22" d="m136.9 174.4c0 0-6.2-1.7-14.6-1.4 0 0 13.4 1.3 20.6 4.7 0 0-3.2-2.4-6-3.3z"/>
				<path class="s15" d="m137.8 195.3q-0.5 0-1-0.1c-9.2-1.1-52.8-12.9-52.8-12.9l-0.1-2.7c7.5 2.5 14.9 5.1 22.6 6.8 11.8 2.6 23.7 5.4 35.6 3.3q0.3-0.1 0.6-0.2c9.4-2 9.6-9 10-9.9q0.1 0.1 0.2 0.3 0.2 3 0.3 6.5c0.7 5.4-6.6 9.6-15.4 8.9z"/>
				<g>
					<g>
						<path class="s14" d="m45.8 147.6c5.5 23.1 9 31.2 22.1 51.7 4.5 1.4 11.7-2.2 14-11-3.1-11-6.3-25.4-11.1-38.1-9.1-20.2-15-26.5-18.7-24.5-3.8 2-8.1 8.7-6.3 21.9z"/>
					</g>
				</g>
				<g>
					<g>
						<path class="s8" d="m52.2 180.8c3-1.1 29.9-18.9 29.7-19.2-9.1-20.1-26.1-43.3-29.3-40.6-5.8 5-8.6 13.4-6.8 26.6 1 4.6 5.4 29.7 6.4 33.2z"/>
					</g>
				</g>
				<g>
					<path class="s14" d="m93 179.1c0 0-4.8-11.9-6.4-14.2-2.8-3.3-9.5-6-10.5-6.5-2.4-0.7-7.9 0.1-9.2 1-2.1 0.6-3.8 2.6-1 3.4 4.3 0.3 9.1 0 9.1 0l5.8 3.1c0 0-4.4-1.9-5.9-2.2-1.4-0.3-11.5 2.3-12.3 3.5-0.9 1.3 1.3 3.2 3.6 2.5 0 0-2.2 0.9-2.4 1.8-0.2 0.9 0.6 1.6 3.8 1 0 0-1.5 1.4-1.1 2.4 1.1 1.8 7.6-0.4 8.2-0.2 0.5 0.2 0.8 7.3 9.3 7.6 7.9 1.2 9-3.2 9-3.2z"/>
					<path class="s22" d="m76.3 173c-0.4 0.1-5.5 2.4-9.8 1.9 1.1 1.8 7.6-0.4 8.2-0.2 0.5 0.2 0.8 7.3 9.3 7.6 3 0.5 8.9-4.2 10.3-4.9-12.1 1.4-14.7 3.9-18-4.4z"/>
					<path class="s22" d="m66.2 169.7c1.3-0.6 2.6-1 3.9-1.4 1.3-0.3 2.6-0.6 4-0.5-2.7 0.7-5.2 1.5-7.9 1.9z"/>
					<path class="s22" d="m67.6 172.5c1-0.4 2.1-0.7 3.2-0.9 1.1-0.2 2.2-0.4 3.2-0.2-2.1 0.5-4.2 0.9-6.4 1.1z"/>
				</g>
				<path class="s14" d="m123.4 162.9l-7.8 0.4c0 0-11.2 4.5-29 13.6-13.3 5.1-20.8 14.1-19.9 19.7 1 5.6 9 7.2 16.7 3.3 7.7-4 41.6-29.8 41.6-29.8z"/>
				<path class="s15" d="m83.4 199.9q0.3-0.2 0.6-0.3c10.6-6.7 37.5-26.3 37.5-26.3 0 0-2.1 1.4-5.4 3.5q-1.6 1-3.5 2.2-0.1 0.1-0.3 0.2-0.9 0.6-2 1.2 0 0 0 0.1-1 0.5-2 1.2-0.3 0.1-0.5 0.2-2.1 1.3-4.4 2.7-0.3 0.2-0.6 0.4-1 0.6-2.1 1.2-0.1 0.1-0.3 0.1-1.2 0.7-2.3 1.4-0.4 0.2-0.7 0.4-1 0.5-2 1.1-0.2 0.1-0.5 0.3-1.2 0.6-2.4 1.3-0.3 0.1-0.6 0.3-1 0.5-2 1.1-0.3 0.1-0.6 0.3-1.2 0.6-2.4 1.2-0.3 0.2-0.5 0.3-1 0.5-2 1-0.3 0.1-0.6 0.3-1.2 0.6-2.4 1.1-0.2 0.1-0.3 0.1-1 0.5-2.1 1-0.3 0.1-0.6 0.2c-3.5 1.3-4.9-0.1-5.2-0.4q-0.1 0-0.1 0-0.2-0.2-0.5-0.4 0-0.1-0.1-0.1-0.2-0.2-0.4-0.4-0.1-0.1-0.1-0.2-0.3-0.2-0.5-0.4-0.1-0.1-0.1-0.1c-1-1-2-2.2-3-3.5q0 0 0 0-0.3-0.4-0.6-0.8c-2.2-3-6.1-11.3-6.1-11.3 0 0 0.1-2.3 4-7.6l-9.7 6.2c2.9 5.9 6.3 11.7 11.3 19.6q0.1 0.2 0.3 0.4 0.1 0.3 0.3 0.6 0 0 0 0 0 0 0 0 0 0 0 0 0 0 0 0 0 0 0 0 0.2 0.1 0.3 0.2 0 0 0 0 0.2 0.3 0.4 0.5 0.1 0.1 0.3 0.2 0.2 0.2 0.4 0.3 0.2 0.2 0.4 0.3 0.3 0.2 0.6 0.3 0.1 0.1 0.2 0.1 0.3 0.1 0.7 0.3 0 0 0 0 0.1 0 0.2 0.1 1.2 0.3 2.6 0.4 0 0 0 0 0.5 0.1 1 0.1 0.1 0 0.2 0 0.5-0.1 1-0.1 0.1 0 0.2 0 0.6-0.1 1.2-0.2 0 0 0 0 0.2 0 0.3 0 0 0 0 0 0.5-0.1 1-0.2 0 0 0 0 0.2-0.1 0.4-0.1 0.5-0.2 0.9-0.3h0.1q0.1-0.1 0.3-0.1 0.5-0.2 1-0.4 0.3-0.1 0.5-0.2 0 0 0 0 0.6-0.3 1.3-0.6 0 0 0 0z"/>
			</g>
		</g>
		<g>
			<g>
				<g>
					<path class="s14" d="m262.7 179.4c0 0-13.9 44-14.6 96.8 0 0 5 2.3 10.6-0.1 0 0 6.1-48.4 18.7-74.9 2.9-5.6 2.4-13.2 1-17.5-13.1-21.1-15.7-4.3-15.7-4.3z"/>
				</g>
				<g>
					<path class="s23" d="m251.5 285.5c0 0 2.9 5.7 3.4 6.3 0.5 0.5 4.3 2.1 4.6 3.1 0.3 0.9-0.9 2-3.7 0.9-2.8-1.1-3.6-1.4-4.1-1.9-0.5-0.6-3.7-6.6-3.7-6.6z"/>
					<path class="s24" d="m250.5 286.9c0 0 2.4 7.1 2.9 7.8 0.5 0.7 4.7 3 4.9 4.2 0.2 1.1-1.4 2.2-4.5 0.6-3.1-1.6-3.9-2.1-4.4-2.8-0.6-0.7-3.2-8.1-3.2-8.1z"/>
					<path class="s14" d="m248.1 276c0 0-3 8.1-3.5 10.6-0.4 2.5 4.3 12.1 4.9 14.9 0.9 3 3.6 2.5 3.1-1.6-0.5-4.3-2.3-11.4-2.4-12 0-0.6 3.6-4 4.1-4.2 0.5-0.2 2.6 3 2.8 3.6 0.1 0.6-1.5 4.6 1.2 6.6 2.7 2 4.1-6.7 3.8-8.3-0.4-1.7-0.9-7.4-4.3-10.6l-8.2-0.2z"/>
				</g>
			</g>
			<g>
				<path class="s8" d="m273.6 157.7c0 0-4.9 3.1-5.9 4.8-5.8 7.3-16.6 41.9-16.6 41.9l18.5 7.4 6.5-27.1z"/>
				<path class="s0" d="m260.6 208.2c0 0-3.4-13.9-0.8-20.6 2.7-6.8 9.9-22.9 9.9-22.9 0 0-9.9 14.4-13.2 27.4-1.2 4.5 1.6 15.1 1.6 15.1z"/>
			</g>
			<g>
				<path class="s14" d="m298.4 149.3c23.2 6.1 29.6 13.4 29.6 13.4l-15.6 43.2c0 0-3.2 16.6 1.3 24.5 15.8 13.3 3.5 35 3.5 35-10.6 7.5-33.7-2.9-33.7-2.9 0 0-11.2-3.1-19.3-13.2 0 0 4.4-16.7 1.6-28.3-5.5-16.2-6.4-30-2.6-41.9 4.3-8.1 13.9-29.1 35.2-29.8z"/>
				<path fill-rule="evenodd" class="s14" d="m308.5 133.4l1.6 21.2-25 1.9 0.4-8.5 0.4-7 0.2-0.4 5.5-8.9z"/>
				<g>
					<g>
						<path class="s14" d="m311.3 122.9c0 0 3-8.6 8.5-6.9 5.6 1.7 0.4 15.9-8.1 13.5z"/>
						<path class="s25" d="m318.4 119.9c-3.9 0.3-5.9 3.9-5.9 4-0.1 0.2-0.1 0.4 0.1 0.5q0.1 0 0.2 0 0.1 0 0.2-0.2c0 0 0.8-1.3 2.2-2.4 1.4 0.8 0.9 3.1 0.8 3.1 0 0.2 0.1 0.4 0.3 0.4q0 0 0.1 0c0.1 0 0.2-0.1 0.3-0.2 0-0.1 0.6-2.6-0.9-3.7 0.7-0.4 1.5-0.7 2.5-0.8q0.1 0 0.1 0c0.2 0 0.4-0.2 0.3-0.3 0-0.2-0.1-0.4-0.3-0.4z"/>
					</g>
					<path class="s22" d="m309.3 141.1c-0.2 0.3-9.5 21-23.8 9.6l0.4-8.7 0.1 0.5c0 0 12 4.2 23.3-1.4z"/>
					<path class="s14" d="m313.2 118.8c1 15.3-8.6 28-16.8 28.8-8.1 0.5-19.4-11.1-20.4-26.3-1-15.2 6.5-28.1 16.8-28.8 10.2-0.7 19.4 11.1 20.4 26.3z"/>
					<g>
						<g>
							<g>
								<path class="s25" d="m282.9 127.6c0 0.3-0.8 0.5-1.8 0.4-0.9 0-1.6-0.4-1.6-0.7 0-0.3 0.8-0.5 1.7-0.4 1 0.1 1.7 0.4 1.7 0.7z"/>
								<path class="s25" d="m283.2 129.4c-0.1-0.3-0.9-0.4-1.8-0.2-0.9 0.2-1.6 0.6-1.6 0.9 0.1 0.4 0.9 0.4 1.8 0.2 1-0.2 1.7-0.6 1.6-0.9z"/>
							</g>
							<g>
								<path class="s25" d="m307 127.9c0.1-0.4 0.9-0.6 1.8-0.5 0.9 0.1 1.7 0.4 1.7 0.7 0 0.3-0.8 0.5-1.8 0.4-0.9 0-1.7-0.3-1.7-0.6z"/>
								<path class="s25" d="m306.8 126c0 0.3 0.8 0.4 1.8 0.2 0.9-0.2 1.6-0.6 1.5-0.9 0-0.3-0.8-0.4-1.8-0.2-0.9 0.2-1.6 0.6-1.5 0.9z"/>
							</g>
						</g>
						<path class="s1" d="m287.3 123.4c-0.2-2.5-0.8-4.5-1.5-4.4l-3.1 0.3c0 0 0.5 0.9 2.4 1-0.2 0.8-0.2 2-0.1 3.2 0.1 2.5 0.8 4.4 1.4 4.4 0.7 0 1-2.1 0.9-4.5z"/>
						<path class="s1" d="m302.4 122.1c-0.1-1.3-0.3-2.4-0.5-3.2 1.8-0.3 2.2-1.3 2.2-1.3l-3.1 0.1c-0.7 0-1 2.1-0.9 4.5 0.2 2.5 0.8 4.5 1.5 4.4 0.6 0 1-2 0.8-4.5z"/>
						<g>
							<g>
								<path class="s25" d="m294.9 131.9q-0.1 0-0.1 0c-0.5 0-1.7-0.3-2-3.2-0.5-4.8 0.1-7.5 0.1-7.6 0-0.2 0.2-0.3 0.4-0.3 0.2 0.1 0.3 0.3 0.2 0.4 0 0.1-0.6 2.7-0.1 7.4 0.2 2 0.9 2.7 1.4 2.7 0.7 0 1.8-1.3 2.1-3.5 0-0.2 0.2-0.3 0.4-0.3 0.1 0 0.3 0.2 0.2 0.4-0.3 2.3-1.4 3.9-2.6 4z"/>
							</g>
							<g>
								<path class="s25" d="m295.5 136.7c-4.1 0.3-6.8-2.7-6.9-2.9-0.1-0.1-0.1-0.2 0-0.3 0.1-0.1 0.3-0.1 0.4 0 0 0 2.6 2.9 6.5 2.7 3.8-0.3 5.5-3.4 5.5-3.5 0.1-0.1 0.2-0.2 0.4-0.1 0.1 0.1 0.2 0.2 0.1 0.4-0.1 0.1-1.8 3.4-6 3.7z"/>
							</g>
							<g>
								<g>
									<path class="s26" d="m303.4 114q-1.7-0.6-3.8 0.3c-0.5 0.2-1.1 0-1.3-0.5-0.2-0.5 0-1.1 0.5-1.3q2.9-1.3 5.3-0.3c2.5 1 3.6 4.7 3.1 4.9-0.1 0.1-2.1-2.4-3.8-3.1z"/>
								</g>
							</g>
							<g>
								<g>
									<path class="s26" d="m283.7 115.3q1.6-0.7 3.8 0.1c0.5 0.2 1 0 1.2-0.5 0.2-0.5 0-1.1-0.5-1.3q-2.9-1.1-5.3-0.1c-2.5 1.2-3.4 4.9-2.9 5 0.1 0.1 2-2.4 3.7-3.2z"/>
								</g>
							</g>
						</g>
					</g>
				</g>
				<g>
					<path class="s27" d=""/>
					<path class="s14" d="m295.5 406.5l-0.5-52c-2.1-2.3-3.5-5.1-4.1-8.2-1.7-8.6-3.6-17.5-3-26.3 0.3-5 2-9.6 4.7-13.3-1.1-5.5-2.2-11-3.3-16.5-1.6-8.1-2.4-16.3-4.5-24.3-0.7-2.8-0.9-5.5-0.6-8.2l-5.4 13.6-0.2 2.7-5.5 78.9 7.9 70.3 1.6 14.4c5.9 0.7 7.4-0.2 13.2 0l-0.2-14.4z"/>
					<path class="s28" d="m291.1 347.1l-1.6 4.2 6 55.2-0.5-52c-1.9-2.1-3.3-4.6-3.9-7.4z"/>
					<g>
						<path class="s3" d="m252.6 447h46.5l-2.9-14.9c0 0-5.2 5.6-9.1 3.8-4-1.4-6-5.5-6-5.5 0 0-7.7 3.4-15.2 6.5q0 0 0 0 0 0 0 0c-7 2.8-14.7 5.4-13.3 10.1z"/>
						<path class="s16" d="m252.6 447h17.1l0.8-0.6c0 0-1-5.6-4.6-9.5q0 0 0 0 0 0 0 0c-7 2.8-14.7 5.4-13.3 10.1z"/>
						<path fill-rule="evenodd" class="s3" d="m252.5 446.4h46.6v4.2h-46.6z"/>
					</g>
				</g>
				<g>
					<path class="s27" d=""/>
					<path class="s14" d="m330.4 412l-0.5-51.9c-2-2.4-3.5-5.2-4.1-8.2-1.7-8.6-3.6-17.5-3-26.3 0.3-5.1 2-9.7 4.8-13.4-1.2-5.5-2.3-11-3.4-16.5-1.6-8.1-2.3-16.3-4.5-24.3-0.7-2.8-0.9-5.5-0.6-8.1l-5.4 13.6-0.2 2.7-5.5 78.9 7.9 70.2 1.6 14.4c5.9 0.7 7.4-0.2 13.2 0.1l-0.2-14.5z"/>
					<path class="s3" d="m338.7 453.9c-0.6-4-3.3-11.3-7.9-16 0 0-2.8 4.6-8.1 4-1.6-0.1-5.6-3.6-5.6-3.6 0 0-6.8 13.3-7.3 16.5"/>
					<path class="s16" d="m309.8 454.8c0 0 1.6-7.5 13.9-8.4 12.4-0.9 15 7.5 15 7.5l-13.6 8.8z"/>
					<path class="s3" d="m309.7 455.2c0 2 0 5.6 0 5.6 0 0 19.9 7.9 29.4-2 0 0 0.1-2-0.4-4.9-13.2 8.3-28 1.3-28.9 0.9q-0.1 0.2-0.1 0.4z"/>
					<path class="s28" d="m326 347.1l-1.6 4.2 6 55.2-0.5-52c-1.9-2.1-3.3-4.6-3.9-7.4z"/>
				</g>
				<path fill-rule="evenodd" class="s17" d="m332.9 430.6l-21.2 1.1-16.2-120 2 117.1-23.2-1.1-9.6-176.9 62.7 10.8 1.3 39.1z"/>
				<path class="s6" d="m327.4 430.4c0-32.2-6.3-114.4-12.9-114.6-39.2-1.2-45.6-6.3-45.6-6.3l59.8-8.8h0.4l3.8 129.9z"/>
				<g>
					<path class="s8" d="m265 309c0.4 0.1 3.1 0.4 3.9 0.5 0.7 0.1 1.4 0.2 1.6 0.2q2.6 0.3 5.2 0.5c12.8 1.1 25.7 0.9 38.6-0.2 3.1-0.3 6.3-0.4 9.4-1q-0.2 0-0.3 0c0.6-0.1 1.1-0.2 1.4-0.2q2.6-0.4 5.1-0.9 0.8-0.1 1.5-0.2c-0.5-9.2-1-18.1-1-24.6-0.3-22.4-7.3-32.3-7.3-32.3 0 0-4.1-0.6-10.1-1.3q-1.4-0.2-2.9-0.4c-16.3-1.8-42.5-3.6-45.8 2.8q-0.1 0.2-0.2 0.3c-1.1 3.3-1.8 30.6-2.2 56.3q1.5 0.2 3.1 0.5z"/>
				</g>
				<g>
					<path fill-rule="evenodd" class="s17" d="m321 290.9h-26.5v-27.5h26.5z"/>
					<g>
						<g>
							<g>
								<path class="s29" d="m306.5 305.6c0.1 0 6.9-0.2 8.8-6.8 1.9-6.4 3.1-21.8 3.2-22.5h-1c0 0.1-1.3 16-3.1 22.2-1.7 5.9-7.8 6-7.9 6z"/>
							</g>
							<path class="s30" d="m302.6 305.1c0 0.6 1 1.1 2.3 1.1 1.2 0 2.2-0.5 2.2-1.1 0-0.7-1-1.2-2.2-1.2-1.3 0-2.3 0.5-2.3 1.2z"/>
						</g>
						<g>
							<g>
								<path class="s29" d="m312.9 305.6c-0.1 0-6.9-0.2-8.8-6.8-1.9-6.4-3.1-21.8-3.2-22.5h1c0 0.1 1.3 16 3.1 22.2 1.7 5.9 7.8 6 7.9 6z"/>
							</g>
							<path class="s30" d="m316.8 305.1c0 0.6-1 1.1-2.3 1.1-1.2 0-2.2-0.5-2.2-1.1 0-0.7 1-1.2 2.2-1.2 1.3 0 2.3 0.5 2.3 1.2z"/>
						</g>
						<path class="s1" d="m308.7 265.7v-3.7c0 0 0.1-0.8 1-0.8 0.9 0 1 0.8 1 0.8v3.7c4.6 0.8 8.2 6.6 8.2 13.7h-2c0-6.4-3.3-11.7-7.2-11.7-3.9 0-7.2 5.3-7.2 11.7h-2c0-7.1 3.6-12.9 8.2-13.7z"/>
					</g>
				</g>
				<path class="s8" d="m323.1 250.8c0.6 6.4 1 10.3 1 10.3 0 0-2.7-0.2-7-0.4-2.9-0.2-6.5-0.4-10.5-0.6-17.7-1.2-42.4-3.5-42.3-6.9q0-0.6 0-1.3c0.3-10.9-0.7-31-1.7-35.5-1.5-7.7-3.9-16-3.5-26.2 0-6.7 14.2-31.9 14.5-32.4q0 0 0 0c1.8-0.9 3.6-1.8 5.2-2.6 2.2-0.9 3.8-1.6 3.9-1.6-0.2 0.2-2.7 14.9-0.8 15.6 4.9 1.7 28.2-16.6 28.2-16.6 0 0 2.8 0.8 6.4 2.3 3.8 1.5 8.5 3.7 11.6 6.4h0.1c1.6 1.4 2.8 2.9 3.2 4.5 2.2 3.7-5 11.5-8.6 22.8-0.9 3-1.5 6.1-1.9 9.4q-0.5 3.5-0.6 7.4 0 0 0 0.1c-0.1 3.1-0.1 6.5 0 10 0.9 14.3 2 27 2.8 35.3z"/>
				<path class="s0" d="m312.6 245.4c-0.2 1.1 0 2.5 0.4 4.1 1.1 3.7 3.5 8.4 4.1 11.2q0 0.2 0 0.4c2.9 20.3 1 36.3-3.6 49q0.4-0.1 0.8-0.1c3.1-0.3 6.3-0.4 9.4-1q-0.1 0-0.3 0c0.6-0.1 1.1-0.2 1.4-0.2q2.6-0.4 5.1-0.9 0.8-0.1 1.5-0.2c-0.5-9.2-1-18.1-1-24.6-0.3-22.4-7.3-32.3-7.3-32.3-0.8-8.3-1.9-21-2.8-35.3-0.1-3.5-0.1-6.9 0-10q0-0.1 0-0.1 0.2-3.9 0.6-7.4l-12.9-20.2c0 0 12.3 39.7 4.6 67.6z"/>
			</g>
			<g>
				<g>
					<path class="s14" d="m332.6 166c0 0 12.7 25.4 21.9 63.3-4.2 1.6-8.5 1.9-12.9 2.3-1.7 0.2-3.2 0.7-4.3 1.5-3.8-10.5-8.2-20.7-13.3-28.9-18.4-29.8 8.6-38.2 8.6-38.2z"/>
				</g>
			</g>
			<g>
				<path fill-rule="evenodd" class="s31" d="m258.8 230.9l30.9-28.9 37 39.7-30.9 28.9z"/>
				<g>
					<g>
						<path fill-rule="evenodd" class="s3" d="m313.5 239.9l4 4.8-21.8 20.5-33.4-34.5 26.7-25 28.6 31.4z"/>
					</g>
					<g>
						<path class="s32" d="m290.8 212.1l-21.6 20.2c-0.1 0.2-0.3 0.2-0.5 0l-0.1-0.1c-0.1-0.2-0.1-0.4 0-0.5l21.6-20.3c0.1-0.1 0.3-0.1 0.5 0l0.1 0.2c0.2 0.1 0.1 0.3 0 0.5z"/>
					</g>
					<g>
						<g>
							<path class="s33" d="m292.6 214.2l-15 14.1c-0.1 0.1-0.3 0.1-0.3 0l-0.1-0.1c-0.1-0.1-0.1-0.3 0-0.4l15-14.1c0.1-0.1 0.2 0 0.3 0l0.1 0.2c0.1 0 0.1 0.2 0 0.3z"/>
						</g>
						<g>
							<path class="s33" d="m293.8 215.5l-15 14.1c-0.1 0.1-0.2 0.1-0.3 0l-0.1-0.1c-0.1-0.1-0.1-0.3 0-0.4l15-14c0.1-0.1 0.3-0.1 0.3 0h0.1c0.1 0.2 0.1 0.3 0 0.4z"/>
						</g>
						<g>
							<path class="s33" d="m295.1 216.8l-15 14.1c-0.1 0.1-0.3 0.1-0.4 0l-0.1-0.1c-0.1-0.1-0.1-0.2 0-0.3l15-14.1c0.1-0.1 0.3-0.1 0.4 0l0.1 0.1c0.1 0.1 0 0.2 0 0.3z"/>
						</g>
						<g>
							<path class="s33" d="m288.7 225.3l-7.4 6.9c-0.1 0.1-0.2 0.1-0.3 0l-0.1-0.1c-0.1-0.1-0.1-0.2 0-0.3l7.4-7c0.1-0.1 0.2-0.1 0.3 0l0.1 0.1c0.1 0.1 0.1 0.3 0 0.4z"/>
						</g>
						<g>
							<path class="s33" d="m279.2 234.7l-4.2 3.9c-0.1 0.1-0.3 0.1-0.5 0l-4.1-4.4c-0.1-0.2-0.1-0.4 0-0.5l4.2-3.9c0.1-0.2 0.4-0.2 0.5 0l0.6 0.6c0.2 0.2 0.2 0.4 0 0.5-0.1 0.2-0.4 0.2-0.5 0l-0.4-0.4-3.7 3.5 3.7 3.9 3.7-3.5-1.7-1.7c-0.1-0.2-0.1-0.4 0.1-0.5 0.1-0.2 0.3-0.2 0.5 0l1.8 2c0.2 0.1 0.2 0.3 0 0.5z"/>
						</g>
						<g>
							<path class="s34" d="m276.1 235.8q0 0 0 0-0.1 0.1-0.3 0.1l-2.4-0.4c-0.2 0-0.3-0.2-0.3-0.4 0.1-0.2 0.3-0.3 0.4-0.3l2.1 0.4 0.5-5c0-0.2 0.2-0.3 0.4-0.3 0.2 0 0.3 0.2 0.3 0.4l-0.5 5.3q-0.1 0.1-0.2 0.2z"/>
						</g>
					</g>
					<g>
						<g>
							<path class="s33" d="m298.9 220.9l-15 14.1c-0.1 0.1-0.2 0.1-0.3 0l-0.1-0.1c-0.1-0.1-0.1-0.3 0-0.3l15-14.1c0.1-0.1 0.2-0.1 0.3 0l0.1 0.1c0.1 0.1 0.1 0.2 0 0.3z"/>
						</g>
						<g>
							<path class="s33" d="m300.1 222.2l-15 14.1c-0.1 0.1-0.2 0.1-0.3 0l-0.1-0.1c-0.1-0.1-0.1-0.2 0-0.3l15-14.1c0.1-0.1 0.3-0.1 0.3 0l0.1 0.1c0.1 0.1 0.1 0.2 0 0.3z"/>
						</g>
						<g>
							<path class="s33" d="m301.4 223.5l-15 14.1c-0.1 0.1-0.3 0.1-0.3 0l-0.2-0.1c0-0.1 0-0.2 0.1-0.3l15-14.1c0.1-0.1 0.2-0.1 0.3 0l0.1 0.1c0.1 0.1 0.1 0.2 0 0.3z"/>
						</g>
						<g>
							<path class="s33" d="m295 232l-7.4 7c-0.1 0-0.2 0-0.3-0.1l-0.1-0.1c-0.1-0.1-0.1-0.2 0-0.3l7.4-6.9c0.1-0.1 0.2-0.1 0.3 0l0.1 0.1c0.1 0.1 0.1 0.2 0 0.3z"/>
						</g>
						<g>
							<path class="s33" d="m285.5 241.4l-4.2 3.9c-0.1 0.2-0.3 0.2-0.5 0l-4.1-4.4c-0.1-0.1-0.1-0.4 0-0.5l4.2-3.9c0.2-0.2 0.4-0.1 0.5 0l0.6 0.7c0.2 0.1 0.2 0.3 0 0.5-0.1 0.1-0.3 0.1-0.5-0.1l-0.4-0.4-3.6 3.5 3.6 3.9 3.7-3.5-1.6-1.7c-0.2-0.2-0.2-0.4 0-0.5 0.1-0.1 0.3-0.1 0.5 0l1.8 2c0.2 0.1 0.2 0.4 0 0.5z"/>
						</g>
						<g>
							<path class="s34" d="m282.5 242.5q0 0.1-0.1 0.1-0.1 0.1-0.2 0l-2.5-0.4c-0.1 0-0.3-0.2-0.2-0.4 0-0.2 0.2-0.3 0.4-0.3l2 0.4 0.5-5c0-0.2 0.2-0.3 0.4-0.3 0.2 0 0.3 0.2 0.3 0.4l-0.5 5.3q0 0.1-0.1 0.2z"/>
						</g>
					</g>
					<g>
						<g>
							<path class="s33" d="m305.2 227.6l-15 14.1c-0.1 0.1-0.2 0.1-0.3 0l-0.1-0.1c-0.1-0.1-0.1-0.2 0-0.3l15-14.1c0.1-0.1 0.2-0.1 0.3 0l0.1 0.1c0.1 0.1 0.1 0.2 0 0.3z"/>
						</g>
						<g>
							<path class="s33" d="m306.5 228.9l-15.1 14.1c0 0.1-0.2 0.1-0.3 0l-0.1-0.1c-0.1-0.1-0.1-0.2 0-0.3l15-14.1c0.1-0.1 0.3-0.1 0.4 0l0.1 0.1c0 0.1 0 0.3 0 0.3z"/>
						</g>
						<g>
							<path class="s33" d="m307.7 230.3l-15 14.1c-0.1 0-0.2 0-0.3-0.1l-0.1-0.1c-0.1-0.1-0.1-0.2 0-0.3l15-14.1c0.1-0.1 0.2-0.1 0.3 0l0.1 0.1c0.1 0.1 0.1 0.3 0 0.4z"/>
						</g>
						<g>
							<path class="s33" d="m301.3 238.7l-7.4 7c-0.1 0.1-0.2 0.1-0.3 0l-0.1-0.1c-0.1-0.1-0.1-0.3 0-0.4l7.4-6.9c0.1-0.1 0.3-0.1 0.3 0l0.1 0.1c0.1 0.1 0.1 0.2 0 0.3z"/>
						</g>
						<g>
							<path class="s33" d="m291.8 248.1l-4.1 3.9c-0.2 0.2-0.4 0.2-0.5 0l-4.2-4.4c-0.1-0.1-0.1-0.3 0-0.5l4.2-3.9c0.2-0.1 0.4-0.1 0.5 0l0.7 0.7c0.1 0.1 0.1 0.4-0.1 0.5-0.1 0.1-0.3 0.1-0.5 0l-0.3-0.4-3.7 3.4 3.6 3.9 3.7-3.5-1.6-1.7c-0.2-0.1-0.1-0.4 0-0.5 0.1-0.1 0.4-0.1 0.5 0l1.9 2c0.1 0.2 0.1 0.4-0.1 0.5z"/>
						</g>
						<g>
							<path class="s34" d="m288.8 249.3q0 0 0 0-0.2 0.1-0.3 0.1l-2.4-0.4c-0.2-0.1-0.4-0.3-0.3-0.4 0-0.2 0.2-0.4 0.4-0.3l2 0.3 0.5-4.9c0-0.2 0.2-0.4 0.4-0.4 0.2 0.1 0.3 0.2 0.3 0.4l-0.5 5.3q0 0.2-0.1 0.3z"/>
						</g>
					</g>
					<g>
						<g>
							<path class="s33" d="m311.5 234.4l-14.9 14c-0.2 0.1-0.3 0.1-0.4 0l-0.1-0.1c-0.1-0.1-0.1-0.2 0-0.3l15-14.1c0.1-0.1 0.3-0.1 0.4 0v0.1c0.1 0.1 0.1 0.3 0 0.4z"/>
						</g>
						<g>
							<path class="s33" d="m312.8 235.7l-15 14.1c-0.1 0-0.3 0-0.4-0.1l-0.1-0.1c0-0.1 0-0.2 0.1-0.3l15-14.1c0-0.1 0.2-0.1 0.3 0l0.1 0.1c0.1 0.1 0.1 0.3 0 0.4z"/>
						</g>
						<g>
							<path class="s33" d="m314 237l-15 14.1c-0.1 0.1-0.2 0.1-0.3 0l-0.1-0.1c-0.1-0.1-0.1-0.3 0-0.4l15-14.1c0.1 0 0.2 0 0.3 0l0.1 0.2c0.1 0.1 0.1 0.2 0 0.3z"/>
						</g>
						<g>
							<path class="s33" d="m307.7 245.4l-7.5 7c0 0.1-0.2 0.1-0.3 0l-0.1-0.1c-0.1-0.1-0.1-0.3 0-0.3l7.4-7c0.1-0.1 0.3-0.1 0.4 0l0.1 0.1c0 0.1 0 0.3 0 0.3z"/>
						</g>
						<g>
							<path class="s33" d="m298.2 254.8l-4.2 4c-0.2 0.1-0.4 0.1-0.5 0l-4.2-4.4c-0.1-0.2-0.1-0.4 0.1-0.5l4.1-4c0.2-0.1 0.4-0.1 0.5 0l0.7 0.7c0.1 0.2 0.1 0.4 0 0.5-0.2 0.1-0.4 0.1-0.5 0l-0.4-0.4-3.7 3.4 3.6 3.9 3.7-3.4-1.6-1.8c-0.1-0.1-0.1-0.3 0-0.5 0.2-0.1 0.4-0.1 0.5 0l1.9 2c0.1 0.2 0.1 0.4 0 0.5z"/>
						</g>
						<g>
							<path class="s34" d="m295.1 256q0 0 0 0-0.2 0.1-0.3 0.1l-2.4-0.4c-0.2 0-0.3-0.2-0.3-0.4 0-0.2 0.2-0.3 0.4-0.3l2 0.3 0.5-4.9c0.1-0.2 0.2-0.4 0.4-0.3 0.2 0 0.4 0.2 0.3 0.3l-0.5 5.4q0 0.1-0.1 0.2z"/>
						</g>
					</g>
					<g>
						<path fill-rule="evenodd" class="s12" d="m317.5 244.7l0.1-7.6-4.1 2.8z"/>
					</g>
				</g>
				<path class="s35" d="m280.1 210.6l2.7 2.9-12.1 11.2-2.7-2.9c-0.8-0.8-0.7-2.1 0.1-2.8l4-3.8c0.3 0.2 0.6 0.1 0.9-0.1 0.2-0.3 0.3-0.6 0.2-0.9l4-3.7c0.8-0.8 2.1-0.8 2.9 0.1z"/>
				<path class="s35" d="m271.1 213.1c-0.7 0.6-0.7 1.8-0.1 2.5l2 2.1c0.7 0.8 1.8 0.8 2.6 0.1 0.7-0.6 0.7-1.8 0-2.5l-1.9-2.1c-0.7-0.8-1.9-0.8-2.6-0.1zm1.9 2c-0.3 0.2-0.6 0.3-0.9 0.1q-0.2 0-0.3-0.2c-0.3-0.3-0.3-0.9 0-1.2 0.4-0.3 0.9-0.3 1.2 0.1q0.2 0.1 0.2 0.3c0.1 0.3 0 0.6-0.2 0.9z"/>
				<path fill-rule="evenodd" class="s36" d="m269.2 223.1l12.1-11.2 1.5 1.6-12.1 11.2z"/>
			</g>
			<path class="s14" d="m292.5 250.5c0 0-2.2-3.8-0.7-9.8 0 0 11-3.7 25-8.9 5.9-2.2 12.3-4.7 18.6-7.3q1.3-0.6 2.6-1.1c5.1-2.2 12.9-2.5 14.7 1.4 0.7 1.6 4 6 0.6 11.6-4.8 7.2-37.9 10.7-60.8 14.1z"/>
			<path class="s14" d="m267.1 245.4c1.3-1.5 15-6.6 15-6.6-2.9-1.6-6.2-4.2-4.3-5.6 1.7-1.2 14.3 5.9 15.9 6.9 0.1 0.5-0.4 0.9-0.3 1.5 0 2.7 0.2 8.1 0.2 8.1-5.9 4-8.3 5.8-13.8 5.2-2.8 0-8.4-6.3-8.4-6.3-2.9 0.9-5.5-1.7-4.3-3.2z"/>
			<path class="s8" d="m322.4 166l5.2-5.1 5.6 4.2c0 0 11.7 24.8 17.9 43.6l-23.2 10.8-11.4-21.3c0 0-6.8-18.8 5.9-32.2z"/>
			<path class="s17" d="m279.6 172.6c4.9 4 36.9-17.7 36.9-17.7-3.6-1.5-6.4-2.3-6.4-2.3 0 0-23.3 18.3-28.2 16.6-1.9-0.7 0.6-15.5 0.8-15.6-0.1 0-1.7 0.7-3.9 1.6-1.1 7.6-1.6 15.5 0.8 17.4z"/>
			<g>
				<path class="s37" d="m268 126.8c0 0-3.3 4.9-1.9 7.5 1.5 2.7 2.6 0.8 2.5 4.5 0 3.6 3.5 2.4 4.3 1.2 3.2-2.7 3.8 4.6 9.7 1 4.3-1.9-4.8-18.7-4.8-18.7l-7.7-1.3z"/>
				<path class="s37" d="m325.6 124.7c0 0 1.8 3.7 0.5 7.3-1.4 3.6-4.2 1.3-4.6 2-0.4 0.8-0.4 3.8-2.7 4.3-2.4 0.6-2.5-1.7-4-0.7-0.6 0.5-1.5 3.6-4.4 3.3-4.6-0.2-5.4-5.3-3.3-10.5 2.1-5.2 10.1-14 10.4-14.2 0.2-0.1 7.6 2.1 7.6 2.1z"/>
				<g>
					<path fill-rule="evenodd" class="s14" d="m295.4 151c-10.1 0-18.3-12.1-18.3-27.1 0-15 8.2-27.2 18.3-27.2 10.1 0 18.3 12.2 18.3 27.2 0 15-8.2 27.1-18.3 27.1z"/>
					<g>
						<g>
							<path class="s37" d="m305.2 120.1q-1.5-0.8-3.7 0c-0.5 0.2-1-0.1-1.2-0.6-0.2-0.5 0.1-1 0.6-1.2q2.9-1 5.2 0c2.4 1.2 3.2 4.9 2.7 5-0.1 0.1-1.9-2.5-3.6-3.2z"/>
						</g>
						<g>
							<path class="s37" d="m280.9 123.6c-0.1 0-0.1-3.9 2.3-5.1q2.3-1.1 5.2-0.1c0.5 0.2 0.8 0.7 0.6 1.2-0.2 0.5-0.7 0.8-1.2 0.6q-2.2-0.7-3.7 0c-1.7 0.9-2.8 3.4-3.2 3.4z"/>
						</g>
					</g>
					<g>
						<g>
							<g>
								<path class="s19" d="m283.6 130.5c-0.1 0.3-0.8 0.5-1.8 0.3-0.9-0.1-1.6-0.5-1.6-0.8 0.1-0.3 0.9-0.4 1.8-0.3 0.9 0.2 1.6 0.5 1.6 0.8z"/>
								<path class="s19" d="m283.7 132.3c0-0.3-0.8-0.4-1.7-0.3-0.9 0.2-1.7 0.5-1.6 0.8 0 0.3 0.8 0.5 1.7 0.3 1-0.1 1.7-0.5 1.6-0.8z"/>
							</g>
							<g>
								<path class="s19" d="m307.2 132.3c0.1-0.3 0.9-0.4 1.8-0.3 0.9 0.2 1.6 0.5 1.6 0.8 0 0.3-0.8 0.5-1.8 0.3-0.9-0.1-1.6-0.5-1.6-0.8z"/>
								<path class="s19" d="m307.1 130.5c0 0.3 0.8 0.5 1.7 0.3 1-0.1 1.7-0.5 1.6-0.8 0-0.3-0.8-0.4-1.7-0.3-0.9 0.2-1.7 0.5-1.6 0.8z"/>
							</g>
						</g>
						<g>
							<g>
								<path class="s19" d="m295.6 134.8q-0.1 0-0.1 0c-0.5-0.1-1.6-0.5-1.8-3.4-0.2-4.7 0.6-7.3 0.6-7.4 0.1-0.2 0.3-0.3 0.4-0.2 0.2 0.1 0.3 0.2 0.3 0.4-0.1 0-0.8 2.6-0.6 7.2 0.1 2 0.6 2.7 1.1 2.7 0.8 0.1 1.9-1.1 2.3-3.3 0.1-0.1 0.2-0.3 0.4-0.2 0.2 0 0.3 0.2 0.3 0.4-0.5 2.2-1.7 3.8-2.9 3.8z"/>
							</g>
						</g>
					</g>
				</g>
				<g>
					<path class="s1" d="m325.9 113.2c0.2-1.7 2.2-4.4 0.8-7.2-1.4-2.8-4-2-4.3-4.3-0.3-2.3-1.1-5.9-4.9-5.6-3.7 0.4-1.7-1.8-4-5.3-2.2-3.4-5.6-0.3-6.7-0.8-1.2-0.5-1.3-6.5-7-7.8-5.6-1.2-7.3 5.3-7.8 5.4-0.6 0.1-1.7-1.8-3.7-1.3-2 0.5-1.1 2.8-2.5 2.7-1.4-0.1-4.9-0.8-7 0-2 0.9-2.7 5-2.7 5 0 0-3.3-1.4-5.2 0-2 1.3-1.4 3.9-2 5.9-0.6 2-3.2 1.4-6.2 4.6-3 3.3-0.5 9.7-1.8 10.5-1.3 0.7-2.9 2.9-2.5 5.9 0.4 3.1 5.3 3.3 5.3 6.1-0.1 2.8-2.2 4.6 1.4 5.6 3.5 1.1 5.8-6.5 5.8-6.5 1.5 1.1 4.9 0.8 7.7-1.5 2.9-2.3 0.8-7.1 0.5-8.8-0.3-1.7 1-1.4 3.8-2.3 2.8-0.8 3.6-5.2 3.6-5.2 3.3 1.5 4.1-2.3 6-0.9-2.1 2-1.3 5-1.1 7.1q0 0.2 0 0.4 0 0.1 0 0.3c-0.4 1.7-2.7 2.5-3.4 1.9-0.8-0.7-0.1-1.9-0.1-1.9-1.3 0.4-1.6 3.3 1 3.2q0.3 0 0.5 0c2.8 0.4 3.4-3.5 4-6.3 0.3-1.6 1.8-2.7 3.2-3.4 0.7-0.1 1.4-0.5 2.1-0.8 1.7-0.9 3-2.1 3-2.1 0 0-1.7 5.1 2.3 8.1 4.1 3 3 6.3 2.2 6.9-0.7 0.7-2 0.4-2 0.4 0 0 2 1.2 3.8-0.4 1.7-1.6 0.9-4.9 0-5.6-0.6-0.5-0.9-1.8-1-2.9 2.5 0.9 5.3-1.3 4.5 2.4-0.7 3.6 0.6 6.5 3.7 7.8 3.1 1.3 5.2-3.6 6.3-2.7 1.1 0.8 0.8 2.7 2.6 4.3 1.8 1.5 4.9 0.3 5-2.2 0.1-2.5-3.4-7-3.2-8.7z"/>
					<path class="s37" d="m303.9 103.9c1 0.4 2.1 0.6 3.1 0.6q0.8 0 1.5-0.2 0.4-0.1 0.8-0.2 0.4-0.2 0.8-0.2 0.9-0.2 1.7-0.2 0.9 0.1 1.7 0.3c0.5 0.2 1 0.5 1.4 1 0.4 0.5 0.6 1.1 0.6 1.7v0.5q-0.1 0.2-0.1 0.4c-0.1 0.3-0.1 0.6-0.2 0.8q-0.1 0.8-0.2 1.7-0.1 1.6 0 3.3c0.1 1 0.2 2.1 0.6 3.1 0.2 0.5 0.5 0.9 0.8 1.3 0.4 0.3 0.9 0.5 1.5 0.5v0.1c-0.6 0.1-1.2 0.1-1.7-0.2-0.6-0.3-1-0.8-1.3-1.3-0.5-1.1-0.8-2.3-0.9-3.5-0.1-1.1 0-2.3 0.1-3.4q0.2-0.9 0.4-1.8c0.1-0.2 0.2-0.5 0.3-0.8q0-0.2 0.1-0.3l0.1-0.4c0-0.5 0-1.1-0.3-1.5-0.3-0.4-0.8-0.7-1.3-0.9-1-0.2-2.1 0-3.1 0.3-0.3 0.1-0.5 0.2-0.7 0.3-0.3 0.1-0.6 0.2-0.9 0.2q-0.8 0.2-1.7 0.2c-1.2-0.1-2.3-0.6-3.1-1.3z"/>
					<path class="s37" d="m306.3 98.6c1.1 0.9 2.6 1 3.9 0.7 0.6-0.1 1.3-0.4 2-0.5 0.7-0.2 1.4-0.4 2.1-0.4 0.7 0 1.5 0.1 2.2 0.5 0.3 0.2 0.6 0.5 0.8 0.8q0.1 0.2 0.1 0.3l0.1 0.3c0.1 0.2 0.1 0.4 0.1 0.5 0.1 0.8 0.2 1.5 0.3 2.2 0.1 0.7 0.3 1.4 0.6 2q0.2 0.5 0.6 0.8 0.3 0.3 0.8 0.4c0.1 0.1 0.3 0.1 0.5 0.2 0.1 0.1 0.3 0.1 0.5 0.2 0.4 0.2 0.7 0.5 1 0.8 0.5 0.7 0.6 1.6 0.7 2.4 0 0.8-0.2 1.5-0.4 2.3q-0.2 0.5-0.5 1c-0.2 0.3-0.2 0.4-0.1 0.7 0.1 0.2 0.2 0.5 0.4 0.8q0.4 0.4 0.7 0.7c0.5 0.6 1 1.1 1.4 1.7 0.4 0.6 0.8 1.4 0.8 2.1h-0.1c-0.2-0.7-0.6-1.3-1-1.8-0.5-0.5-1-0.9-1.6-1.4-0.5-0.5-1.1-0.9-1.5-1.8q-0.1-0.3-0.1-0.7c0-0.3 0.2-0.6 0.2-0.8q0.3-0.4 0.4-0.9 0.4-0.9 0.4-1.9c0-0.7-0.1-1.4-0.4-1.8-0.2-0.3-0.4-0.5-0.7-0.6-0.1-0.1-0.2-0.2-0.4-0.2-0.2-0.1-0.3-0.2-0.5-0.3q-0.5-0.2-0.9-0.6-0.5-0.5-0.7-1c-0.3-0.8-0.3-1.5-0.4-2.2-0.1-0.8-0.1-1.5-0.3-2.2-0.1-0.7-0.4-1.3-1-1.6-0.6-0.2-1.3-0.2-1.9-0.1-0.7 0.1-1.4 0.2-2 0.4-0.7 0.1-1.4 0.3-2.1 0.4-0.8 0.1-1.5 0.1-2.2-0.1-0.7-0.2-1.4-0.6-1.9-1.2z"/>
					<path class="s37" d="m301.9 100.1q-1.2-0.7-2.5-1.1-0.7-0.2-1.3-0.3c-0.4 0-0.9 0-1.3 0.1-0.4 0.1-0.8 0.3-1.1 0.5q-0.6 0.3-1.2 0.8c-0.7 0.5-1.5 1.1-2.3 1.5-0.9 0.5-1.8 0.9-2.7 1-1 0.1-2-0.2-2.8-0.6-0.9-0.3-1.8-0.5-2.7-0.5-0.9 0-1.8 0.2-2.5 0.7-0.8 0.4-1.3 1.2-1.5 2-0.1 0.2-0.1 0.4-0.1 0.6 0 0.3 0 0.5-0.1 0.8 0 0.5-0.1 1-0.3 1.5-0.3 1-1 1.8-1.8 2.4-0.8 0.7-1.6 1.1-2.3 1.7l-0.6 0.3q-0.3 0.2-0.4 0.4-0.4 0.4-0.5 1c0 0.9 0.2 1.8 0.4 2.7 0.3 0.9 0.5 1.8 0.7 2.8q0.1 0.7 0.1 1.5c-0.1 0.5-0.3 1-0.6 1.3h-0.1c0.3-0.4 0.4-0.9 0.4-1.3 0-0.5-0.1-0.9-0.3-1.4-0.2-0.9-0.6-1.8-0.9-2.7-0.3-0.9-0.6-1.8-0.6-2.9 0.1-0.6 0.3-1.2 0.6-1.6 0.2-0.3 0.4-0.5 0.7-0.6l0.5-0.4c1.6-1.1 3.3-1.9 3.9-3.6 0.2-0.4 0.2-0.8 0.3-1.2l0.1-0.7c0.1-0.3 0.1-0.6 0.2-0.8 0.3-1 1-1.9 1.9-2.3 0.9-0.4 1.9-0.6 2.8-0.5q1.4 0 2.8 0.5 0.3 0.1 0.6 0.2 0.4 0.2 0.7 0.2c0.2 0.1 0.4 0 0.6 0 0.3 0 0.5 0 0.7 0 0.8-0.2 1.6-0.7 2.4-1.2 0.7-0.5 1.5-1 2.3-1.6q0.5-0.4 1.2-0.7c0.4-0.3 0.9-0.5 1.4-0.5 1-0.2 2 0.1 2.9 0.4q0.6 0.3 1.2 0.7 0.6 0.4 1.2 0.8z"/>
					<path class="s37" d="m303.2 95.7q-1.4-1.5-3-2.7c-1-0.7-2.2-1.4-3.4-1.6q-0.5 0-0.9 0.1c-0.3 0-0.6 0.1-0.8 0.2q-0.9 0.4-1.6 1.1c-0.4 0.4-0.8 0.9-1.2 1.5-0.4 0.6-1.2 1.1-1.9 1.2-0.7 0.1-1.4 0.1-2.1 0q-1-0.1-1.9-0.4c-1.3-0.3-2.6-0.6-3.9-0.7-0.6 0-1.3 0.1-1.9 0.5-0.5 0.3-1 0.7-1.3 1.3-0.8 1.1-1.2 2.4-1.8 3.7-0.3 0.6-0.7 1.2-1.4 1.6-0.1 0.1-0.3 0.2-0.5 0.3-0.1 0-0.3 0.1-0.5 0.1l-1 0.1c-1.2 0.2-2.3 0.9-3.2 1.9-0.8 0.8-1.5 2.1-1.5 3.2 0.1 0.2 0.1 0.3 0.1 0.4q0 0.2 0.1 0.5 0.1 0.2 0.2 0.5c0 0.3 0 0.5 0 0.7 0 0.4-0.2 0.9-0.5 1.2q-0.3 0.5-0.7 0.8c-0.6 0.5-1.1 0.8-1.5 1.3q-0.6 0.7-0.8 1.6c-0.2 0.6-0.2 1.2-0.1 1.9q0 1 0.2 2c0.2 1.3 0.5 2.6 0.6 4 0.1 0.7 0.1 1.4 0 2.1-0.1 0.7-0.4 1.4-1 1.9v-0.1c0.4-0.5 0.7-1.1 0.7-1.8 0.1-0.7 0-1.3-0.1-2-0.2-1.3-0.6-2.6-0.9-4q-0.2-1-0.4-2.1c0-0.7-0.1-1.4 0.1-2.2 0.2-0.7 0.5-1.4 1-2 0.5-0.5 1.1-0.9 1.5-1.4q0.4-0.3 0.7-0.6 0.2-0.3 0.2-0.7c0-0.1 0-0.3 0-0.4l-0.1-0.4q-0.1-0.3-0.2-0.6 0-0.3 0-0.6c0-0.8 0.2-1.5 0.5-2.2q0.6-0.9 1.3-1.7c1-1 2.3-1.7 3.7-2h1c0.2 0 0.3-0.1 0.4-0.1 0.2 0 0.3-0.1 0.4-0.1 0.6-0.3 1-0.8 1.3-1.4 0.3-0.6 0.6-1.2 0.9-1.8q0.4-0.9 1-1.8c0.4-0.5 0.9-1.1 1.5-1.4 0.6-0.3 1.3-0.5 2-0.5 0.7 0 1.3 0.1 2 0.2l2 0.3q0.9 0.2 1.9 0.2 1 0.1 1.9-0.1c0.5-0.1 1-0.4 1.4-1 0.4-0.4 0.7-1.1 1.3-1.6 0.5-0.5 1.1-0.9 1.8-1.1 0.3-0.2 0.6-0.3 1-0.3q0.6-0.1 1.1 0c0.7 0.1 1.4 0.4 2 0.7q0.9 0.5 1.6 1.2 0.8 0.7 1.5 1.4 0.7 0.8 1.3 1.6z"/>
				</g>
				<path class="s1" d="m305.9 125.8q-0.3-0.7-0.8-1.2-0.4-0.5-1-0.7-0.6-0.1-1.2 0c-0.8 0.1-1.5 0.5-2 1.1-0.5 0.6-0.9 1.2-1.1 2 0.6-0.4 1.1-0.9 1.7-1.2 0.5-0.3 1-0.6 1.6-0.7 1-0.2 2 0.5 3 1.6l1.8-1.7z"/>
				<path class="s1" d="m284.1 125.5q0.2-0.7 0.8-1.2 0.4-0.4 1-0.6 0.6-0.2 1.2-0.1c0.8 0.2 1.5 0.7 1.9 1.2 0.5 0.6 0.9 1.3 1.1 2.1-0.6-0.5-1.1-0.9-1.6-1.3-0.5-0.3-1.1-0.6-1.6-0.7-1-0.2-2.1 0.4-3.1 1.5l-1.7-1.7z"/>
				<g>
					<path class="s19" d="m296 141.2c-4.2 0.2-6.9-3.4-7.1-3.5-0.1-0.2-0.1-0.4 0.1-0.5 0.1-0.1 0.3-0.1 0.4 0 0 0.1 2.6 3.6 6.6 3.4 3.9-0.2 5.6-3.9 5.6-4 0.1-0.1 0.2-0.2 0.4-0.1 0.1 0.1 0.2 0.3 0.1 0.4-0.1 0.2-1.9 4.1-6.1 4.3z"/>
				</g>
			</g>
		</g>
		<g>
			<path class="s38" d="m216.1 95.9c-8.8-11.2-18.4-2.2-18.4-2.2l6.9 7.4c0 0 2.3 8.2 9.6 13.4 0 0 0.1 0.4 0.2 1.2l-35.2-3.3c0 0 4.3 6.8-8 20.3-12.7 13.8-10.6 31-10.6 31l57.6 2.9 0.5-41.2q0 0 0.1-0.1c3-5.2 6.1-18.2-2.7-29.4z"/>
			<g>
				<path class="s4" d="m228.5 183.5c0 0 12.6 44.4 11.7 97.2 0 0-5.1 2.1-10.6-0.4 0 0-4.7-48.5-16.5-75.4-2.7-5.8-2-13.3-0.4-17.6 13.6-20.7 15.8-3.8 15.8-3.8z"/>
				<g>
					<path class="s4" d="m236.5 289.9c0 0-3 5.6-3.6 6.2-0.5 0.5-4.3 2-4.7 2.9-0.3 1 0.9 2.1 3.7 1.1 2.9-1 3.6-1.3 4.2-1.8 0.5-0.6 3.8-6.5 3.8-6.5z"/>
					<path class="s4" d="m237.5 291.3c0 0-2.6 7-3.2 7.7-0.5 0.7-4.7 2.9-5 4-0.2 1.2 1.4 2.3 4.5 0.8 3.1-1.5 4-2 4.5-2.7 0.6-0.7 3.5-8 3.5-8z"/>
					<path class="s4" d="m240.2 280.4c0 0 2.8 8.3 3.2 10.8 0.3 2.5-4.6 11.9-5.3 14.8-1.1 2.9-3.7 2.3-3.1-1.7 0.6-4.3 2.6-11.4 2.7-12 0.1-0.6-3.4-4.1-3.9-4.3-0.5-0.2-2.7 2.9-2.9 3.5-0.2 0.6 1.3 4.6-1.4 6.6-2.8 1.9-3.9-6.8-3.5-8.4 0.3-1.7 1-7.4 4.5-10.5h8.2z"/>
				</g>
				<path class="s3" d="m243.2 279.2c0 0-8.1 3.6-13.6 1.1 0 0-4.7-48.5-16.5-75.4-2.7-5.8-2-13.3-0.4-17.6 4-6 10.7-14.2 10.7-14.2 0 0 18.9 20.2 19.8 106.1z"/>
				<path class="s0" d="m241.1 280c0 0-6 2.8-11.5 0.3 0 0-4.7-48.5-16.5-75.4-2.7-5.8-2-13.3-0.4-17.6 4-6 10.7-14.2 10.7-14.2 0 0 9.2 7.2 10 32 0.7 22.2 6.5 69.6 7.7 74.9z"/>
			</g>
			<path class="s4" d="m190.6 152.2c-22.5 6.4-33.4 14.7-33.4 14.7l20.8 40.6c0 0 3.4 16.2-0.9 24-15.1 13.1-11.9 27.5-11.9 27.5 10.5 7.1 41.9 3.1 41.9 3.1 0 0 10.8-3.1 18.5-13.2 0 0-3.4-20.3-0.9-31.6 5-15.9 6.5-27.2 2.6-38.7-4.4-7.8-16-26.1-36.7-26.4z"/>
			<g>
				<path class="s4" d="m203.1 243.1l0.5 7.4 0.1 2.7 0.2 2.7 5.8 91.6 5.3 69.4 0.4 5.3c0 0-0.5 9.7-1 11.2-2.5 4.4 0.9 12.2 1.2 15.8 0.3 3.8 22.6 8 23.2 1.4-1.4-4.8-10.2-17.8-10.6-20.1-0.4-2.2-0.6-9.6-0.6-9.6l2-58.4 0.5-15.2 4.4-90.5v-0.3l-5.2-15.1-9.8 0.5-4.3 0.2z"/>
				<path class="s1" d="m235.1 441.9c0 0-0.5 4.9-7.6 4.7-7.1-0.1-11.3-5.7-11.3-5.7 0 0-1.2-6-1.4-6.4-0.3-0.5-0.4-6.8-0.4-6.8 0 0-2.5 7.8-1.5 11.4 0 0 1.9 9.2 3.3 11.7 1.4 2.5 8.8 4.6 15.7 4.6 6.9 0 11-4.6 3.2-13.5z"/>
				<path class="s4" d="m164.1 415l-0.6 5.3c0 0-2.2 9.5-3 10.9-3.3 3.8-1.4 12.1-1.7 15.7-0.5 3.8 20.7 12 22.5 5.7-0.5-5-6.7-19.4-6.7-21.7 0-2.3 1.6-9.4 1.3-9.6l16-71.8 13.2-72.5 5.6-31.8-28.8-15c0 0-8.1 7.3-9 16.9-2 27-1.1 98.7-1.1 98.7z"/>
				<path class="s39" d="m171.6 327.4l23.4 4c0 0-3.4 19.6-5.3 27.9-2.9 13.7-12.2 54.7-12.2 54.7l11.9-78.7z"/>
				<path class="s39" d="m230.9 330.3l-2.4 67.2-0.9 24.6-1.5-87-17.2-2.7c10.4 0 21.8-1.8 22-2.1z"/>
				<path class="s1" d="m179.2 444.7c0 0-1.5 4.7-8.4 3-6.9-1.7-9.8-8.1-9.8-8.1 0 0 0.1-6-0.1-6.5-0.2-0.5 1.1-6.7 1.1-6.7 0 0-4.1 7.1-3.9 10.8 0 0-0.2 9.4 0.7 12.1 0.9 2.7 7.7 6.4 14.4 7.9 6.7 1.5 11.7-2.1 6-12.5z"/>
			</g>
			<path class="s1" d="m177.4 237.3c0 0-10.1 16.7-12 37.9-1.8 21.2-4.8 71.2-4.8 71.2 0 0 47.2 9.2 79.3 1.5l-5.1-88.3z"/>
			<path fill-rule="evenodd" class="s4" d="m184.8 136.4l-5.6 21.9 24.5 0.7v-14.6l-6.9-9.4z"/>
			<path class="s7" d="m186 140.5c0.1 0.4 1 8.2 9.3 10.6 3.1 0.9 6.3 1.3 8.4 1.1v-7.8c0 0-9 1.5-17.7-3.9z"/>
			<path class="s27" d=""/>
			<path class="s40" d="m162.2 253.4c0 0 7.6 4.6 19.8 8.3q0 0 0 0c3.6 1.1 7.7 2.1 12.1 2.9q1.2 0.2 2.5 0.4c14.1 2.5 24.7-0.3 28.4-1.5 1-0.4 1.5-0.6 1.5-0.6 1.3-5 1.2-12.8 0.7-20.8-0.5-10.2-1.5-20.6-0.6-25.3 1.6-8.3 8.5-17.2 6.3-28.9-1.5-8.5-11.6-23.6-11.6-23.6-5.5-4.3-13.9-7.4-13.9-7.4 0 0 0.2 7.7 1.2 12.5 1 4.8-9.3 6.4-15.1 1.7-7.3-6.1-14.3-15.5-14.3-15.5 0 0-19.8 7.4-22.4 10.3-4 3 10.2 21.2 10.2 21.2 0 0 1.5 2.7 5.4 10.1 4.7 8.9 9.1 26.3 3.4 33.2-5.7 6.9-13.6 23-13.6 23z"/>
			<path class="s3" d="m224.5 335.3l20.5-5.9c0 0-17.2-118.9-15.3-119.9 1.8-1.1 6-15.7 5.1-20.8-1-5.2-12.2-23.7-14.4-25.7-2.2-2-16.5-8.6-16.5-8.6v0.1c0.3 0.8 11 28.3 13.2 42.3 0.5 3.5 0.6 9.8 0.4 17.3-0.6 23.2 7 121.2 7 121.2z"/>
			<path class="s5" d="m217.1 196.8c0.5 3.5 0.6 9.8 0.4 17.3l0.4 1.2 3.8-42-8.4-3.5 3.5-4.2-12.9-11.1c0.3 0.8 11 28.3 13.2 42.3z"/>
			<path class="s3" d="m201.6 335.3l-47.2-5c0 0 8.1-88.9 6.6-97.5-0.4-2.3-1.6-7-3-12.8-3.9-16.2-9.4-41.4-4.8-49.2 2.9-10.7 27.5-18.1 27.5-18.1 0 0 18.3 30 20.9 44.1 0.8 4.2 2.2 12.3 3.7 21.7 3.7 22.8-3.7 116.8-3.7 116.8z"/>
			<path class="s0" d="m154.4 330.3c0 0 8.1-88.9 6.6-97.5-0.4-2.3-1.6-7-3-12.8l11.4-10.1c0 0 2.6 33.8 0.6 66.4-3.1 49.6 8.1 49.8 23.4 58.2z"/>
			<path class="s5" d="m186.3 168.5l-7.1 7.5 26.1 42.5c-1.6-9.4-2.9-17.5-3.7-21.7-2.6-14.1-20.9-44.1-20.9-44.1l-5.3 10.9z"/>
			<g>
				<path fill-rule="evenodd" class="s41" d="m142.6 259.3l-1.9 42.3 52.4 3.3 1.9-2.1 1.8-41.1z"/>
				<path fill-rule="evenodd" class="s42" d="m141.6 259.3l-1.8 42.3 53.4 1.8 0.9-0.9 1.8-40.8z"/>
				<path fill-rule="evenodd" class="s43" d="m138.9 302.5l1.8-42.2 54.3 2.3-1.9 42.3z"/>
				<path class="s3" d="m190.2 280.7c0 3.3-2.7 6.1-6.1 6.1-3.3 0-6.1-2.8-6.1-6.1 0-3.4 2.8-6.1 6.1-6.1 3.4 0 6.1 2.7 6.1 6.1z"/>
				<path class="s4" d="m173 306.2c0.3-1.8-4.6-15.6-4.6-15.6 3 1.1 7.2 1.9 7-0.4-0.2-2.1-10.7-7.3-12.4-7.9-0.5 0.3-10.7 1.6-10.7 1.6-0.7 8.4 0.7 15.3 4.7 19 1.8 2.2 10.8 2.2 10.8 2.2 1.2 2.7 4.9 3 5.2 1.1z"/>
				<path class="s4" d="m152.1 177.1c0 0-7.9 49.9 0 107.2 0 0 5.8 1.6 11.5-1.9 0 0-1.4-53.3 8-84.1 2.2-6.5 0.4-14.7-1.9-19.1-17.5-20.7-17.6-2.1-17.6-2.1z"/>
				<path class="s3" d="m172.4 197.2c-9.4 30.7-6 84.1-6 84.1-1.5 1-3.5 1.6-5.6 2.1-5.7 1.3-12.2 1.3-12.2 1.3-7.9-57.3 3.3-112.7 3.3-112.7 0 0 4.6-14.5 18.1 2 1.2 2.4 2.4 6.9 2.9 11.6 0.5 4.2 0.5 8.5-0.5 11.6z"/>
				<path class="s0" d="m172.4 197.2c-9.4 30.7-6 84.1-6 84.1-1.5 1-3.5 1.6-5.6 2.1-0.3-54.2 2-60.4 6.1-81.3 1.4-7 4.3-7.2 4.7-19.6q0.8 1.6 1.3 3.1c1.1 3.3 1.1 6.6-0.5 11.6z"/>
				<path fill-rule="evenodd" class="s44" d="m187.4 279.7h-2.2l0.1-2.2-2.1-0.1-0.1 2.2-2.2-0.1-0.1 2.1 2.2 0.1-0.1 2.2 2.2 0.1v-2.2l2.2 0.1z"/>
			</g>
			<g>
				<path class="s4" d="m176.1 122.8c2.3 15.8 12.7 27.4 23.4 25.9 10.7-1.6 17.5-15.6 15.2-31.4-2.3-15.8-12.8-27.4-23.4-25.9-10.7 1.6-17.5 15.6-15.2 31.4z"/>
				<g>
					<g>
						<g>
							<path class="s25" d="m210.7 127.9c0.1 0.3 0.9 0.4 1.9 0.3 1-0.2 1.7-0.6 1.7-0.9-0.1-0.3-0.9-0.4-1.9-0.3-1 0.2-1.7 0.5-1.7 0.9z"/>
							<path class="s25" d="m210.6 129.8c0-0.3 0.8-0.5 1.8-0.3 1 0.1 1.8 0.5 1.7 0.8 0 0.3-0.8 0.5-1.8 0.3-1-0.1-1.8-0.5-1.7-0.8z"/>
						</g>
						<g>
							<path class="s25" d="m185.5 130c0-0.3-0.8-0.5-1.8-0.3-1 0.1-1.8 0.5-1.7 0.8 0 0.4 0.9 0.5 1.9 0.3 0.9-0.1 1.7-0.5 1.6-0.8z"/>
							<path class="s25" d="m185.7 128c0 0.4-0.9 0.5-1.9 0.4-1-0.1-1.7-0.5-1.7-0.8 0.1-0.4 0.9-0.5 1.9-0.4 1 0.1 1.7 0.5 1.7 0.8z"/>
						</g>
					</g>
					<g>
						<g>
							<path class="s25" d="m200.4 133.2q0 0 0.1 0c0.5-0.1 1.7-0.6 1.5-3.7-0.2-5-1.2-7.7-1.3-7.8 0-0.2-0.2-0.3-0.4-0.2-0.2 0-0.3 0.2-0.2 0.4 0 0 1 2.7 1.3 7.6 0 2.1-0.5 2.9-1 3-0.8 0.1-2.1-1.1-2.8-3.3 0-0.2-0.2-0.3-0.4-0.2-0.2 0-0.3 0.2-0.2 0.4 0.7 2.3 2.1 3.9 3.4 3.8z"/>
						</g>
						<g>
							<path class="s25" d="m198.6 138.1c4.3-0.3 6.6-3.8 6.7-4 0-0.1 0-0.3-0.1-0.3-0.2-0.1-0.3-0.1-0.4 0 0 0.1-2.3 3.4-6.2 3.8-4 0.3-6.2-2.7-6.2-2.7-0.1-0.1-0.3-0.1-0.4-0.1-0.1 0.1-0.2 0.3-0.1 0.4 0.1 0.2 2.4 3.3 6.7 2.9z"/>
						</g>
						<g>
							<g>
								<path class="s38" d="m188.2 114.6q1.9-0.7 4.4 0.2c0.6 0.2 1.3 0 1.5-0.5 0.2-0.5-0.1-1.1-0.6-1.4q-3.4-1.2-6.2-0.2c-2.8 1.2-4 5-3.4 5.2 0.1 0.1 2.4-2.5 4.3-3.3z"/>
							</g>
						</g>
						<g>
							<g>
								<path class="s38" d="m209.2 114.8q-1.8-0.5-3.9 0.7c-0.5 0.3-1.1 0.1-1.4-0.3-0.3-0.5-0.1-1.2 0.4-1.4q2.8-1.7 5.5-1c2.7 0.8 4.2 4.5 3.7 4.8-0.1 0-2.4-2.3-4.3-2.8z"/>
							</g>
						</g>
					</g>
					<path class="s1" d="m204.8 123c-0.1-2.2 0.5-3.8 1.2-3.9l3.6 0.1c0 0-0.6 0.7-2.6 0.9 0.3 0.6 0.3 1.4 0.4 2.5 0.1 2.2-0.3 4-1 4.1-0.8 0.1-1.4-1.6-1.6-3.7z"/>
					<path class="s1" d="m189.7 122.9c0-1.1 0.1-2.1 0.4-2.8-2.2 0-2.8-0.8-2.8-0.8l3.8-0.3c0.7-0.1 1.4 1.6 1.3 3.7 0 2.1-0.6 3.9-1.4 3.9-0.7 0-1.4-1.6-1.3-3.7z"/>
				</g>
				<g>
					<g>
						<path class="s1" d="m207.9 129.7c-5.2 0-6.7-7.3-6.8-11.1l-0.1-0.5 0.5-0.2c7.7-2.5 14.3 0.1 14.6 0.2l0.4 0.2-0.1 0.6c-0.1 0.4-1.9 9.6-7.4 10.7q-0.5 0.1-1.1 0.1zm-5.7-10.6c0.2 2 1.1 9.3 5.7 9.3 4.7 0 6.8-7.1 7.3-9.2-1.6-0.5-7-2-13-0.1z"/>
					</g>
					<g>
						<path class="s1" d="m190.6 130.3c-6.7-0.2-8.8-11.3-8.8-11.7l-0.1-0.6 0.4-0.2c0.3-0.1 7.4-2.8 15.6 0.1l0.4 0.2v0.5c-0.2 3.8-1.7 10.7-6.3 11.6q-0.6 0.1-1.2 0.1zm-7.6-11.4c0.5 2.2 2.6 9.9 7.7 10 5 0.1 6-7.7 6.2-9.8-6.4-2.2-12.2-0.7-13.9-0.2z"/>
					</g>
					<g>
						<path class="s1" d="m201.6 122.3l0.8-0.9c-1.7-2.3-4.3-1.2-5.5-0.3l0.6 1.1c0.1-0.1 2.6-1.9 4.1 0.1z"/>
					</g>
					<g>
						<path fill-rule="evenodd" class="s1" d="m182.1 119.2l-0.1-1.3-5 0.2 0.1 1.4z"/>
					</g>
				</g>
				<path class="s38" d="m175.7 92c9.1-18.2 45.1-6.7 45.7 16.4l-3 4.6c0 0-36.4-1.1-42.7-21z"/>
				<path class="s38" d="m163.9 150.8c3.2-0.7 13.4-4 15.4-10.8 2.1-6.8 0.4-21.1 0.4-21.1-0.5-13.3 11-16.7 11-16.7 2.3-8-2.6-17.6-14.6-11-10.7 5.8-14.3 11-11.5 27.7 1 5.8 2.2 13.6 0.9 23-0.9 3.5-1.5 6.5-1.6 8.9z"/>
			</g>
		</g>
	</g>
</svg>