<svg xmlns="http://www.w3.org/2000/svg" xmlns:xlink="http://www.w3.org/1999/xlink" width="1920" zoomAndPan="magnify" viewBox="0 0 1440 225" height="300" preserveAspectRatio="xMidYMid meet" version="1.0"><defs><g/><clipPath id="ec2e2d2235"><path d="M 11 20 L 132 20 L 132 217.964844 L 11 217.964844 Z M 11 20 " clip-rule="nonzero"/></clipPath></defs><path fill="#004aad" d="M 242.304688 98.527344 C 246.660156 113.421875 239.121094 130.40625 229.417969 139.484375 C 222.582031 145.851562 214.992188 148.171875 208.625 145.824219 C 196.703125 141.023438 197.695312 129.78125 197.746094 129.3125 C 197.824219 128.503906 197.25 127.773438 196.441406 127.695312 C 195.632812 127.617188 194.902344 128.1875 194.824219 128.996094 C 194.796875 129.128906 193.519531 142.875 207.582031 148.539062 C 209.5625 149.269531 211.652344 149.632812 213.765625 149.632812 C 214.207031 149.632812 214.652344 149.609375 215.09375 149.582031 C 216.710938 159.574219 212.148438 167.164062 207.945312 171.808594 C 202.128906 178.25 194.71875 181.878906 190.15625 183 C 182.511719 184.800781 175.074219 183.574219 169.207031 179.554688 C 163.101562 175.382812 159.109375 168.597656 157.960938 160.433594 C 157.859375 159.625 157.101562 159.078125 156.320312 159.183594 C 155.511719 159.285156 154.960938 160.042969 155.066406 160.824219 C 156.320312 169.800781 160.753906 177.3125 167.535156 181.957031 C 171.398438 184.589844 175.832031 186.15625 180.554688 186.601562 C 180.398438 191.007812 175.207031 197.453125 166.648438 203.714844 C 157.753906 210.210938 147.160156 215.140625 139.621094 216.261719 C 133.699219 217.148438 130.359375 215.738281 129.710938 212.035156 C 129.710938 212.007812 129.710938 212.007812 129.710938 211.984375 C 125.507812 192.027344 140.429688 184.566406 145.335938 182.113281 C 146.066406 181.746094 146.351562 180.859375 145.988281 180.15625 C 145.621094 179.425781 144.734375 179.140625 144.03125 179.503906 C 140.953125 181.042969 137.195312 183.15625 133.855469 186.445312 C 128.039062 180.050781 127.777344 171.46875 131.378906 167.425781 C 131.71875 167.035156 131.820312 166.511719 131.691406 166.015625 C 128.507812 155.554688 136.753906 147.234375 146.328125 143.632812 C 159.5 138.675781 176.484375 141.703125 183.449219 157.121094 C 183.789062 157.851562 184.648438 158.191406 185.378906 157.851562 C 186.109375 157.511719 186.449219 156.652344 186.109375 155.921875 C 178.414062 138.859375 159.734375 135.46875 145.285156 140.894531 C 139.753906 142.980469 134.640625 146.503906 131.429688 151.066406 C 128.691406 148.015625 127.074219 142.277344 127.28125 136.121094 C 127.492188 130.746094 129.058594 126.363281 131.5625 124.066406 C 133.699219 126.390625 136.363281 128.347656 139.492188 129.832031 C 143.378906 131.683594 147.867188 132.625 152.429688 132.625 C 157.386719 132.625 162.449219 131.527344 166.882812 129.363281 C 172.363281 126.675781 176.222656 122.710938 177.945312 118.015625 C 183.917969 122.660156 191.71875 124.277344 199.652344 122.421875 C 208.234375 120.441406 215.460938 114.597656 218.09375 107.554688 C 218.382812 106.796875 217.992188 105.960938 217.234375 105.675781 C 216.476562 105.386719 215.640625 105.78125 215.355469 106.535156 C 213.058594 112.691406 206.617188 117.804688 198.972656 119.582031 C 191.199219 121.378906 183.632812 119.5 178.179688 114.363281 C 177.789062 113.996094 177.242188 113.867188 176.746094 114.023438 C 176.25 114.179688 175.859375 114.597656 175.753906 115.121094 C 174.710938 119.917969 171.109375 124.042969 165.605469 126.726562 C 157.832031 130.539062 148.101562 130.71875 140.769531 127.199219 C 135.109375 124.484375 131.195312 120.179688 129.449219 114.753906 C 127.570312 108.960938 128.25 102.335938 131.328125 95.945312 C 132.550781 97.351562 133.933594 98.578125 135.5 99.597656 C 138.761719 101.710938 142.570312 102.753906 146.71875 102.753906 C 150.8125 102.753906 155.273438 101.710938 159.839844 99.648438 C 166.308594 96.675781 170.171875 90.859375 171.582031 88.429688 C 179.09375 90.207031 190.597656 85.769531 198.007812 78.074219 C 205.519531 70.273438 207.632812 60.777344 203.902344 51.335938 C 203.617188 50.578125 202.753906 50.210938 202 50.5 C 201.242188 50.785156 200.875 51.648438 201.164062 52.402344 C 205.574219 63.59375 199.753906 72.023438 195.867188 76.039062 C 188.144531 84.046875 176.929688 87.308594 171.292969 85.328125 C 170.589844 85.066406 169.804688 85.40625 169.492188 86.082031 C 169.46875 86.160156 165.761719 93.726562 158.589844 97.015625 C 150.320312 100.746094 142.675781 100.796875 137.039062 97.144531 C 131.535156 93.570312 128.351562 86.839844 128.351562 78.648438 L 128.351562 77.472656 C 128.351562 61.195312 128.328125 47.132812 140.71875 37.167969 C 140.746094 37.140625 140.769531 37.140625 140.769531 37.117188 C 149.746094 29.003906 163.464844 21.621094 172.414062 24.621094 C 174.007812 25.140625 175.390625 26.003906 176.5625 27.175781 C 176.667969 27.28125 177.03125 27.671875 177.242188 27.90625 C 178.9375 29.917969 180.136719 32.679688 180.789062 36.175781 C 183.972656 52.953125 172.441406 65.109375 159.578125 69.726562 C 150.214844 73.089844 141.96875 71.789062 139.046875 66.464844 C 138.65625 65.761719 137.769531 65.5 137.066406 65.890625 C 136.363281 66.28125 136.101562 67.167969 136.492188 67.875 C 140.117188 74.5 149.796875 76.351562 160.570312 72.492188 C 167.824219 69.882812 174.164062 65.214844 178.441406 59.316406 C 183.476562 52.378906 185.300781 44.1875 183.660156 35.628906 C 182.980469 32.109375 181.832031 29.1875 180.1875 26.917969 C 188.796875 21.960938 200.40625 21.542969 210.269531 25.949219 C 220.808594 30.671875 227.902344 39.804688 230.460938 51.855469 C 230.539062 52.167969 230.589844 52.429688 230.644531 52.742188 C 230.800781 53.5 230.902344 54.257812 231.035156 55.011719 C 232.183594 65.054688 228.765625 75.335938 221.40625 83.96875 C 214.859375 91.640625 205.964844 97.09375 197.617188 98.578125 C 196.808594 98.710938 196.285156 99.492188 196.441406 100.273438 C 196.574219 100.980469 197.199219 101.476562 197.875 101.476562 C 197.953125 101.476562 198.058594 101.476562 198.136719 101.449219 C 214.992188 98.449219 236.800781 79.195312 233.980469 54.621094 C 233.980469 54.542969 233.957031 54.492188 233.957031 54.414062 C 238.757812 57.074219 243.425781 63.464844 245.878906 70.976562 C 249.085938 80.761719 247.859375 90.308594 242.539062 97.195312 C 242.277344 97.589844 242.175781 98.082031 242.304688 98.527344 Z M 242.304688 98.527344 " fill-opacity="1" fill-rule="nonzero"/><g clip-path="url(#ec2e2d2235)"><path fill="#5271ff" d="M 130.804688 189.105469 C 125.769531 195.46875 124.203125 203.375 126.160156 212.609375 C 126.472656 214.304688 127.308594 216.550781 129.65625 218.011719 C 96.785156 215.898438 0 133.121094 12.679688 72.335938 C 26.0625 9.332031 104.300781 6.984375 128.898438 46.820312 C 124.777344 55.875 124.777344 66.464844 124.777344 77.472656 L 124.777344 78.648438 C 124.777344 84.285156 126.160156 89.316406 128.664062 93.335938 C 124.648438 100.824219 123.683594 108.753906 125.925781 115.691406 C 126.65625 117.910156 127.675781 119.972656 129.003906 121.824219 C 125.847656 124.640625 123.867188 129.808594 123.628906 136.042969 C 123.371094 143.449219 125.507812 150.179688 129.160156 153.703125 C 127.335938 157.355469 126.707031 161.582031 127.933594 166.171875 C 123.917969 171.496094 124.28125 181.332031 131.144531 188.660156 C 131.039062 188.816406 130.933594 188.949219 130.804688 189.105469 Z M 130.804688 189.105469 " fill-opacity="1" fill-rule="nonzero"/></g><g fill="#5271ff" fill-opacity="1"><g transform="translate(316.772332, 123.350011)"><g><path d="M 40.296875 -87.03125 C 49.472656 -87.03125 57.488281 -85.210938 64.34375 -81.578125 C 71.207031 -77.941406 76.519531 -72.835938 80.28125 -66.265625 C 84.039062 -59.691406 85.921875 -52.109375 85.921875 -43.515625 C 85.921875 -35.003906 84.039062 -27.441406 80.28125 -20.828125 C 76.519531 -14.210938 71.1875 -9.085938 64.28125 -5.453125 C 57.382812 -1.816406 49.390625 0 40.296875 0 L 7.6875 0 L 7.6875 -87.03125 Z M 38.9375 -18.34375 C 46.945312 -18.34375 53.179688 -20.53125 57.640625 -24.90625 C 62.109375 -29.289062 64.34375 -35.492188 64.34375 -43.515625 C 64.34375 -51.535156 62.109375 -57.773438 57.640625 -62.234375 C 53.179688 -66.703125 46.945312 -68.9375 38.9375 -68.9375 L 28.890625 -68.9375 L 28.890625 -18.34375 Z M 38.9375 -18.34375 "/></g></g></g><g fill="#5271ff" fill-opacity="1"><g transform="translate(414.086532, 123.350011)"><g><path d="M 72.90625 -35.703125 C 72.90625 -33.722656 72.78125 -31.660156 72.53125 -29.515625 L 24.546875 -29.515625 C 24.878906 -25.210938 26.265625 -21.921875 28.703125 -19.640625 C 31.140625 -17.367188 34.132812 -16.234375 37.6875 -16.234375 C 42.976562 -16.234375 46.65625 -18.46875 48.71875 -22.9375 L 71.296875 -22.9375 C 70.140625 -18.394531 68.050781 -14.300781 65.03125 -10.65625 C 62.007812 -7.019531 58.222656 -4.171875 53.671875 -2.109375 C 49.128906 -0.046875 44.050781 0.984375 38.4375 0.984375 C 31.65625 0.984375 25.617188 -0.457031 20.328125 -3.34375 C 15.035156 -6.238281 10.898438 -10.375 7.921875 -15.75 C 4.953125 -21.125 3.46875 -27.40625 3.46875 -34.59375 C 3.46875 -41.78125 4.9375 -48.0625 7.875 -53.4375 C 10.8125 -58.8125 14.921875 -62.941406 20.203125 -65.828125 C 25.492188 -68.722656 31.570312 -70.171875 38.4375 -70.171875 C 45.132812 -70.171875 51.082031 -68.765625 56.28125 -65.953125 C 61.488281 -63.148438 65.5625 -59.144531 68.5 -53.9375 C 71.4375 -48.726562 72.90625 -42.648438 72.90625 -35.703125 Z M 51.203125 -41.28125 C 51.203125 -44.914062 49.960938 -47.804688 47.484375 -49.953125 C 45.003906 -52.109375 41.90625 -53.1875 38.1875 -53.1875 C 34.632812 -53.1875 31.640625 -52.148438 29.203125 -50.078125 C 26.765625 -48.015625 25.253906 -45.082031 24.671875 -41.28125 Z M 51.203125 -41.28125 "/></g></g></g><g fill="#5271ff" fill-opacity="1"><g transform="translate(497.640572, 123.350011)"><g><path d="M 95.96875 -69.921875 C 104.5625 -69.921875 111.398438 -67.316406 116.484375 -62.109375 C 121.566406 -56.910156 124.109375 -49.679688 124.109375 -40.421875 L 124.109375 0 L 103.03125 0 L 103.03125 -37.5625 C 103.03125 -42.03125 101.851562 -45.484375 99.5 -47.921875 C 97.144531 -50.359375 93.898438 -51.578125 89.765625 -51.578125 C 85.628906 -51.578125 82.382812 -50.359375 80.03125 -47.921875 C 77.675781 -45.484375 76.5 -42.03125 76.5 -37.5625 L 76.5 0 L 55.421875 0 L 55.421875 -37.5625 C 55.421875 -42.03125 54.242188 -45.484375 51.890625 -47.921875 C 49.535156 -50.359375 46.289062 -51.578125 42.15625 -51.578125 C 38.019531 -51.578125 34.773438 -50.359375 32.421875 -47.921875 C 30.066406 -45.484375 28.890625 -42.03125 28.890625 -37.5625 L 28.890625 0 L 7.6875 0 L 7.6875 -69.1875 L 28.890625 -69.1875 L 28.890625 -60.5 C 31.035156 -63.394531 33.84375 -65.6875 37.3125 -67.375 C 40.789062 -69.070312 44.71875 -69.921875 49.09375 -69.921875 C 54.300781 -69.921875 58.953125 -68.804688 63.046875 -66.578125 C 67.140625 -64.347656 70.34375 -61.164062 72.65625 -57.03125 C 75.050781 -60.832031 78.316406 -63.929688 82.453125 -66.328125 C 86.585938 -68.722656 91.09375 -69.921875 95.96875 -69.921875 Z M 95.96875 -69.921875 "/></g></g></g><g fill="#5271ff" fill-opacity="1"><g transform="translate(636.111275, 123.350011)"><g><path d="M 72.90625 -35.703125 C 72.90625 -33.722656 72.78125 -31.660156 72.53125 -29.515625 L 24.546875 -29.515625 C 24.878906 -25.210938 26.265625 -21.921875 28.703125 -19.640625 C 31.140625 -17.367188 34.132812 -16.234375 37.6875 -16.234375 C 42.976562 -16.234375 46.65625 -18.46875 48.71875 -22.9375 L 71.296875 -22.9375 C 70.140625 -18.394531 68.050781 -14.300781 65.03125 -10.65625 C 62.007812 -7.019531 58.222656 -4.171875 53.671875 -2.109375 C 49.128906 -0.046875 44.050781 0.984375 38.4375 0.984375 C 31.65625 0.984375 25.617188 -0.457031 20.328125 -3.34375 C 15.035156 -6.238281 10.898438 -10.375 7.921875 -15.75 C 4.953125 -21.125 3.46875 -27.40625 3.46875 -34.59375 C 3.46875 -41.78125 4.9375 -48.0625 7.875 -53.4375 C 10.8125 -58.8125 14.921875 -62.941406 20.203125 -65.828125 C 25.492188 -68.722656 31.570312 -70.171875 38.4375 -70.171875 C 45.132812 -70.171875 51.082031 -68.765625 56.28125 -65.953125 C 61.488281 -63.148438 65.5625 -59.144531 68.5 -53.9375 C 71.4375 -48.726562 72.90625 -42.648438 72.90625 -35.703125 Z M 51.203125 -41.28125 C 51.203125 -44.914062 49.960938 -47.804688 47.484375 -49.953125 C 45.003906 -52.109375 41.90625 -53.1875 38.1875 -53.1875 C 34.632812 -53.1875 31.640625 -52.148438 29.203125 -50.078125 C 26.765625 -48.015625 25.253906 -45.082031 24.671875 -41.28125 Z M 51.203125 -41.28125 "/></g></g></g><g fill="#5271ff" fill-opacity="1"><g transform="translate(719.665305, 123.350011)"><g><path d="M 49.84375 -69.921875 C 57.9375 -69.921875 64.398438 -67.296875 69.234375 -62.046875 C 74.078125 -56.804688 76.5 -49.597656 76.5 -40.421875 L 76.5 0 L 55.421875 0 L 55.421875 -37.5625 C 55.421875 -42.195312 54.222656 -45.796875 51.828125 -48.359375 C 49.429688 -50.921875 46.207031 -52.203125 42.15625 -52.203125 C 38.101562 -52.203125 34.878906 -50.921875 32.484375 -48.359375 C 30.085938 -45.796875 28.890625 -42.195312 28.890625 -37.5625 L 28.890625 0 L 7.6875 0 L 7.6875 -69.1875 L 28.890625 -69.1875 L 28.890625 -60.015625 C 31.035156 -63.066406 33.925781 -65.476562 37.5625 -67.25 C 41.195312 -69.03125 45.289062 -69.921875 49.84375 -69.921875 Z M 49.84375 -69.921875 "/></g></g></g><g fill="#5271ff" fill-opacity="1"><g transform="translate(810.409341, 123.350011)"><g><path d="M 35.828125 0.984375 C 29.796875 0.984375 24.421875 -0.046875 19.703125 -2.109375 C 14.992188 -4.171875 11.273438 -7 8.546875 -10.59375 C 5.828125 -14.195312 4.300781 -18.226562 3.96875 -22.6875 L 24.921875 -22.6875 C 25.171875 -20.289062 26.285156 -18.347656 28.265625 -16.859375 C 30.253906 -15.367188 32.691406 -14.625 35.578125 -14.625 C 38.222656 -14.625 40.269531 -15.140625 41.71875 -16.171875 C 43.164062 -17.210938 43.890625 -18.554688 43.890625 -20.203125 C 43.890625 -22.191406 42.851562 -23.660156 40.78125 -24.609375 C 38.71875 -25.554688 35.375 -26.609375 30.75 -27.765625 C 25.789062 -28.929688 21.65625 -30.15625 18.34375 -31.4375 C 15.039062 -32.71875 12.191406 -34.738281 9.796875 -37.5 C 7.398438 -40.269531 6.203125 -44.007812 6.203125 -48.71875 C 6.203125 -52.6875 7.296875 -56.300781 9.484375 -59.5625 C 11.671875 -62.832031 14.894531 -65.414062 19.15625 -67.3125 C 23.414062 -69.21875 28.476562 -70.171875 34.34375 -70.171875 C 43.019531 -70.171875 49.859375 -68.019531 54.859375 -63.71875 C 59.859375 -59.425781 62.734375 -53.726562 63.484375 -46.625 L 43.890625 -46.625 C 43.554688 -49.019531 42.5 -50.914062 40.71875 -52.3125 C 38.945312 -53.71875 36.613281 -54.421875 33.71875 -54.421875 C 31.238281 -54.421875 29.335938 -53.945312 28.015625 -53 C 26.691406 -52.050781 26.03125 -50.75 26.03125 -49.09375 C 26.03125 -47.113281 27.082031 -45.625 29.1875 -44.625 C 31.300781 -43.632812 34.59375 -42.644531 39.0625 -41.65625 C 44.175781 -40.332031 48.34375 -39.03125 51.5625 -37.75 C 54.789062 -36.46875 57.625 -34.398438 60.0625 -31.546875 C 62.507812 -28.703125 63.773438 -24.878906 63.859375 -20.078125 C 63.859375 -16.035156 62.71875 -12.421875 60.4375 -9.234375 C 58.164062 -6.054688 54.898438 -3.554688 50.640625 -1.734375 C 46.390625 0.078125 41.453125 0.984375 35.828125 0.984375 Z M 35.828125 0.984375 "/></g></g></g><g fill="#5271ff" fill-opacity="1"><g transform="translate(886.773406, 123.350011)"><g><path d="M 18.34375 -76.375 C 14.625 -76.375 11.585938 -77.46875 9.234375 -79.65625 C 6.878906 -81.851562 5.703125 -84.5625 5.703125 -87.78125 C 5.703125 -91.082031 6.878906 -93.828125 9.234375 -96.015625 C 11.585938 -98.210938 14.625 -99.3125 18.34375 -99.3125 C 21.988281 -99.3125 24.988281 -98.210938 27.34375 -96.015625 C 29.695312 -93.828125 30.875 -91.082031 30.875 -87.78125 C 30.875 -84.5625 29.695312 -81.851562 27.34375 -79.65625 C 24.988281 -77.46875 21.988281 -76.375 18.34375 -76.375 Z M 28.890625 -69.1875 L 28.890625 0 L 7.6875 0 L 7.6875 -69.1875 Z M 28.890625 -69.1875 "/></g></g></g><g fill="#5271ff" fill-opacity="1"><g transform="translate(930.534551, 123.350011)"><g><path d="M 3.46875 -34.71875 C 3.46875 -41.820312 4.8125 -48.0625 7.5 -53.4375 C 10.1875 -58.8125 13.84375 -62.941406 18.46875 -65.828125 C 23.101562 -68.722656 28.269531 -70.171875 33.96875 -70.171875 C 38.84375 -70.171875 43.117188 -69.175781 46.796875 -67.1875 C 50.484375 -65.207031 53.316406 -62.609375 55.296875 -59.390625 L 55.296875 -69.1875 L 76.5 -69.1875 L 76.5 0 L 55.296875 0 L 55.296875 -9.796875 C 53.234375 -6.566406 50.359375 -3.960938 46.671875 -1.984375 C 42.992188 -0.00390625 38.71875 0.984375 33.84375 0.984375 C 28.226562 0.984375 23.101562 -0.476562 18.46875 -3.40625 C 13.84375 -6.34375 10.1875 -10.515625 7.5 -15.921875 C 4.8125 -21.335938 3.46875 -27.601562 3.46875 -34.71875 Z M 55.296875 -34.59375 C 55.296875 -39.882812 53.828125 -44.054688 50.890625 -47.109375 C 47.960938 -50.171875 44.390625 -51.703125 40.171875 -51.703125 C 35.953125 -51.703125 32.375 -50.191406 29.4375 -47.171875 C 26.507812 -44.160156 25.046875 -40.007812 25.046875 -34.71875 C 25.046875 -29.425781 26.507812 -25.226562 29.4375 -22.125 C 32.375 -19.03125 35.953125 -17.484375 40.171875 -17.484375 C 44.390625 -17.484375 47.960938 -19.007812 50.890625 -22.0625 C 53.828125 -25.125 55.296875 -29.300781 55.296875 -34.59375 Z M 55.296875 -34.59375 "/></g></g></g><g fill="#5271ff" fill-opacity="1"><g transform="translate(1021.89844, 123.350011)"><g/></g></g><g fill="#5271ff" fill-opacity="1"><g transform="translate(1055.370482, 123.350011)"><g><path d="M 4.09375 -43.640625 C 4.09375 -52.234375 5.953125 -59.898438 9.671875 -66.640625 C 13.390625 -73.378906 18.578125 -78.628906 25.234375 -82.390625 C 31.890625 -86.148438 39.429688 -88.03125 47.859375 -88.03125 C 58.191406 -88.03125 67.035156 -85.300781 74.390625 -79.84375 C 81.742188 -74.382812 86.660156 -66.945312 89.140625 -57.53125 L 65.828125 -57.53125 C 64.097656 -61.164062 61.640625 -63.929688 58.453125 -65.828125 C 55.273438 -67.734375 51.660156 -68.6875 47.609375 -68.6875 C 41.078125 -68.6875 35.785156 -66.410156 31.734375 -61.859375 C 27.691406 -57.316406 25.671875 -51.242188 25.671875 -43.640625 C 25.671875 -36.035156 27.691406 -29.957031 31.734375 -25.40625 C 35.785156 -20.863281 41.078125 -18.59375 47.609375 -18.59375 C 51.660156 -18.59375 55.273438 -19.539062 58.453125 -21.4375 C 61.640625 -23.34375 64.097656 -26.113281 65.828125 -29.75 L 89.140625 -29.75 C 86.660156 -20.332031 81.742188 -12.914062 74.390625 -7.5 C 67.035156 -2.082031 58.191406 0.625 47.859375 0.625 C 39.429688 0.625 31.890625 -1.253906 25.234375 -5.015625 C 18.578125 -8.773438 13.390625 -14.003906 9.671875 -20.703125 C 5.953125 -27.398438 4.09375 -35.046875 4.09375 -43.640625 Z M 4.09375 -43.640625 "/></g></g></g><g fill="#5271ff" fill-opacity="1"><g transform="translate(1157.023473, 123.350011)"><g><path d="M 3.46875 -34.71875 C 3.46875 -41.820312 4.8125 -48.0625 7.5 -53.4375 C 10.1875 -58.8125 13.84375 -62.941406 18.46875 -65.828125 C 23.101562 -68.722656 28.269531 -70.171875 33.96875 -70.171875 C 38.84375 -70.171875 43.117188 -69.175781 46.796875 -67.1875 C 50.484375 -65.207031 53.316406 -62.609375 55.296875 -59.390625 L 55.296875 -69.1875 L 76.5 -69.1875 L 76.5 0 L 55.296875 0 L 55.296875 -9.796875 C 53.234375 -6.566406 50.359375 -3.960938 46.671875 -1.984375 C 42.992188 -0.00390625 38.71875 0.984375 33.84375 0.984375 C 28.226562 0.984375 23.101562 -0.476562 18.46875 -3.40625 C 13.84375 -6.34375 10.1875 -10.515625 7.5 -15.921875 C 4.8125 -21.335938 3.46875 -27.601562 3.46875 -34.71875 Z M 55.296875 -34.59375 C 55.296875 -39.882812 53.828125 -44.054688 50.890625 -47.109375 C 47.960938 -50.171875 44.390625 -51.703125 40.171875 -51.703125 C 35.953125 -51.703125 32.375 -50.191406 29.4375 -47.171875 C 26.507812 -44.160156 25.046875 -40.007812 25.046875 -34.71875 C 25.046875 -29.425781 26.507812 -25.226562 29.4375 -22.125 C 32.375 -19.03125 35.953125 -17.484375 40.171875 -17.484375 C 44.390625 -17.484375 47.960938 -19.007812 50.890625 -22.0625 C 53.828125 -25.125 55.296875 -29.300781 55.296875 -34.59375 Z M 55.296875 -34.59375 "/></g></g></g><g fill="#5271ff" fill-opacity="1"><g transform="translate(1248.387321, 123.350011)"><g><path d="M 28.890625 -57.65625 C 31.367188 -61.457031 34.46875 -64.453125 38.1875 -66.640625 C 41.90625 -68.828125 46.035156 -69.921875 50.578125 -69.921875 L 50.578125 -47.484375 L 44.765625 -47.484375 C 39.472656 -47.484375 35.503906 -46.347656 32.859375 -44.078125 C 30.210938 -41.804688 28.890625 -37.816406 28.890625 -32.109375 L 28.890625 0 L 7.6875 0 L 7.6875 -69.1875 L 28.890625 -69.1875 Z M 28.890625 -57.65625 "/></g></g></g><g fill="#5271ff" fill-opacity="1"><g transform="translate(1308.635844, 123.350011)"><g><path d="M 72.90625 -35.703125 C 72.90625 -33.722656 72.78125 -31.660156 72.53125 -29.515625 L 24.546875 -29.515625 C 24.878906 -25.210938 26.265625 -21.921875 28.703125 -19.640625 C 31.140625 -17.367188 34.132812 -16.234375 37.6875 -16.234375 C 42.976562 -16.234375 46.65625 -18.46875 48.71875 -22.9375 L 71.296875 -22.9375 C 70.140625 -18.394531 68.050781 -14.300781 65.03125 -10.65625 C 62.007812 -7.019531 58.222656 -4.171875 53.671875 -2.109375 C 49.128906 -0.046875 44.050781 0.984375 38.4375 0.984375 C 31.65625 0.984375 25.617188 -0.457031 20.328125 -3.34375 C 15.035156 -6.238281 10.898438 -10.375 7.921875 -15.75 C 4.953125 -21.125 3.46875 -27.40625 3.46875 -34.59375 C 3.46875 -41.78125 4.9375 -48.0625 7.875 -53.4375 C 10.8125 -58.8125 14.921875 -62.941406 20.203125 -65.828125 C 25.492188 -68.722656 31.570312 -70.171875 38.4375 -70.171875 C 45.132812 -70.171875 51.082031 -68.765625 56.28125 -65.953125 C 61.488281 -63.148438 65.5625 -59.144531 68.5 -53.9375 C 71.4375 -48.726562 72.90625 -42.648438 72.90625 -35.703125 Z M 51.203125 -41.28125 C 51.203125 -44.914062 49.960938 -47.804688 47.484375 -49.953125 C 45.003906 -52.109375 41.90625 -53.1875 38.1875 -53.1875 C 34.632812 -53.1875 31.640625 -52.148438 29.203125 -50.078125 C 26.765625 -48.015625 25.253906 -45.082031 24.671875 -41.28125 Z M 51.203125 -41.28125 "/></g></g></g><g fill="#000000" fill-opacity="1"><g transform="translate(331.164879, 196.538569)"><g><path d="M 1.890625 -15.390625 C 1.890625 -18.390625 2.566406 -21.085938 3.921875 -23.484375 C 5.273438 -25.878906 7.117188 -27.753906 9.453125 -29.109375 C 11.796875 -30.460938 14.394531 -31.140625 17.25 -31.140625 C 20.601562 -31.140625 23.53125 -30.332031 26.03125 -28.71875 C 28.53125 -27.101562 30.351562 -24.804688 31.5 -21.828125 L 26.6875 -21.828125 C 25.832031 -23.679688 24.601562 -25.109375 23 -26.109375 C 21.394531 -27.109375 19.476562 -27.609375 17.25 -27.609375 C 15.101562 -27.609375 13.175781 -27.109375 11.46875 -26.109375 C 9.757812 -25.109375 8.421875 -23.6875 7.453125 -21.84375 C 6.484375 -20.007812 6 -17.859375 6 -15.390625 C 6 -12.953125 6.484375 -10.8125 7.453125 -8.96875 C 8.421875 -7.132812 9.757812 -5.71875 11.46875 -4.71875 C 13.175781 -3.71875 15.101562 -3.21875 17.25 -3.21875 C 19.476562 -3.21875 21.394531 -3.707031 23 -4.6875 C 24.601562 -5.675781 25.832031 -7.097656 26.6875 -8.953125 L 31.5 -8.953125 C 30.351562 -6.015625 28.53125 -3.742188 26.03125 -2.140625 C 23.53125 -0.535156 20.601562 0.265625 17.25 0.265625 C 14.394531 0.265625 11.796875 -0.398438 9.453125 -1.734375 C 7.117188 -3.078125 5.273438 -4.9375 3.921875 -7.3125 C 2.566406 -9.695312 1.890625 -12.390625 1.890625 -15.390625 Z M 1.890625 -15.390625 "/></g></g></g><g fill="#000000" fill-opacity="1"><g transform="translate(371.699349, 196.538569)"><g><path d="M 1.890625 -12.171875 C 1.890625 -14.640625 2.390625 -16.804688 3.390625 -18.671875 C 4.390625 -20.546875 5.765625 -21.992188 7.515625 -23.015625 C 9.265625 -24.046875 11.210938 -24.5625 13.359375 -24.5625 C 15.484375 -24.5625 17.320312 -24.101562 18.875 -23.1875 C 20.4375 -22.28125 21.597656 -21.140625 22.359375 -19.765625 L 22.359375 -24.171875 L 26.421875 -24.171875 L 26.421875 0 L 22.359375 0 L 22.359375 -4.5 C 21.566406 -3.082031 20.382812 -1.910156 18.8125 -0.984375 C 17.238281 -0.0664062 15.410156 0.390625 13.328125 0.390625 C 11.171875 0.390625 9.222656 -0.132812 7.484375 -1.1875 C 5.753906 -2.25 4.390625 -3.734375 3.390625 -5.640625 C 2.390625 -7.554688 1.890625 -9.734375 1.890625 -12.171875 Z M 22.359375 -12.125 C 22.359375 -13.945312 21.988281 -15.535156 21.25 -16.890625 C 20.519531 -18.242188 19.53125 -19.28125 18.28125 -20 C 17.03125 -20.71875 15.65625 -21.078125 14.15625 -21.078125 C 12.65625 -21.078125 11.285156 -20.722656 10.046875 -20.015625 C 8.816406 -19.316406 7.832031 -18.289062 7.09375 -16.9375 C 6.363281 -15.582031 6 -13.992188 6 -12.171875 C 6 -10.316406 6.363281 -8.707031 7.09375 -7.34375 C 7.832031 -5.976562 8.816406 -4.929688 10.046875 -4.203125 C 11.285156 -3.484375 12.65625 -3.125 14.15625 -3.125 C 15.65625 -3.125 17.03125 -3.484375 18.28125 -4.203125 C 19.53125 -4.929688 20.519531 -5.976562 21.25 -7.34375 C 21.988281 -8.707031 22.359375 -10.300781 22.359375 -12.125 Z M 22.359375 -12.125 "/></g></g></g><g fill="#000000" fill-opacity="1"><g transform="translate(407.999729, 196.538569)"><g><path d="M 7.40625 -20.25 C 8.113281 -21.625 9.117188 -22.691406 10.421875 -23.453125 C 11.734375 -24.222656 13.332031 -24.609375 15.21875 -24.609375 L 15.21875 -20.46875 L 14.15625 -20.46875 C 9.65625 -20.46875 7.40625 -18.023438 7.40625 -13.140625 L 7.40625 0 L 3.390625 0 L 3.390625 -24.171875 L 7.40625 -24.171875 Z M 7.40625 -20.25 "/></g></g></g><g fill="#000000" fill-opacity="1"><g transform="translate(430.936253, 196.538569)"><g><path d="M 25.453125 -13.015625 C 25.453125 -12.242188 25.40625 -11.4375 25.3125 -10.59375 L 6 -10.59375 C 6.144531 -8.207031 6.957031 -6.34375 8.4375 -5 C 9.925781 -3.664062 11.726562 -3 13.84375 -3 C 15.582031 -3 17.03125 -3.398438 18.1875 -4.203125 C 19.351562 -5.015625 20.171875 -6.097656 20.640625 -7.453125 L 24.96875 -7.453125 C 24.320312 -5.128906 23.023438 -3.238281 21.078125 -1.78125 C 19.140625 -0.332031 16.726562 0.390625 13.84375 0.390625 C 11.550781 0.390625 9.5 -0.117188 7.6875 -1.140625 C 5.882812 -2.171875 4.46875 -3.632812 3.4375 -5.53125 C 2.40625 -7.425781 1.890625 -9.625 1.890625 -12.125 C 1.890625 -14.625 2.390625 -16.816406 3.390625 -18.703125 C 4.390625 -20.585938 5.796875 -22.035156 7.609375 -23.046875 C 9.421875 -24.054688 11.5 -24.5625 13.84375 -24.5625 C 16.144531 -24.5625 18.175781 -24.0625 19.9375 -23.0625 C 21.695312 -22.0625 23.054688 -20.6875 24.015625 -18.9375 C 24.972656 -17.195312 25.453125 -15.222656 25.453125 -13.015625 Z M 21.3125 -13.84375 C 21.3125 -15.375 20.972656 -16.691406 20.296875 -17.796875 C 19.617188 -18.898438 18.695312 -19.738281 17.53125 -20.3125 C 16.375 -20.882812 15.085938 -21.171875 13.671875 -21.171875 C 11.640625 -21.171875 9.910156 -20.523438 8.484375 -19.234375 C 7.066406 -17.941406 6.253906 -16.144531 6.046875 -13.84375 Z M 21.3125 -13.84375 "/></g></g></g><g fill="#000000" fill-opacity="1"><g transform="translate(464.76673, 196.538569)"><g/></g></g><g fill="#000000" fill-opacity="1"><g transform="translate(483.028119, 196.538569)"><g><path d="M 20.78125 -30.75 L 20.78125 -27.484375 L 7.40625 -27.484375 L 7.40625 -17.109375 L 18.265625 -17.109375 L 18.265625 -13.84375 L 7.40625 -13.84375 L 7.40625 0 L 3.390625 0 L 3.390625 -30.75 Z M 20.78125 -30.75 "/></g></g></g><g fill="#000000" fill-opacity="1"><g transform="translate(511.742428, 196.538569)"><g><path d="M 13.9375 0.390625 C 11.675781 0.390625 9.625 -0.117188 7.78125 -1.140625 C 5.945312 -2.171875 4.503906 -3.632812 3.453125 -5.53125 C 2.410156 -7.425781 1.890625 -9.625 1.890625 -12.125 C 1.890625 -14.59375 2.425781 -16.773438 3.5 -18.671875 C 4.570312 -20.578125 6.035156 -22.035156 7.890625 -23.046875 C 9.742188 -24.054688 11.816406 -24.5625 14.109375 -24.5625 C 16.410156 -24.5625 18.484375 -24.054688 20.328125 -23.046875 C 22.179688 -22.035156 23.644531 -20.585938 24.71875 -18.703125 C 25.789062 -16.816406 26.328125 -14.625 26.328125 -12.125 C 26.328125 -9.625 25.773438 -7.425781 24.671875 -5.53125 C 23.578125 -3.632812 22.085938 -2.171875 20.203125 -1.140625 C 18.316406 -0.117188 16.226562 0.390625 13.9375 0.390625 Z M 13.9375 -3.125 C 15.375 -3.125 16.722656 -3.460938 17.984375 -4.140625 C 19.253906 -4.816406 20.28125 -5.832031 21.0625 -7.1875 C 21.84375 -8.539062 22.234375 -10.1875 22.234375 -12.125 C 22.234375 -14.070312 21.847656 -15.71875 21.078125 -17.0625 C 20.316406 -18.414062 19.316406 -19.421875 18.078125 -20.078125 C 16.847656 -20.742188 15.515625 -21.078125 14.078125 -21.078125 C 12.597656 -21.078125 11.25 -20.742188 10.03125 -20.078125 C 8.8125 -19.421875 7.832031 -18.414062 7.09375 -17.0625 C 6.363281 -15.71875 6 -14.070312 6 -12.125 C 6 -10.15625 6.359375 -8.492188 7.078125 -7.140625 C 7.796875 -5.785156 8.757812 -4.773438 9.96875 -4.109375 C 11.175781 -3.453125 12.5 -3.125 13.9375 -3.125 Z M 13.9375 -3.125 "/></g></g></g><g fill="#000000" fill-opacity="1"><g transform="translate(546.455013, 196.538569)"><g><path d="M 7.40625 -20.25 C 8.113281 -21.625 9.117188 -22.691406 10.421875 -23.453125 C 11.734375 -24.222656 13.332031 -24.609375 15.21875 -24.609375 L 15.21875 -20.46875 L 14.15625 -20.46875 C 9.65625 -20.46875 7.40625 -18.023438 7.40625 -13.140625 L 7.40625 0 L 3.390625 0 L 3.390625 -24.171875 L 7.40625 -24.171875 Z M 7.40625 -20.25 "/></g></g></g><g fill="#000000" fill-opacity="1"><g transform="translate(569.391526, 196.538569)"><g/></g></g><g fill="#000000" fill-opacity="1"><g transform="translate(587.652905, 196.538569)"><g><path d="M 24.921875 -30.75 L 14.90625 -11.59375 L 14.90625 0 L 10.890625 0 L 10.890625 -11.59375 L 0.84375 -30.75 L 5.296875 -30.75 L 12.875 -15.171875 L 20.46875 -30.75 Z M 24.921875 -30.75 "/></g></g></g><g fill="#000000" fill-opacity="1"><g transform="translate(619.895614, 196.538569)"><g><path d="M 13.9375 0.390625 C 11.675781 0.390625 9.625 -0.117188 7.78125 -1.140625 C 5.945312 -2.171875 4.503906 -3.632812 3.453125 -5.53125 C 2.410156 -7.425781 1.890625 -9.625 1.890625 -12.125 C 1.890625 -14.59375 2.425781 -16.773438 3.5 -18.671875 C 4.570312 -20.578125 6.035156 -22.035156 7.890625 -23.046875 C 9.742188 -24.054688 11.816406 -24.5625 14.109375 -24.5625 C 16.410156 -24.5625 18.484375 -24.054688 20.328125 -23.046875 C 22.179688 -22.035156 23.644531 -20.585938 24.71875 -18.703125 C 25.789062 -16.816406 26.328125 -14.625 26.328125 -12.125 C 26.328125 -9.625 25.773438 -7.425781 24.671875 -5.53125 C 23.578125 -3.632812 22.085938 -2.171875 20.203125 -1.140625 C 18.316406 -0.117188 16.226562 0.390625 13.9375 0.390625 Z M 13.9375 -3.125 C 15.375 -3.125 16.722656 -3.460938 17.984375 -4.140625 C 19.253906 -4.816406 20.28125 -5.832031 21.0625 -7.1875 C 21.84375 -8.539062 22.234375 -10.1875 22.234375 -12.125 C 22.234375 -14.070312 21.847656 -15.71875 21.078125 -17.0625 C 20.316406 -18.414062 19.316406 -19.421875 18.078125 -20.078125 C 16.847656 -20.742188 15.515625 -21.078125 14.078125 -21.078125 C 12.597656 -21.078125 11.25 -20.742188 10.03125 -20.078125 C 8.8125 -19.421875 7.832031 -18.414062 7.09375 -17.0625 C 6.363281 -15.71875 6 -14.070312 6 -12.125 C 6 -10.15625 6.359375 -8.492188 7.078125 -7.140625 C 7.796875 -5.785156 8.757812 -4.773438 9.96875 -4.109375 C 11.175781 -3.453125 12.5 -3.125 13.9375 -3.125 Z M 13.9375 -3.125 "/></g></g></g><g fill="#000000" fill-opacity="1"><g transform="translate(654.608199, 196.538569)"><g><path d="M 24.828125 -24.171875 L 24.828125 0 L 20.8125 0 L 20.8125 -3.578125 C 20.050781 -2.335938 18.988281 -1.367188 17.625 -0.671875 C 16.257812 0.015625 14.75 0.359375 13.09375 0.359375 C 11.21875 0.359375 9.53125 -0.03125 8.03125 -0.8125 C 6.53125 -1.59375 5.34375 -2.757812 4.46875 -4.3125 C 3.601562 -5.875 3.171875 -7.773438 3.171875 -10.015625 L 3.171875 -24.171875 L 7.140625 -24.171875 L 7.140625 -10.546875 C 7.140625 -8.160156 7.742188 -6.328125 8.953125 -5.046875 C 10.160156 -3.765625 11.804688 -3.125 13.890625 -3.125 C 16.035156 -3.125 17.722656 -3.785156 18.953125 -5.109375 C 20.191406 -6.441406 20.8125 -8.367188 20.8125 -10.890625 L 20.8125 -24.171875 Z M 24.828125 -24.171875 "/></g></g></g><g fill="#000000" fill-opacity="1"><g transform="translate(689.320784, 196.538569)"><g><path d="M 7.40625 -20.25 C 8.113281 -21.625 9.117188 -22.691406 10.421875 -23.453125 C 11.734375 -24.222656 13.332031 -24.609375 15.21875 -24.609375 L 15.21875 -20.46875 L 14.15625 -20.46875 C 9.65625 -20.46875 7.40625 -18.023438 7.40625 -13.140625 L 7.40625 0 L 3.390625 0 L 3.390625 -24.171875 L 7.40625 -24.171875 Z M 7.40625 -20.25 "/></g></g></g><g fill="#000000" fill-opacity="1"><g transform="translate(712.257297, 196.538569)"><g/></g></g><g fill="#000000" fill-opacity="1"><g transform="translate(730.518675, 196.538569)"><g><path d="M 34.578125 -30.53125 L 34.578125 0 L 30.5625 0 L 30.5625 -22.765625 L 20.421875 0 L 17.59375 0 L 7.40625 -22.796875 L 7.40625 0 L 3.390625 0 L 3.390625 -30.53125 L 7.71875 -30.53125 L 19.015625 -5.296875 L 30.296875 -30.53125 Z M 34.578125 -30.53125 "/></g></g></g><g fill="#000000" fill-opacity="1"><g transform="translate(774.978499, 196.538569)"><g><path d="M 5.46875 -28.09375 C 4.707031 -28.09375 4.0625 -28.359375 3.53125 -28.890625 C 3 -29.421875 2.734375 -30.066406 2.734375 -30.828125 C 2.734375 -31.597656 3 -32.242188 3.53125 -32.765625 C 4.0625 -33.296875 4.707031 -33.5625 5.46875 -33.5625 C 6.207031 -33.5625 6.832031 -33.296875 7.34375 -32.765625 C 7.851562 -32.242188 8.109375 -31.597656 8.109375 -30.828125 C 8.109375 -30.066406 7.851562 -29.421875 7.34375 -28.890625 C 6.832031 -28.359375 6.207031 -28.09375 5.46875 -28.09375 Z M 7.40625 -24.171875 L 7.40625 0 L 3.390625 0 L 3.390625 -24.171875 Z M 7.40625 -24.171875 "/></g></g></g><g fill="#000000" fill-opacity="1"><g transform="translate(792.313674, 196.538569)"><g><path d="M 15.171875 -24.609375 C 18.109375 -24.609375 20.488281 -23.71875 22.3125 -21.9375 C 24.132812 -20.164062 25.046875 -17.601562 25.046875 -14.25 L 25.046875 0 L 21.078125 0 L 21.078125 -13.671875 C 21.078125 -16.085938 20.472656 -17.929688 19.265625 -19.203125 C 18.066406 -20.484375 16.421875 -21.125 14.328125 -21.125 C 12.210938 -21.125 10.53125 -20.460938 9.28125 -19.140625 C 8.03125 -17.816406 7.40625 -15.890625 7.40625 -13.359375 L 7.40625 0 L 3.390625 0 L 3.390625 -24.171875 L 7.40625 -24.171875 L 7.40625 -20.734375 C 8.195312 -21.960938 9.273438 -22.914062 10.640625 -23.59375 C 12.015625 -24.269531 13.523438 -24.609375 15.171875 -24.609375 Z M 15.171875 -24.609375 "/></g></g></g><g fill="#000000" fill-opacity="1"><g transform="translate(827.026259, 196.538569)"><g><path d="M 1.890625 -12.171875 C 1.890625 -14.640625 2.390625 -16.804688 3.390625 -18.671875 C 4.390625 -20.546875 5.765625 -21.992188 7.515625 -23.015625 C 9.265625 -24.046875 11.226562 -24.5625 13.40625 -24.5625 C 15.289062 -24.5625 17.039062 -24.128906 18.65625 -23.265625 C 20.269531 -22.398438 21.503906 -21.257812 22.359375 -19.84375 L 22.359375 -32.640625 L 26.421875 -32.640625 L 26.421875 0 L 22.359375 0 L 22.359375 -4.546875 C 21.566406 -3.097656 20.390625 -1.910156 18.828125 -0.984375 C 17.273438 -0.0664062 15.453125 0.390625 13.359375 0.390625 C 11.210938 0.390625 9.265625 -0.132812 7.515625 -1.1875 C 5.765625 -2.25 4.390625 -3.734375 3.390625 -5.640625 C 2.390625 -7.554688 1.890625 -9.734375 1.890625 -12.171875 Z M 22.359375 -12.125 C 22.359375 -13.945312 21.988281 -15.535156 21.25 -16.890625 C 20.519531 -18.242188 19.53125 -19.28125 18.28125 -20 C 17.03125 -20.71875 15.65625 -21.078125 14.15625 -21.078125 C 12.65625 -21.078125 11.285156 -20.722656 10.046875 -20.015625 C 8.816406 -19.316406 7.832031 -18.289062 7.09375 -16.9375 C 6.363281 -15.582031 6 -13.992188 6 -12.171875 C 6 -10.316406 6.363281 -8.707031 7.09375 -7.34375 C 7.832031 -5.976562 8.816406 -4.929688 10.046875 -4.203125 C 11.285156 -3.484375 12.65625 -3.125 14.15625 -3.125 C 15.65625 -3.125 17.03125 -3.484375 18.28125 -4.203125 C 19.53125 -4.929688 20.519531 -5.976562 21.25 -7.34375 C 21.988281 -8.707031 22.359375 -10.300781 22.359375 -12.125 Z M 22.359375 -12.125 "/></g></g></g><g fill="#000000" fill-opacity="1"><g transform="translate(863.326633, 196.538569)"><g><path d="M 7.546875 -5.5625 L 2.609375 6.3125 L -0.09375 6.3125 L 3.125 -5.5625 Z M 7.546875 -5.5625 "/></g></g></g><g fill="#000000" fill-opacity="1"><g transform="translate(878.561465, 196.538569)"><g><path d="M 1.890625 -15.390625 C 1.890625 -18.390625 2.566406 -21.085938 3.921875 -23.484375 C 5.273438 -25.878906 7.117188 -27.753906 9.453125 -29.109375 C 11.796875 -30.460938 14.394531 -31.140625 17.25 -31.140625 C 20.601562 -31.140625 23.53125 -30.332031 26.03125 -28.71875 C 28.53125 -27.101562 30.351562 -24.804688 31.5 -21.828125 L 26.6875 -21.828125 C 25.832031 -23.679688 24.601562 -25.109375 23 -26.109375 C 21.394531 -27.109375 19.476562 -27.609375 17.25 -27.609375 C 15.101562 -27.609375 13.175781 -27.109375 11.46875 -26.109375 C 9.757812 -25.109375 8.421875 -23.6875 7.453125 -21.84375 C 6.484375 -20.007812 6 -17.859375 6 -15.390625 C 6 -12.953125 6.484375 -10.8125 7.453125 -8.96875 C 8.421875 -7.132812 9.757812 -5.71875 11.46875 -4.71875 C 13.175781 -3.71875 15.101562 -3.21875 17.25 -3.21875 C 19.476562 -3.21875 21.394531 -3.707031 23 -4.6875 C 24.601562 -5.675781 25.832031 -7.097656 26.6875 -8.953125 L 31.5 -8.953125 C 30.351562 -6.015625 28.53125 -3.742188 26.03125 -2.140625 C 23.53125 -0.535156 20.601562 0.265625 17.25 0.265625 C 14.394531 0.265625 11.796875 -0.398438 9.453125 -1.734375 C 7.117188 -3.078125 5.273438 -4.9375 3.921875 -7.3125 C 2.566406 -9.695312 1.890625 -12.390625 1.890625 -15.390625 Z M 1.890625 -15.390625 "/></g></g></g><g fill="#000000" fill-opacity="1"><g transform="translate(919.095936, 196.538569)"><g><path d="M 1.890625 -12.171875 C 1.890625 -14.640625 2.390625 -16.804688 3.390625 -18.671875 C 4.390625 -20.546875 5.765625 -21.992188 7.515625 -23.015625 C 9.265625 -24.046875 11.210938 -24.5625 13.359375 -24.5625 C 15.484375 -24.5625 17.320312 -24.101562 18.875 -23.1875 C 20.4375 -22.28125 21.597656 -21.140625 22.359375 -19.765625 L 22.359375 -24.171875 L 26.421875 -24.171875 L 26.421875 0 L 22.359375 0 L 22.359375 -4.5 C 21.566406 -3.082031 20.382812 -1.910156 18.8125 -0.984375 C 17.238281 -0.0664062 15.410156 0.390625 13.328125 0.390625 C 11.171875 0.390625 9.222656 -0.132812 7.484375 -1.1875 C 5.753906 -2.25 4.390625 -3.734375 3.390625 -5.640625 C 2.390625 -7.554688 1.890625 -9.734375 1.890625 -12.171875 Z M 22.359375 -12.125 C 22.359375 -13.945312 21.988281 -15.535156 21.25 -16.890625 C 20.519531 -18.242188 19.53125 -19.28125 18.28125 -20 C 17.03125 -20.71875 15.65625 -21.078125 14.15625 -21.078125 C 12.65625 -21.078125 11.285156 -20.722656 10.046875 -20.015625 C 8.816406 -19.316406 7.832031 -18.289062 7.09375 -16.9375 C 6.363281 -15.582031 6 -13.992188 6 -12.171875 C 6 -10.316406 6.363281 -8.707031 7.09375 -7.34375 C 7.832031 -5.976562 8.816406 -4.929688 10.046875 -4.203125 C 11.285156 -3.484375 12.65625 -3.125 14.15625 -3.125 C 15.65625 -3.125 17.03125 -3.484375 18.28125 -4.203125 C 19.53125 -4.929688 20.519531 -5.976562 21.25 -7.34375 C 21.988281 -8.707031 22.359375 -10.300781 22.359375 -12.125 Z M 22.359375 -12.125 "/></g></g></g><g fill="#000000" fill-opacity="1"><g transform="translate(955.396315, 196.538569)"><g><path d="M 7.40625 -20.25 C 8.113281 -21.625 9.117188 -22.691406 10.421875 -23.453125 C 11.734375 -24.222656 13.332031 -24.609375 15.21875 -24.609375 L 15.21875 -20.46875 L 14.15625 -20.46875 C 9.65625 -20.46875 7.40625 -18.023438 7.40625 -13.140625 L 7.40625 0 L 3.390625 0 L 3.390625 -24.171875 L 7.40625 -24.171875 Z M 7.40625 -20.25 "/></g></g></g><g fill="#000000" fill-opacity="1"><g transform="translate(978.332839, 196.538569)"><g><path d="M 25.453125 -13.015625 C 25.453125 -12.242188 25.40625 -11.4375 25.3125 -10.59375 L 6 -10.59375 C 6.144531 -8.207031 6.957031 -6.34375 8.4375 -5 C 9.925781 -3.664062 11.726562 -3 13.84375 -3 C 15.582031 -3 17.03125 -3.398438 18.1875 -4.203125 C 19.351562 -5.015625 20.171875 -6.097656 20.640625 -7.453125 L 24.96875 -7.453125 C 24.320312 -5.128906 23.023438 -3.238281 21.078125 -1.78125 C 19.140625 -0.332031 16.726562 0.390625 13.84375 0.390625 C 11.550781 0.390625 9.5 -0.117188 7.6875 -1.140625 C 5.882812 -2.171875 4.46875 -3.632812 3.4375 -5.53125 C 2.40625 -7.425781 1.890625 -9.625 1.890625 -12.125 C 1.890625 -14.625 2.390625 -16.816406 3.390625 -18.703125 C 4.390625 -20.585938 5.796875 -22.035156 7.609375 -23.046875 C 9.421875 -24.054688 11.5 -24.5625 13.84375 -24.5625 C 16.144531 -24.5625 18.175781 -24.0625 19.9375 -23.0625 C 21.695312 -22.0625 23.054688 -20.6875 24.015625 -18.9375 C 24.972656 -17.195312 25.453125 -15.222656 25.453125 -13.015625 Z M 21.3125 -13.84375 C 21.3125 -15.375 20.972656 -16.691406 20.296875 -17.796875 C 19.617188 -18.898438 18.695312 -19.738281 17.53125 -20.3125 C 16.375 -20.882812 15.085938 -21.171875 13.671875 -21.171875 C 11.640625 -21.171875 9.910156 -20.523438 8.484375 -19.234375 C 7.066406 -17.941406 6.253906 -16.144531 6.046875 -13.84375 Z M 21.3125 -13.84375 "/></g></g></g><g fill="#000000" fill-opacity="1"><g transform="translate(1012.163317, 196.538569)"><g/></g></g><g fill="#000000" fill-opacity="1"><g transform="translate(1030.424706, 196.538569)"><g><path d="M 20.78125 -30.75 L 20.78125 -27.484375 L 7.40625 -27.484375 L 7.40625 -17.109375 L 18.265625 -17.109375 L 18.265625 -13.84375 L 7.40625 -13.84375 L 7.40625 0 L 3.390625 0 L 3.390625 -30.75 Z M 20.78125 -30.75 "/></g></g></g><g fill="#000000" fill-opacity="1"><g transform="translate(1059.139014, 196.538569)"><g><path d="M 13.9375 0.390625 C 11.675781 0.390625 9.625 -0.117188 7.78125 -1.140625 C 5.945312 -2.171875 4.503906 -3.632812 3.453125 -5.53125 C 2.410156 -7.425781 1.890625 -9.625 1.890625 -12.125 C 1.890625 -14.59375 2.425781 -16.773438 3.5 -18.671875 C 4.570312 -20.578125 6.035156 -22.035156 7.890625 -23.046875 C 9.742188 -24.054688 11.816406 -24.5625 14.109375 -24.5625 C 16.410156 -24.5625 18.484375 -24.054688 20.328125 -23.046875 C 22.179688 -22.035156 23.644531 -20.585938 24.71875 -18.703125 C 25.789062 -16.816406 26.328125 -14.625 26.328125 -12.125 C 26.328125 -9.625 25.773438 -7.425781 24.671875 -5.53125 C 23.578125 -3.632812 22.085938 -2.171875 20.203125 -1.140625 C 18.316406 -0.117188 16.226562 0.390625 13.9375 0.390625 Z M 13.9375 -3.125 C 15.375 -3.125 16.722656 -3.460938 17.984375 -4.140625 C 19.253906 -4.816406 20.28125 -5.832031 21.0625 -7.1875 C 21.84375 -8.539062 22.234375 -10.1875 22.234375 -12.125 C 22.234375 -14.070312 21.847656 -15.71875 21.078125 -17.0625 C 20.316406 -18.414062 19.316406 -19.421875 18.078125 -20.078125 C 16.847656 -20.742188 15.515625 -21.078125 14.078125 -21.078125 C 12.597656 -21.078125 11.25 -20.742188 10.03125 -20.078125 C 8.8125 -19.421875 7.832031 -18.414062 7.09375 -17.0625 C 6.363281 -15.71875 6 -14.070312 6 -12.125 C 6 -10.15625 6.359375 -8.492188 7.078125 -7.140625 C 7.796875 -5.785156 8.757812 -4.773438 9.96875 -4.109375 C 11.175781 -3.453125 12.5 -3.125 13.9375 -3.125 Z M 13.9375 -3.125 "/></g></g></g><g fill="#000000" fill-opacity="1"><g transform="translate(1093.8516, 196.538569)"><g><path d="M 7.40625 -20.25 C 8.113281 -21.625 9.117188 -22.691406 10.421875 -23.453125 C 11.734375 -24.222656 13.332031 -24.609375 15.21875 -24.609375 L 15.21875 -20.46875 L 14.15625 -20.46875 C 9.65625 -20.46875 7.40625 -18.023438 7.40625 -13.140625 L 7.40625 0 L 3.390625 0 L 3.390625 -24.171875 L 7.40625 -24.171875 Z M 7.40625 -20.25 "/></g></g></g><g fill="#000000" fill-opacity="1"><g transform="translate(1116.788113, 196.538569)"><g/></g></g><g fill="#000000" fill-opacity="1"><g transform="translate(1135.049491, 196.538569)"><g><path d="M 24.921875 -30.75 L 14.90625 -11.59375 L 14.90625 0 L 10.890625 0 L 10.890625 -11.59375 L 0.84375 -30.75 L 5.296875 -30.75 L 12.875 -15.171875 L 20.46875 -30.75 Z M 24.921875 -30.75 "/></g></g></g><g fill="#000000" fill-opacity="1"><g transform="translate(1167.2922, 196.538569)"><g><path d="M 13.9375 0.390625 C 11.675781 0.390625 9.625 -0.117188 7.78125 -1.140625 C 5.945312 -2.171875 4.503906 -3.632812 3.453125 -5.53125 C 2.410156 -7.425781 1.890625 -9.625 1.890625 -12.125 C 1.890625 -14.59375 2.425781 -16.773438 3.5 -18.671875 C 4.570312 -20.578125 6.035156 -22.035156 7.890625 -23.046875 C 9.742188 -24.054688 11.816406 -24.5625 14.109375 -24.5625 C 16.410156 -24.5625 18.484375 -24.054688 20.328125 -23.046875 C 22.179688 -22.035156 23.644531 -20.585938 24.71875 -18.703125 C 25.789062 -16.816406 26.328125 -14.625 26.328125 -12.125 C 26.328125 -9.625 25.773438 -7.425781 24.671875 -5.53125 C 23.578125 -3.632812 22.085938 -2.171875 20.203125 -1.140625 C 18.316406 -0.117188 16.226562 0.390625 13.9375 0.390625 Z M 13.9375 -3.125 C 15.375 -3.125 16.722656 -3.460938 17.984375 -4.140625 C 19.253906 -4.816406 20.28125 -5.832031 21.0625 -7.1875 C 21.84375 -8.539062 22.234375 -10.1875 22.234375 -12.125 C 22.234375 -14.070312 21.847656 -15.71875 21.078125 -17.0625 C 20.316406 -18.414062 19.316406 -19.421875 18.078125 -20.078125 C 16.847656 -20.742188 15.515625 -21.078125 14.078125 -21.078125 C 12.597656 -21.078125 11.25 -20.742188 10.03125 -20.078125 C 8.8125 -19.421875 7.832031 -18.414062 7.09375 -17.0625 C 6.363281 -15.71875 6 -14.070312 6 -12.125 C 6 -10.15625 6.359375 -8.492188 7.078125 -7.140625 C 7.796875 -5.785156 8.757812 -4.773438 9.96875 -4.109375 C 11.175781 -3.453125 12.5 -3.125 13.9375 -3.125 Z M 13.9375 -3.125 "/></g></g></g><g fill="#000000" fill-opacity="1"><g transform="translate(1202.004785, 196.538569)"><g><path d="M 24.828125 -24.171875 L 24.828125 0 L 20.8125 0 L 20.8125 -3.578125 C 20.050781 -2.335938 18.988281 -1.367188 17.625 -0.671875 C 16.257812 0.015625 14.75 0.359375 13.09375 0.359375 C 11.21875 0.359375 9.53125 -0.03125 8.03125 -0.8125 C 6.53125 -1.59375 5.34375 -2.757812 4.46875 -4.3125 C 3.601562 -5.875 3.171875 -7.773438 3.171875 -10.015625 L 3.171875 -24.171875 L 7.140625 -24.171875 L 7.140625 -10.546875 C 7.140625 -8.160156 7.742188 -6.328125 8.953125 -5.046875 C 10.160156 -3.765625 11.804688 -3.125 13.890625 -3.125 C 16.035156 -3.125 17.722656 -3.785156 18.953125 -5.109375 C 20.191406 -6.441406 20.8125 -8.367188 20.8125 -10.890625 L 20.8125 -24.171875 Z M 24.828125 -24.171875 "/></g></g></g><g fill="#000000" fill-opacity="1"><g transform="translate(1236.71737, 196.538569)"><g><path d="M 7.40625 -20.25 C 8.113281 -21.625 9.117188 -22.691406 10.421875 -23.453125 C 11.734375 -24.222656 13.332031 -24.609375 15.21875 -24.609375 L 15.21875 -20.46875 L 14.15625 -20.46875 C 9.65625 -20.46875 7.40625 -18.023438 7.40625 -13.140625 L 7.40625 0 L 3.390625 0 L 3.390625 -24.171875 L 7.40625 -24.171875 Z M 7.40625 -20.25 "/></g></g></g><g fill="#000000" fill-opacity="1"><g transform="translate(1259.653884, 196.538569)"><g><path d="M 11.953125 0.390625 C 10.097656 0.390625 8.4375 0.078125 6.96875 -0.546875 C 5.5 -1.179688 4.335938 -2.0625 3.484375 -3.1875 C 2.628906 -4.320312 2.160156 -5.628906 2.078125 -7.109375 L 6.21875 -7.109375 C 6.332031 -5.898438 6.894531 -4.910156 7.90625 -4.140625 C 8.925781 -3.378906 10.257812 -3 11.90625 -3 C 13.4375 -3 14.640625 -3.335938 15.515625 -4.015625 C 16.398438 -4.691406 16.84375 -5.546875 16.84375 -6.578125 C 16.84375 -7.628906 16.375 -8.410156 15.4375 -8.921875 C 14.5 -9.441406 13.046875 -9.953125 11.078125 -10.453125 C 9.273438 -10.921875 7.804688 -11.394531 6.671875 -11.875 C 5.546875 -12.363281 4.578125 -13.085938 3.765625 -14.046875 C 2.960938 -15.003906 2.5625 -16.257812 2.5625 -17.8125 C 2.5625 -19.050781 2.925781 -20.1875 3.65625 -21.21875 C 4.394531 -22.25 5.441406 -23.0625 6.796875 -23.65625 C 8.148438 -24.257812 9.691406 -24.5625 11.421875 -24.5625 C 14.097656 -24.5625 16.257812 -23.882812 17.90625 -22.53125 C 19.550781 -21.1875 20.4375 -19.335938 20.5625 -16.984375 L 16.546875 -16.984375 C 16.453125 -18.242188 15.941406 -19.253906 15.015625 -20.015625 C 14.085938 -20.785156 12.847656 -21.171875 11.296875 -21.171875 C 9.847656 -21.171875 8.695312 -20.859375 7.84375 -20.234375 C 7 -19.617188 6.578125 -18.8125 6.578125 -17.8125 C 6.578125 -17.019531 6.832031 -16.363281 7.34375 -15.84375 C 7.851562 -15.332031 8.5 -14.921875 9.28125 -14.609375 C 10.0625 -14.304688 11.144531 -13.960938 12.53125 -13.578125 C 14.257812 -13.109375 15.664062 -12.644531 16.75 -12.1875 C 17.84375 -11.738281 18.78125 -11.054688 19.5625 -10.140625 C 20.34375 -9.234375 20.75 -8.046875 20.78125 -6.578125 C 20.78125 -5.253906 20.410156 -4.0625 19.671875 -3 C 18.929688 -1.9375 17.894531 -1.101562 16.5625 -0.5 C 15.226562 0.09375 13.691406 0.390625 11.953125 0.390625 Z M 11.953125 0.390625 "/></g></g></g><g fill="#000000" fill-opacity="1"><g transform="translate(1289.162057, 196.538569)"><g><path d="M 25.453125 -13.015625 C 25.453125 -12.242188 25.40625 -11.4375 25.3125 -10.59375 L 6 -10.59375 C 6.144531 -8.207031 6.957031 -6.34375 8.4375 -5 C 9.925781 -3.664062 11.726562 -3 13.84375 -3 C 15.582031 -3 17.03125 -3.398438 18.1875 -4.203125 C 19.351562 -5.015625 20.171875 -6.097656 20.640625 -7.453125 L 24.96875 -7.453125 C 24.320312 -5.128906 23.023438 -3.238281 21.078125 -1.78125 C 19.140625 -0.332031 16.726562 0.390625 13.84375 0.390625 C 11.550781 0.390625 9.5 -0.117188 7.6875 -1.140625 C 5.882812 -2.171875 4.46875 -3.632812 3.4375 -5.53125 C 2.40625 -7.425781 1.890625 -9.625 1.890625 -12.125 C 1.890625 -14.625 2.390625 -16.816406 3.390625 -18.703125 C 4.390625 -20.585938 5.796875 -22.035156 7.609375 -23.046875 C 9.421875 -24.054688 11.5 -24.5625 13.84375 -24.5625 C 16.144531 -24.5625 18.175781 -24.0625 19.9375 -23.0625 C 21.695312 -22.0625 23.054688 -20.6875 24.015625 -18.9375 C 24.972656 -17.195312 25.453125 -15.222656 25.453125 -13.015625 Z M 21.3125 -13.84375 C 21.3125 -15.375 20.972656 -16.691406 20.296875 -17.796875 C 19.617188 -18.898438 18.695312 -19.738281 17.53125 -20.3125 C 16.375 -20.882812 15.085938 -21.171875 13.671875 -21.171875 C 11.640625 -21.171875 9.910156 -20.523438 8.484375 -19.234375 C 7.066406 -17.941406 6.253906 -16.144531 6.046875 -13.84375 Z M 21.3125 -13.84375 "/></g></g></g><g fill="#000000" fill-opacity="1"><g transform="translate(1322.992555, 196.538569)"><g><path d="M 7.40625 -32.640625 L 7.40625 0 L 3.390625 0 L 3.390625 -32.640625 Z M 7.40625 -32.640625 "/></g></g></g><g fill="#000000" fill-opacity="1"><g transform="translate(1340.32773, 196.538569)"><g><path d="M 13.234375 -20.859375 L 8.15625 -20.859375 L 8.15625 0 L 4.140625 0 L 4.140625 -20.859375 L 1.015625 -20.859375 L 1.015625 -24.171875 L 4.140625 -24.171875 L 4.140625 -25.890625 C 4.140625 -28.597656 4.835938 -30.578125 6.234375 -31.828125 C 7.640625 -33.078125 9.882812 -33.703125 12.96875 -33.703125 L 12.96875 -30.34375 C 11.207031 -30.34375 9.960938 -30 9.234375 -29.3125 C 8.515625 -28.625 8.15625 -27.484375 8.15625 -25.890625 L 8.15625 -24.171875 L 13.234375 -24.171875 Z M 13.234375 -20.859375 "/></g></g></g><g fill="#000000" fill-opacity="1"><g transform="translate(1361.323644, 196.538569)"><g><path d="M 4.671875 0.265625 C 3.910156 0.265625 3.265625 0 2.734375 -0.53125 C 2.203125 -1.0625 1.9375 -1.707031 1.9375 -2.46875 C 1.9375 -3.226562 2.203125 -3.875 2.734375 -4.40625 C 3.265625 -4.9375 3.910156 -5.203125 4.671875 -5.203125 C 5.410156 -5.203125 6.035156 -4.9375 6.546875 -4.40625 C 7.066406 -3.875 7.328125 -3.226562 7.328125 -2.46875 C 7.328125 -1.707031 7.066406 -1.0625 6.546875 -0.53125 C 6.035156 0 5.410156 0.265625 4.671875 0.265625 Z M 4.671875 0.265625 "/></g></g></g></svg>