<svg version="1.2" xmlns="http://www.w3.org/2000/svg" viewBox="0 0 2345 1920" width="2345" height="1920">
	<title>66885</title>
	<style>
		.s0 { fill: #18609e } 
		.s1 { fill: #0d477f } 
		.s2 { fill: #fefefe } 
		.s3 { fill: #cdc9c8 } 
		.s4 { fill: #bab4b3 } 
		.s5 { fill: #6ecde8 } 
		.s6 { fill: #3ebfe2 } 
		.s7 { fill: #8dd5ea } 
		.s8 { fill: #1b4e8a } 
		.s9 { fill: #0890cf } 
		.s10 { fill: #d6d3d2 } 
		.s11 { fill: #9bdaeb } 
		.s12 { fill: #35c5e7 } 
		.s13 { fill: #f69c8c } 
		.s14 { fill: #58bcdf } 
		.s15 { fill: #383c3f } 
		.s16 { fill: #f5907b } 
		.s17 { fill: #03103b } 
		.s18 { fill: #e4e2e1 } 
		.s19 { fill: #48c7e7 } 
		.s20 { fill: #a8a2a0 } 
		.s21 { fill: #1c568e } 
	</style>
	<g id="Capa 1">
		<g id="Folder 1">
			<path id="&lt;Path&gt;" class="s0" d="m1608.8 1525.1c0 8.1-6.7 14.7-14.9 14.7h-831.7c-8.2 0-14.9-6.6-14.9-14.7v-1038.8c0-8.1 6.7-14.7 14.9-14.7h831.7c8.2 0 14.9 6.6 14.9 14.7z"/>
			<path id="&lt;Path&gt;" class="s1" d="m1580.2 1512h-739.8v-930.9h739.8z"/>
			<path id="&lt;Path&gt;" class="s2" d="m1548 1472.8h-739.9v-930.9h739.9z"/>
			<path id="&lt;Path&gt;" class="s3" d="m1284.2 463.5v-53.9c0-11.2-9.1-20.3-20.3-20.3h-167c-11.2 0-20.3 9.1-20.3 20.3v53.9z"/>
			<path id="&lt;Compound Path&gt;" fill-rule="evenodd" class="s3" d="m1250.8 351c0 38.9-31.5 70.4-70.4 70.4-38.9 0-70.4-31.5-70.4-70.4 0-38.9 31.5-70.4 70.4-70.4 38.9 0 70.4 31.5 70.4 70.4zm-37.6 0c0-18.1-14.7-32.8-32.8-32.8-18.1 0-32.8 14.7-32.8 32.8 0 18.1 14.7 32.8 32.8 32.8 18.1 0 32.8-14.7 32.8-32.8z"/>
			<path id="&lt;Path&gt;" class="s3" d="m1451.9 567.5c-0.9-58.6-43.2-105.8-95.3-105.8h-352.4c-52.1 0-94.4 47.2-95.3 105.8z"/>
			<path id="&lt;Path&gt;" class="s2" d="m1037.6 461.7h-28.6v82.2h28.6z"/>
			<path id="&lt;Path&gt;" class="s2" d="m1068.8 461.7h-18.2v82.2h18.2z"/>
			<path id="&lt;Path&gt;" class="s4" d="m912 542.3c-1.8 8.1-3 16.5-3.1 25.2h543c-0.1-8.7-1.3-17.1-3.1-25.2z"/>
			<path id="&lt;Path&gt;" class="s5" d="m1170.1 788.8c0 85.8-69.6 155.4-155.4 155.4-85.8 0-155.4-69.6-155.4-155.4 0-85.9 69.6-155.4 155.4-155.4 85.8 0 155.4 69.5 155.4 155.4z"/>
			<path id="&lt;Path&gt;" class="s2" d="m1124.1 752.1h-72.7v-72.7h-73.4v72.7h-72.7v73.4h72.7v72.7h73.4v-72.7h72.7z"/>
			<path id="&lt;Path&gt;" class="s3" d="m1502.2 661.9h-265.8v-22.6h265.8z"/>
			<path id="&lt;Path&gt;" class="s3" d="m1502.2 736.6h-265.8v-22.5h265.8z"/>
			<path id="&lt;Path&gt;" class="s3" d="m1502.2 811.4h-265.8v-22.6h265.8z"/>
			<path id="&lt;Path&gt;" class="s3" d="m1502.2 886.1h-265.8v-22.6h265.8z"/>
			<path id="&lt;Path&gt;" class="s3" d="m1502.2 960.8h-265.8v-22.6h265.8z"/>
			<path id="&lt;Path&gt;" class="s3" d="m1502.2 1035.5h-643.6v-22.6h643.6z"/>
			<path id="&lt;Path&gt;" class="s3" d="m1502.2 1110.2h-643.6v-22.5h643.6z"/>
			<path id="&lt;Path&gt;" class="s3" d="m1502.2 1185h-643.6v-22.6h643.6z"/>
			<path id="&lt;Path&gt;" class="s3" d="m1502.2 1259.7h-643.6v-22.6h643.6z"/>
			<path id="&lt;Path&gt;" class="s3" d="m1502.2 1334.4h-643.6v-22.6h643.6z"/>
			<path id="&lt;Path&gt;" class="s3" d="m1502.2 1409.1h-643.6v-22.6h643.6z"/>
			<path id="&lt;Path&gt;" class="s5" d="m1592.6 1359.8l-15-63.4 7.5 31.7-7.6-31.7c7.4-1.8 180.9-46.3 149.2-234.4-24.6-146.3-144.4-162.9-145.7-163.1l8.1-64.6c58.4 7.3 175.7 62 201.8 216.9 21.9 129.7-33.6 207.2-84.1 249.3-53.4 44.5-111.8 58.7-114.2 59.3z"/>
			<path id="&lt;Path&gt;" class="s6" d="m1790.9 1051.2c-26.1-154.9-143.4-209.6-201.8-216.9l-2.1 17c61.8 14.7 159.5 69.8 183 202.3 21.9 123-33.7 196.4-84.1 236.3-36.8 29.2-76.1 44.6-97.7 51.5l4.4 18.4c2.4-0.6 60.8-14.8 114.2-59.3 50.5-42.1 106-119.6 84.1-249.3z"/>
			<path id="&lt;Path&gt;" class="s7" d="m1745.9 1061.8c-24.6-153.1-144.4-170.5-145.6-170.6l4.5-37.5c-6.2-1.7-12.1-3-17.6-3.9l-6.2 49.1c1.2 0.2 121.1 16.8 145.7 163.1 31.7 188.1-141.8 232.6-149.2 234.4l7.6 31.7-7.5-31.7 11.2 47.5c3.6-0.9 8.8-2.5 15.3-4.7l-7.4-32.3c7.4-1.8 180.9-48.4 149.2-245.1z"/>
			<path id="&lt;Path&gt;" class="s7" d="m1613.3 1353.4l-7.3-34.2z"/>
			<path id="&lt;Path&gt;" class="s5" d="m1704.5 1463.7l-84.4-97.2-74.8 33 55.3 64.2z"/>
			<path id="&lt;Path&gt;" class="s6" d="m1667.6 1463.7h36.9l-84.4-97.2-26.8 11.8z"/>
			<path id="&lt;Path&gt;" class="s5" d="m1549.7 700.7l-164.8 321.6c-2.2 4.4-1 9.6 2.7 11.5l74 37.9c3.7 1.9 8.6-0.2 10.8-4.6l164.8-321.5z"/>
			<path id="&lt;Path&gt;" class="s0" d="m1401 1040.7l-10.9 21.3c-1.1 2.2-0.3 5 2 6.1l39 20c2.2 1.1 4.9 0.3 6.1-1.9l10.9-21.4z"/>
			<path id="&lt;Path&gt;" class="s5" d="m1627.1 740.4l18.9-36.7c1.1-2.2 0.2-4.9-2-6.1l-60.1-30.8c-2.2-1.1-4.9-0.2-6.1 2l-18.8 36.7z"/>
			<path id="&lt;Path&gt;" class="s0" d="m1642.4 697l9.8-19c1.1-2.2 0.2-4.9-2-6.1l-49.1-25.1c-2.2-1.1-4.9-0.3-6 1.9l-9.8 19.1z"/>
			<path id="&lt;Path&gt;" class="s7" d="m1567 709.6l-168.8 329.6 15 7.7 168.9-329.6z"/>
			<path id="&lt;Path&gt;" class="s6" d="m1605.1 729.1l-168.8 329.6 25.3 13c3.7 1.9 8.6-0.2 10.8-4.6l164.8-321.5z"/>
			<path id="&lt;Path&gt;" class="s0" d="m1493.2 1037.7c-1.1 2.2-3.9 3.1-6.1 1.9l-89.1-45.6c-2.2-1.1-3.1-3.9-2-6.1l1.2-2.3c1.2-2.2 3.9-3.1 6.2-1.9l89 45.6c2.2 1.1 3.1 3.9 2 6.1z"/>
			<path id="&lt;Path&gt;" class="s0" d="m1641 749.2c-1.1 2.2-3.9 3-6.1 1.9l-89-45.6c-2.3-1.2-3.2-3.9-2.1-6.1l1.2-2.3c1.2-2.3 3.9-3.1 6.2-2l89 45.6c2.2 1.2 3.1 3.9 2 6.1z"/>
			<path id="&lt;Path&gt;" class="s6" d="m1522.5 1321.4l-8.5 18.7-257.9-117.5 8.5-18.7z"/>
			<path id="&lt;Path&gt;" class="s8" d="m1637.6 1345.3c0 38.2-31 69.2-69.3 69.2-38.2 0-69.2-31-69.2-69.2 0-38.3 31-69.3 69.2-69.3 38.3 0 69.3 31 69.3 69.3z"/>
			<path id="&lt;Path&gt;" class="s0" d="m1624.9 1345.3c0 31.2-25.3 56.5-56.6 56.5-31.2 0-56.5-25.3-56.5-56.5 0-31.3 25.3-56.6 56.5-56.6 31.3 0 56.6 25.3 56.6 56.6z"/>
			<path id="&lt;Path&gt;" class="s9" d="m1605.9 1345.3c0 20.7-16.8 37.5-37.6 37.5-20.7 0-37.5-16.8-37.5-37.5 0-20.8 16.8-37.6 37.5-37.6 20.8 0 37.6 16.8 37.6 37.6z"/>
			<path id="&lt;Path&gt;" class="s8" d="m1637.7 868.3c0 32-26 58-58 58-32 0-58-26-58-58 0-32 26-58 58-58 32 0 58 26 58 58z"/>
			<path id="&lt;Path&gt;" class="s0" d="m1627.1 868.3c0 26.2-21.2 47.4-47.4 47.4-26.2 0-47.4-21.2-47.4-47.4 0-26.2 21.2-47.4 47.4-47.4 26.2 0 47.4 21.2 47.4 47.4z"/>
			<path id="&lt;Path&gt;" class="s9" d="m1611.1 868.3c0 17.4-14 31.5-31.4 31.5-17.4 0-31.4-14.1-31.4-31.5 0-17.4 14-31.4 31.4-31.4 17.4 0 31.4 14 31.4 31.4z"/>
			<path id="&lt;Path&gt;" class="s0" d="m1780.5 1538v-65.2c0-6-5-10.8-11.3-10.8h-459.2c-6.2 0-11.3 4.8-11.3 10.8v65.2z"/>
			<path id="&lt;Path&gt;" class="s8" d="m1298.7 1515.3v22.7h481.8v-22.7z"/>
			<path id="&lt;Path&gt;" class="s2" d="m1837.4 1242.2c0-4.3 9.6-13.8 9.6-29 0-34.3-22.5-45.3-22.5-54.8 0-15.7-0.6-59.9-0.7-74.1-0.1-14.3-11.2-25.9-25.3-26.5-14.1 0.6-25.3 12.2-25.4 26.5-0.1 14.2-0.7 58.4-0.7 74.1 0 9.5-22.5 20.5-22.5 54.8 0 15.2 9.6 24.7 9.6 29 0 7.7-9.7 7.6-9.7 29.1v258.6c0 5.1 4.1 9.2 9.1 9.2h79.1c5 0 9.1-4.1 9.1-9.2v-258.6c0-21.5-9.7-21.4-9.7-29.1z"/>
			<path id="&lt;Path&gt;" class="s10" d="m1830.4 1240.3c0-3.9 7.9-12.1 7.9-25.4 0-30-20.3-39.7-20.3-48 0-13.7-0.5-66.6-0.6-79.1-0.1-12.5-7.4-22.6-18.9-23.2-11.6 0.6-19.2 10.7-19.3 23.2-0.1 12.5-0.6 65.4-0.6 79.1 0 8.3-20 18-20 48 0 13.3 7.9 21.5 7.9 25.4 0 6.7-8 6.6-8 25.4v256.6c0 4.4 3.4 8 7.5 8h64.9c4.1 0 7.5-3.6 7.5-8v-256.6c0-18.8-8-18.7-8-25.4z"/>
			<path id="&lt;Path&gt;" class="s2" d="m1817.4 1324.3v-236.5c-0.1-9.3-4.2-17.4-11.1-21.1v257.6z"/>
			<path id="&lt;Path&gt;" class="s3" d="m1796.1 1064.9c-10.2 1.7-16.8 11.3-16.9 22.9-0.1 12.5-0.6 65.4-0.6 79.1 0 8.3-20 18-20 48 0 13.3 7.9 21.5 7.9 25.4 0 6.7-8 6.6-8 25.4v256.6c0 4.4 3.4 8 7.5 8h30.1z"/>
			<path id="&lt;Path&gt;" class="s5" d="m1768.2 1324.2v190.9c0 3.7 2.5 6.7 5.6 6.7h49.3c3.1 0 5.7-3 5.7-6.7v-190.9z"/>
			<path id="&lt;Path&gt;" class="s4" d="m1758.6 1215.6c0.3 11.5 6.3 19.2 7.6 23.3h64.5c1.3-4.1 7.3-11.8 7.6-23.3z"/>
			<path id="&lt;Path&gt;" class="s11" d="m1818.2 1324.2h-12.2v197.6h12.2z"/>
			<path id="&lt;Path&gt;" class="s12" d="m1795.4 1324.2h-27.2v190.9c0 3.7 2.5 6.7 5.6 6.7h21.6z"/>
			<path id="&lt;Path&gt;" class="s2" d="m1931 1242.2c0-4.3 9.6-13.8 9.6-29 0-34.3-22.6-45.3-22.6-54.8 0-15.7-0.6-59.9-0.7-74.1-0.1-14.3-11.2-25.9-25.3-26.5-14.1 0.6-25.2 12.2-25.4 26.5-0.1 14.2-0.7 58.4-0.7 74.1 0 9.5-22.5 20.5-22.5 54.8 0 15.2 9.6 24.7 9.6 29 0 7.7-9.7 7.6-9.7 29.1v258.6c0 5.1 4.1 9.2 9.2 9.2h79c5 0 9.1-4.1 9.1-9.2v-258.6c0-21.5-9.6-21.4-9.6-29.1z"/>
			<path id="&lt;Path&gt;" class="s10" d="m1924 1240.3c0-3.9 7.9-12.1 7.9-25.4 0-30-20.4-39.7-20.4-48 0-13.7-0.5-66.6-0.6-79.1-0.1-12.5-7.4-22.6-18.9-23.2-11.6 0.6-19.2 10.7-19.3 23.2-0.1 12.5-0.6 65.4-0.6 79.1 0 8.3-20 18-20 48 0 13.3 7.9 21.5 7.9 25.4 0 6.7-8 6.6-8 25.4v256.6c0 4.4 3.4 8 7.5 8h64.9c4.2 0 7.5-3.6 7.5-8v-256.6c0-18.8-7.9-18.7-7.9-25.4z"/>
			<path id="&lt;Path&gt;" class="s2" d="m1910.9 1324.3v-236.5c0-9.3-4.2-17.4-11.1-21.1v257.6z"/>
			<path id="&lt;Path&gt;" class="s3" d="m1889.7 1064.9c-10.3 1.7-16.9 11.3-17 22.9-0.1 12.5-0.6 65.4-0.6 79.1 0 8.3-20 18-20 48 0 13.3 7.9 21.5 7.9 25.4 0 6.7-8 6.6-8 25.4v256.6c0 4.4 3.4 8 7.5 8h30.2z"/>
			<path id="&lt;Path&gt;" class="s5" d="m1861.7 1324.2v190.9c0 3.7 2.5 6.7 5.7 6.7h49.2c3.1 0 5.7-3 5.7-6.7v-190.9z"/>
			<path id="&lt;Path&gt;" class="s4" d="m1852.1 1215.6c0.3 11.5 6.3 19.2 7.6 23.3h64.5c1.3-4.1 7.4-11.8 7.6-23.3z"/>
			<path id="&lt;Path&gt;" class="s11" d="m1911.7 1324.2h-12.2v197.6h12.2z"/>
			<path id="&lt;Path&gt;" class="s12" d="m1888.9 1324.2h-27.2v190.9c0 3.7 2.5 6.7 5.7 6.7h21.5z"/>
			<path id="&lt;Path&gt;" class="s2" d="m2028.2 1242.2c0-4.3 9.6-13.8 9.6-29 0-34.3-22.5-45.3-22.5-54.8 0-15.7-0.6-59.9-0.7-74.1-0.1-14.3-11.2-25.9-25.3-26.5-14.1 0.6-25.2 12.2-25.4 26.5-0.1 14.2-0.7 58.4-0.7 74.1 0 9.5-22.5 20.5-22.5 54.8 0 15.2 9.6 24.7 9.6 29 0 7.7-9.7 7.6-9.7 29.1v258.6c0 5.1 4.1 9.2 9.1 9.2h79.1c5 0 9.1-4.1 9.1-9.2v-258.6c0-21.5-9.7-21.4-9.7-29.1z"/>
			<path id="&lt;Path&gt;" class="s10" d="m2021.3 1240.3c0-3.9 7.8-12.1 7.8-25.4 0-30-20.3-39.7-20.3-48 0-13.7-0.5-66.6-0.6-79.1-0.1-12.5-7.4-22.6-18.9-23.2-11.6 0.6-19.2 10.7-19.3 23.2-0.1 12.5-0.6 65.4-0.6 79.1 0 8.3-20 18-20 48 0 13.3 7.9 21.5 7.9 25.4 0 6.7-8 6.6-8 25.4v256.6c0 4.4 3.4 8 7.5 8h64.9c4.1 0 7.5-3.6 7.5-8v-256.6c0-18.8-7.9-18.7-7.9-25.4z"/>
			<path id="&lt;Path&gt;" class="s2" d="m2008.2 1324.3v-236.5c0-9.3-4.2-17.4-11.1-21.1v257.6z"/>
			<path id="&lt;Path&gt;" class="s3" d="m1986.9 1064.9c-10.2 1.7-16.8 11.3-16.9 22.9-0.1 12.5-0.6 65.4-0.6 79.1 0 8.3-20 18-20 48 0 13.3 7.9 21.5 7.9 25.4 0 6.7-8 6.6-8 25.4v256.6c0 4.4 3.4 8 7.5 8h30.1z"/>
			<path id="&lt;Path&gt;" class="s5" d="m1959 1324.2v190.9c0 3.7 2.5 6.7 5.7 6.7h49.2c3.1 0 5.7-3 5.7-6.7v-190.9z"/>
			<path id="&lt;Path&gt;" class="s4" d="m1949.4 1215.6c0.3 11.5 6.3 19.2 7.6 23.3h64.5c1.3-4.1 7.3-11.8 7.6-23.3z"/>
			<path id="&lt;Path&gt;" class="s11" d="m2009 1324.2h-12.2v197.6h12.2z"/>
			<path id="&lt;Path&gt;" class="s12" d="m1986.2 1324.2h-27.2v190.9c0 3.7 2.5 6.7 5.7 6.7h21.5z"/>
			<path id="&lt;Path&gt;" class="s2" d="m855.5 1022l174.8-47.6-2.9-10.7-174.8 47.7"/>
			<path id="&lt;Path&gt;" class="s13" d="m733 1020.6c0 0 22.6-5.4 35 7.7 12.4 13.1 3.6 45.4-9 32.9-12.5-12.5-13.4-14.8-18.8-13.8-11.9 2.3-16.3-4.5-16.3-4.5z"/>
			<path id="&lt;Path&gt;" class="s2" d="m546.1 883.7c0 0 6.4 68 64.2 115.3 36 29.4 114.6 51.7 114.6 51.7 6.2-13.3 15.9-37.4 15.9-37.4 0 0-77.6-29.3-91.9-46.7-14.3-17.4-69.6-78.8-102.8-82.9z"/>
			<path id="&lt;Path&gt;" class="s14" d="m450.2 1086c0 0 1.6 23.3 5 41.5 2 10.5 58.1 24.1 78.6 22.3 24.2-2.1 53.9-18 57.1-27.2 0 0 0.7-20.4-2.7-43.7z"/>
			<path id="&lt;Path&gt;" class="s14" d="m537.1 1142.4c0 0-9.1 118.2-19.8 146.3-10.7 28.2-120.1 156-154.1 183.2l-34.4-40.2c0 0 99.8-132.7 111.2-166.7 11.4-33.9 12.8-152.6 12.8-152.6z"/>
			<path id="&lt;Path&gt;" class="s14" d="m522.4 1144.4c0 0 53.3 149.8 58.5 185.3 7.8 54.3 18.8 183.2 18.8 183.2h52.4c0 0-4.3-181.7-10.1-200.9-5.8-19.3-52.3-220.9-52.3-220.9z"/>
			<path id="&lt;Path&gt;" class="s5" d="m514.3 880.3c0 0-46.5 7.5-66.1 25.2-12.6 11.4-10.6 186.5-0.5 208.9 4.4 9.7 108.8 12.9 146.9-2 0 0 8.7-158.5-3.7-187-16.2-37.6-50-45.1-50-45.1z"/>
			<path id="&lt;Path&gt;" class="s15" d="m365.8 1468.7c0 0 23.1 26.2 16.2 40.1-9 18.1-24.9 1.8-24.9 1.8l-53.2-55 25.5-24.4c13 13.4 36.4 37.5 36.4 37.5z"/>
			<path id="&lt;Path&gt;" class="s15" d="m651.5 1508.8c0 0 34.8 1.7 40 16.3 6.7 19-16.1 19.1-16.1 19.1l-76.5-0.1 0.3-35.3c18.7 0 52.3 0 52.3 0z"/>
			<path id="&lt;Path&gt;" class="s16" d="m507.3 858.9c0 0 0.9 12.5-4.8 24.8 0 0 7.8 29.4 22.7 29.4 11.6 0 21.7-29.4 21.7-29.4 0 0-6.3-9.7-4.8-20.3z"/>
			<path id="&lt;Path&gt;" class="s13" d="m567.9 813.8c1.5 30.1-15.5 58.9-40.6 60.2-18.9 0.9-42.1-25.9-43.6-56-1.5-30.1 11.3-48.6 36.4-49.9 25.1-1.2 46.3 15.5 47.8 45.7z"/>
			<path id="&lt;Path&gt;" class="s17" d="m507.7 820c0 0 50.9-1.4 59.1-23.2 7.9-21.1-39.6-40.3-60.9-30.3-21.2 10-42.7 48.5-10.6 88.2 0 0 13-13.9 12.4-34.7z"/>
			<path id="&lt;Path&gt;" class="s13" d="m517.4 828.3c-0.7 6.2-5 10.9-9.5 10.4-4.4-0.5-7.5-6-6.8-12.2 0.7-6.3 4.9-10.9 9.4-10.4 4.5 0.5 7.5 5.9 6.9 12.2z"/>
			<path id="&lt;Path&gt;" class="s17" d="m503.8 755.5c8.5 7.6 6.3 19.4-2.1 28.9-8.5 9.5-20 13.1-28.5 5.5-8.6-7.6-10.8-23.4-2.4-32.9 8.5-9.5 24.5-9.1 33-1.5z"/>
			<path id="&lt;Path&gt;" class="s2" d="m497.3 883.9c-15.3 3.8-37.1 10.8-49.1 21.6-12.6 11.4-15.3 272.1-15.3 317.3 0 12 19.2 36.6 57.2 29.4 0 0 13 5 12.6-81.1-0.1-26.4-4-42.1-5.4-287.2z"/>
			<path id="&lt;Path&gt;" class="s2" d="m590.9 925.4c-11.4-26.4-31.4-37.9-42.3-42.5 0 0-11.5 229 26.2 353.5 5.3 17.5 43.3 5.4 50.7-14.7 0 0-22.2-267.8-34.6-296.3z"/>
			<path id="&lt;Path&gt;" class="s2" d="m358.8 1219.4l441-130c1.8-0.5 2.9-2.3 2.4-4.1l-27.6-101.9c-0.5-1.8-2.4-2.8-4.2-2.3l-440.9 129.9z"/>
			<path id="&lt;Path&gt;" class="s18" d="m356.9 1212.2l434.1-128.1c1.9-0.5 2.9-2.3 2.5-4.1l-23.6-87c-0.5-1.8-2.4-2.9-4.2-2.4l-434.1 128.2z"/>
			<path id="&lt;Path&gt;" class="s2" d="m802.2 1006.8l-19.9 5.4 12 44.4 19.9-5.4z"/>
			<path id="&lt;Path&gt;" class="s0" d="m817.7 1051.5c0 0 18.1-8.3 27.4-13.9 11.4-7 19.1-12.6 16.3-23-2.6-9.6-10.6-12.1-26.4-11.5-9.6 0.4-30 1.7-30 1.7z"/>
			<path id="&lt;Path&gt;" class="s2" d="m301.1 1142.3l17.5 64.5-116.2 31.5-17.5-64.5z"/>
			<path id="&lt;Path&gt;" class="s3" d="m193.6 1205.9l8.8 32.4 116.2-31.5-8.8-32.4z"/>
			<path id="&lt;Path&gt;" class="s10" d="m180.6 1157.4c1.8-0.5 3.7 0.6 4.1 2.4l24.6 90.6c0.5 1.8-0.6 3.7-2.4 4.2l-15.4 4.1c-1.8 0.5-3.6-0.5-4.1-2.3l-24.6-90.7c-0.5-1.7 0.6-3.6 2.4-4.1z"/>
			<path id="&lt;Path&gt;" class="s10" d="m317.3 1090.5c3.6-1 7.3 1.1 8.3 4.7l37.9 139.8c1 3.6-1.1 7.3-4.7 8.3l-21.7 5.9c-3.6 0.9-7.3-1.2-8.3-4.8l-37.9-139.8c-0.9-3.6 1.2-7.3 4.8-8.2z"/>
			<path id="&lt;Path&gt;" class="s3" d="m570.9 1117.2l-220.7 70.2 3.2 11.8 220.7-70.2z"/>
			<path id="&lt;Path&gt;" class="s5" d="m577.4 1141.4l213.6-57.9c1.8-0.5 2.8-2.3 2.3-4.1l-23.4-86.4c-0.5-1.8-2.3-2.9-4.1-2.4l-213.6 57.9z"/>
			<path id="&lt;Path&gt;" class="s19" d="m571 1117.6l3.1 11.4 216.7-58.8-3.1-11.4z"/>
			<path id="&lt;Path&gt;" class="s20" d="m552.2 1048.5l25.4 93.5-14.5 3.9-25.4-93.5z"/>
			<path id="&lt;Path&gt;" class="s15" d="m747.5 1003.4c1.2-0.4 2.5 0.4 2.9 1.6l7.3 27.1c0.4 1.3-0.4 2.6-1.7 3-1.2 0.3-2.5-0.4-2.9-1.7l-7.3-27.1c-0.4-1.3 0.4-2.6 1.7-2.9z"/>
			<path id="&lt;Path&gt;" class="s15" d="m662.7 1026.3c1.3-0.3 2.6 0.4 2.9 1.7l7.4 27.1c0.3 1.3-0.4 2.6-1.7 2.9-1.3 0.4-2.6-0.4-2.9-1.6l-7.4-27.1c-0.3-1.3 0.4-2.6 1.7-3z"/>
			<path id="&lt;Path&gt;" class="s15" d="m634.5 1034c1.3-0.3 2.6 0.4 2.9 1.7l7.3 27.1c0.4 1.2-0.4 2.6-1.6 2.9-1.3 0.3-2.6-0.4-3-1.7l-7.3-27.1c-0.3-1.2 0.4-2.6 1.7-2.9z"/>
			<path id="&lt;Path&gt;" class="s15" d="m578 1049.3c1.3-0.3 2.6 0.4 2.9 1.7l7.4 27.1c0.3 1.3-0.5 2.6-1.7 2.9-1.3 0.4-2.6-0.4-2.9-1.7l-7.4-27.1c-0.3-1.2 0.4-2.5 1.7-2.9z"/>
			<path id="&lt;Path&gt;" class="s15" d="m523.2 1064.2c1.3-0.4 2.6 0.4 2.9 1.6l7.4 27.1c0.3 1.3-0.4 2.6-1.7 3-1.3 0.3-2.6-0.4-2.9-1.7l-7.4-27.1c-0.3-1.3 0.4-2.6 1.7-2.9z"/>
			<path id="&lt;Path&gt;" class="s15" d="m719.2 1011c1.3-0.3 2.6 0.4 2.9 1.7l7.4 27.1c0.3 1.3-0.4 2.6-1.7 2.9-1.3 0.4-2.6-0.4-2.9-1.7l-7.4-27c-0.3-1.3 0.4-2.6 1.7-3z"/>
			<path id="&lt;Path&gt;" class="s15" d="m691 1018.7c1.2-0.4 2.5 0.4 2.9 1.7l9.8 36.3c0.4 1.3-0.4 2.6-1.6 3-1.3 0.3-2.6-0.5-3-1.7l-9.8-36.4c-0.4-1.3 0.4-2.6 1.7-2.9z"/>
			<path id="&lt;Path&gt;" class="s15" d="m606.2 1041.7c1.3-0.4 2.6 0.4 3 1.6l9.8 36.4c0.4 1.3-0.4 2.6-1.7 2.9-1.2 0.4-2.5-0.4-2.9-1.7l-9.8-36.3c-0.4-1.3 0.4-2.6 1.6-2.9z"/>
			<path id="&lt;Path&gt;" class="s15" d="m494.8 1071.9c1.3-0.4 2.6 0.4 2.9 1.6l9.9 36.4c0.3 1.3-0.4 2.6-1.7 2.9-1.3 0.4-2.6-0.4-2.9-1.6l-9.9-36.4c-0.3-1.3 0.4-2.6 1.7-2.9z"/>
			<path id="&lt;Path&gt;" class="s21" d="m811.4 1028.3l6.3 23.2c0 0 18.1-8.3 27.4-13.9 11.3-6.9 19-12.6 16.3-22.9z"/>
			<path id="&lt;Path&gt;" class="s0" d="m807.7 1000.6c1.8-0.5 3.7 0.6 4.2 2.4l12.6 46.5c0.5 1.8-0.6 3.7-2.4 4.1l-4.2 1.2c-1.8 0.5-3.7-0.6-4.2-2.4l-12.6-46.5c-0.5-1.8 0.6-3.7 2.4-4.1z"/>
			<path id="&lt;Path&gt;" class="s15" d="m547.1 1049.9l25.4 93.5-4.3 1.1-25.3-93.5z"/>
			<path id="&lt;Path&gt;" class="s13" d="m406.2 1105.4c0 0 15.1 17.6 9.1 34.6-6 17-38.9 23.9-33.4 7 5.4-16.8 7.1-18.6 3.7-23-7.5-9.5-3.4-16.6-3.4-16.6z"/>
			<path id="&lt;Path&gt;" class="s2" d="m451.5 902.6c0 0-60.4 30.3-75.2 114.3-8 45.7-0.6 95-0.6 95 14.6-0.6 40.5-2.9 40.5-2.9 0 0-6.9-61.3 2.1-81.9 9-20.6 46.9-99.7 33.2-124.5z"/>
		</g>
	</g>
</svg>