<svg version="1.2" xmlns="http://www.w3.org/2000/svg" viewBox="0 0 500 500" width="500" height="500">
	<title>13186454_5167170</title>
	<defs>
		<clipPath clipPathUnits="userSpaceOnUse" id="cp1">
			<path d="m456.13 373.15c-2.4-18.23-41.32-42.33-55.19-52.02l-43.7 43.84-17.07-40.11c-13.13 7.05-34.18 20.39-39.16 35.6-7.37 22.51-5.09 139.54-5.09 139.54h146.3c0 0 1.64-35.17 1.64-50.31 0-15.14 15.14-54.85 12.27-76.54z"/>
		</clipPath>
	</defs>
	<style>
		.s0 { fill: none;stroke: #2c54ac;stroke-miterlimit:10;stroke-width: 1;stroke-dasharray: 4.3168,4.3168 } 
		.s1 { opacity: .3;fill: #9ddcf9 } 
		.s2 { fill: #2c54ac } 
		.s3 { fill: none;stroke: #2c54ac;stroke-miterlimit:10 } 
		.s4 { fill: #55a3f3 } 
		.s5 { fill: #ffffff } 
		.s6 { fill: none;stroke: #55a3f3;stroke-miterlimit:10;stroke-width: 1 } 
		.s7 { fill: #0a2a6b } 
		.s8 { fill: none;stroke: #0a2a6b;stroke-miterlimit:10;stroke-width: 1 } 
		.s9 { fill: #ff8775 } 
		.s10 { fill: none;stroke: #2c54ac;stroke-miterlimit:10;stroke-width: 1 } 
		.s11 { fill: #ff4648 } 
	</style>
	<g id="BACKGROUND">
		<g>
			<g style="opacity: .3">
				<path class="s0" d="m137.8 442.2c21.3-0.3 41.8-7.4 62.7-11.2 25.1-4.6 51-4.6 76.1 0.1 26.5 5 52.1 15.2 79 17.2 45.1 3.4 81.1-18 106.5-54.1 25.5-36.1 29.1-85.5 9.3-124.8-6.8-13.4-16-25.5-22-39.2-19.8-44.9 13.2-117.2-17-156.2-16.6-21.3-44.3-32.5-71.8-34.1-27.4-1.6-54.7 11.5-80.3 21.1-24.8 9.2-57.9 30.5-83.8 25.3-18.1-3.7-33.3-15.3-50.9-20.9-37.3-12-80.5 6.6-102.3 38.2-21.8 31.6-24.4 73-13.8 109.6 6.3 22 17.1 43.4 17.2 66.2 0 15-4.6 29.6-7.1 44.4-9.7 57.3 35.5 119.1 98.2 118.4z"/>
			</g>
			<path class="s1" d="m113.4 425.7c21.2 2.4 42.5-2.1 63.7-3.4 25.5-1.4 51.2 1.8 75.5 9.6 25.6 8.2 49.6 21.5 76.1 26.9 44.2 9 82.7-16.7 112.7-49.4 30-32.6 40.2-81.2 25.7-122.6-4.9-14.1-12.4-27.3-16.6-41.6-13.7-46.9 25.8-95.7 5.4-140.5-11.1-24.4-34.1-40.4-61.1-45.4-27-4.9-64-1.3-90.7 5-25.7 6.1-60.2 24.1-85.3 15.7-17.4-5.9-31-19.3-47.6-27.1-35.4-16.5-80.7-3.4-106.6 25.2-25.8 28.7-33.8 69.5-28.2 107.1 3.3 22.6 11.2 45.1 8.2 67.8-1.9 14.8-8.4 28.7-12.9 43.1-17.1 55.7 19.5 122.5 81.7 129.6z"/>
		</g>
	</g>
	<g id="OBJECTS">
		<g>
			<path fill-rule="evenodd" class="s2" d="m187.7 121.9c-6.8 43.4-47.5 72.9-90.9 66.1-43.4-6.9-72.9-47.6-66-91 6.9-43.4 47.5-72.9 90.9-66 43.4 6.9 72.9 47.5 66 90.9z"/>
			<path fill-rule="evenodd" class="s3" d="m109 188.9c-48 0-86.8-35.5-86.8-79.4 0-44 38.8-79.5 86.8-79.5 48 0 86.7 35.5 86.7 79.5 0 43.9-38.7 79.4-86.7 79.4z"/>
			<path fill-rule="evenodd" class="s2" d="m78.4 177.4l19.9 38.3 0.6-41.7z"/>
			<g>
				<g>
					<path class="s4" d="m104.4 136.4l-1.4-7.8q-1.2-7.5-0.2-12.7 1-5.3 3.3-9.4 2.3-4 4.8-7.4 3.3-4.4 5.8-8.5 2.5-4.2 1.5-10.1-0.5-3.3-2.5-5.3-2.1-1.9-4.6-2.8-2.5-0.9-4.7-0.5-4.3 0.8-6.9 3.3-2.5 2.5-3.9 5.9-1.3 3.4-2 7.1l-4.1 0.6-14.4-5.8q0.5-2.8 2-7.3 1.5-4.6 4.9-9.4 3.4-4.9 9-8.7 5.7-3.9 14.3-5.4 8.5-1.4 15.7 0.3 7.3 1.8 12.3 7.1 5.1 5.4 6.7 15.2 1.4 8.1 0 13.6-1.3 5.4-4 9.4-2.7 4.1-5.4 8-2.1 3-3.8 6.4-1.8 3.5-2.5 7.7-0.6 4.2 0.3 9.9l0.6 3.1zm15.7 29.6q-5.4 0.9-9.3-1.4-3.9-2.3-4.7-7.1-0.8-4.6 2.2-8.3 2.9-3.7 8.1-4.6 5.2-0.9 9.1 1.7 3.9 2.5 4.7 7.1 0.8 4.8-2 8.2-2.8 3.5-8.1 4.4z"/>
				</g>
				<g>
					<path class="s5" d="m100.3 137.1l-1.3-7.8q-1.3-7.5-0.3-12.8 1-5.2 3.3-9.3 2.3-4.1 4.8-7.4 3.4-4.4 5.9-8.5 2.5-4.2 1.5-10.2-0.6-3.2-2.6-5.2-2-1.9-4.5-2.8-2.5-0.9-4.8-0.5-4.3 0.7-6.8 3.2-2.6 2.5-3.9 6-1.3 3.4-2.1 7l-18.4-5.1q0.4-2.8 1.9-7.3 1.6-4.6 4.9-9.4 3.4-4.9 9.1-8.7 5.7-3.9 14.3-5.4 8.5-1.4 15.7 0.3 7.3 1.8 12.3 7.1 5 5.4 6.7 15.2 1.4 8.1 0 13.5-1.4 5.5-4 9.5-2.7 4.1-5.4 8-2.1 3-3.9 6.4-1.8 3.5-2.4 7.7-0.7 4.2 0.3 9.9l0.5 3.1zm15.7 29.6q-5.3 0.9-9.2-1.4-3.9-2.4-4.7-7.1-0.8-4.6 2.1-8.3 3-3.7 8.2-4.6 5.2-0.9 9.1 1.6 3.8 2.6 4.6 7.2 0.8 4.8-1.9 8.2-2.8 3.5-8.2 4.4z"/>
				</g>
			</g>
		</g>
		<g>
			<path fill-rule="evenodd" class="s4" d="m453.2 128.1c-18.8 31.9-59.8 42.5-91.8 23.7-31.9-18.8-42.5-59.8-23.7-91.8 18.8-31.9 59.8-42.5 91.8-23.7 31.9 18.8 42.5 59.8 23.7 91.8z"/>
			<path fill-rule="evenodd" class="s6" d="m464.3 118.1c-12.2 35-52.9 52.5-91.1 39.2-38.3-13.3-59.3-52.3-47.1-87.4 12.2-35 52.9-52.5 91.1-39.2 38.2 13.3 59.3 52.3 47.1 87.4z"/>
			<path fill-rule="evenodd" class="s4" d="m427.2 149.7l-15.1 33.1-2.2-35.1z"/>
			<g>
				<g>
					<path class="s2" d="m384 114.2l1.2-6.6q1-6.3 3.3-10.2 2.3-4 5.2-6.6 3-2.6 5.9-4.5 3.9-2.6 7-5.2 3.2-2.6 4-7.7 0.5-2.7-0.6-4.8-1-2.1-2.8-3.5-1.8-1.4-3.7-1.7-3.6-0.6-6.3 0.6-2.7 1.3-4.8 3.7-2 2.3-3.6 5l-3.4-0.5-9.8-8.6q1.1-2.2 3.6-5.4 2.4-3.2 6.5-6.1 4-2.9 9.6-4.4 5.6-1.5 12.9-0.3 7.1 1.2 12.4 4.6 5.3 3.4 7.8 9 2.6 5.7 1.2 14-1.2 6.8-3.8 10.8-2.6 3.9-5.8 6.4-3.3 2.5-6.5 4.9-2.5 1.8-4.9 4-2.4 2.3-4.1 5.5-1.7 3.2-2.5 7.9l-0.4 2.6zm4.3 28q-4.5-0.8-7-3.7-2.4-2.9-1.8-7 0.7-3.8 4.1-6 3.4-2.1 7.7-1.4 4.4 0.8 6.8 3.9 2.4 3.1 1.7 7-0.6 4-3.8 5.9-3.2 2-7.7 1.3z"/>
				</g>
				<g>
					<path class="s5" d="m380.6 113.6l1.1-6.6q1.1-6.3 3.4-10.2 2.2-3.9 5.2-6.5 2.9-2.6 5.9-4.6 3.9-2.6 7-5.2 3.2-2.6 4-7.6 0.5-2.8-0.6-4.9-1.1-2.1-2.8-3.5-1.8-1.4-3.7-1.7-3.6-0.6-6.3 0.7-2.8 1.2-4.8 3.6-2 2.4-3.6 5.1l-13.3-9.2q1.2-2.2 3.6-5.3 2.5-3.2 6.5-6.2 4.1-2.9 9.7-4.4 5.6-1.5 12.9-0.3 7.1 1.2 12.4 4.6 5.3 3.4 7.8 9.1 2.5 5.6 1.1 13.9-1.1 6.9-3.7 10.8-2.6 4-5.9 6.4-3.2 2.5-6.5 4.9-2.4 1.8-4.8 4.1-2.4 2.2-4.1 5.4-1.7 3.2-2.5 7.9l-0.4 2.7zm4.3 27.9q-4.5-0.8-7-3.7-2.5-2.9-1.8-6.9 0.7-3.9 4.1-6.1 3.3-2.1 7.7-1.4 4.4 0.8 6.8 3.9 2.4 3.1 1.7 7-0.7 4-3.8 6-3.2 2-7.7 1.2z"/>
				</g>
			</g>
		</g>
		<g>
			<path fill-rule="evenodd" class="s7" d="m305.5 186.8c-8.7 25.8-36.4 39.6-62.1 31-25.7-8.7-39.6-36.4-30.9-62.1 8.6-25.8 36.3-39.6 62-31 25.8 8.7 39.6 36.4 31 62.1z"/>
			<path fill-rule="evenodd" class="s8" d="m309.6 187.3c-8 25.9-37.3 39.8-65.5 31.1-28.3-8.7-44.6-36.7-36.6-62.6 8-25.9 37.3-39.8 65.5-31.1 28.2 8.7 44.6 36.7 36.6 62.6z"/>
			<path fill-rule="evenodd" class="s7" d="m257.5 218l-13.9 17.3 1.7-21.1z"/>
			<g>
				<g>
					<path class="s4" d="m253.3 186.2v-4.6q0-4.4 1.1-7.3 1-3 2.7-5 1.7-2.1 3.5-3.8 2.3-2.2 4.1-4.3 1.8-2.2 1.8-5.7 0-1.9-0.9-3.2-1-1.3-2.4-2-1.3-0.8-2.6-0.8-2.5 0.1-4.2 1.2-1.7 1.2-2.8 3.1-1.1 1.8-1.9 3.8h-2.4l-7.6-4.7q0.5-1.5 1.8-4 1.3-2.4 3.7-4.9 2.4-2.4 6-4.1 3.6-1.7 8.6-1.7 5 0 9 1.7 3.9 1.7 6.3 5.2 2.4 3.5 2.4 9.3 0 4.7-1.3 7.7-1.3 3-3.2 5-1.9 2.1-3.8 4.1-1.5 1.5-2.8 3.3-1.4 1.8-2.1 4.1-0.8 2.4-0.8 5.7v1.8zm6.2 18.4q-3.1 0-5.2-1.7-2-1.7-2-4.5 0-2.7 2.1-4.5 2-1.9 5-1.9 3.1 0 5.1 1.8 1.9 1.9 1.9 4.6 0 2.8-1.9 4.5-1.9 1.7-5 1.7z"/>
				</g>
				<g>
					<path class="s5" d="m250.9 186.2v-4.6q0-4.4 1.1-7.3 1.1-2.9 2.8-5 1.6-2.1 3.4-3.8 2.3-2.2 4.1-4.3 1.9-2.2 1.9-5.7-0.1-1.9-1-3.2-1-1.3-2.3-2-1.4-0.7-2.7-0.7-2.5 0-4.2 1.1-1.7 1.2-2.8 3.1-1.1 1.8-1.9 3.8l-10-4.7q0.5-1.5 1.8-4 1.3-2.4 3.7-4.9 2.4-2.4 6-4.1 3.6-1.7 8.7-1.7 4.9 0 8.9 1.7 4 1.7 6.3 5.2 2.4 3.5 2.4 9.3 0.1 4.7-1.2 7.7-1.3 3-3.2 5-2 2.1-3.9 4.1-1.4 1.5-2.8 3.3-1.3 1.8-2.1 4.1-0.8 2.4-0.8 5.7v1.8zm6.2 18.4q-3.1 0-5.1-1.7-2-1.7-2.1-4.5 0-2.7 2.1-4.5 2-1.8 5.1-1.9 3 0 5 1.9 2 1.8 2 4.5 0 2.8-1.9 4.5-1.9 1.7-5.1 1.7z"/>
				</g>
			</g>
		</g>
		<g style="opacity: .4">
			<g>
				<path class="s4" d="m453.5 219.2l-0.8-4.1q-0.8-3.9-0.4-6.7 0.5-2.8 1.6-5 1.2-2.2 2.4-4 1.8-2.4 3-4.6 1.3-2.3 0.6-5.4-0.3-1.7-1.4-2.7-1.1-1-2.4-1.4-1.4-0.4-2.6-0.2-2.2 0.5-3.5 1.8-1.3 1.4-2 3.2-0.6 1.9-1 3.8l-9.8-2.4q0.2-1.5 0.9-3.9 0.7-2.5 2.4-5.1 1.7-2.6 4.7-4.7 2.9-2.2 7.5-3.1 4.4-0.9 8.3-0.1 3.8 0.8 6.6 3.6 2.7 2.7 3.8 7.9 0.8 4.3 0.2 7.1-0.6 2.9-2 5.1-1.3 2.2-2.7 4.3-1.1 1.6-1.9 3.5-0.9 1.8-1.2 4.1-0.3 2.2 0.3 5.2l0.3 1.6zm8.8 15.4q-2.8 0.6-4.9-0.6-2.1-1.1-2.6-3.6-0.5-2.5 1-4.5 1.5-2 4.3-2.5 2.7-0.6 4.8 0.7 2.1 1.3 2.6 3.7 0.5 2.5-0.9 4.4-1.5 1.9-4.3 2.4z"/>
			</g>
			<g>
				<path class="s4" d="m46.7 279.4l-1.6-3.5q-1.6-3.3-1.8-5.9-0.1-2.6 0.4-4.7 0.6-2.2 1.3-4.1 1.1-2.4 1.7-4.7 0.6-2.2-0.6-4.9-0.6-1.4-1.8-2.1-1.2-0.6-2.5-0.7-1.3-0.1-2.2 0.3-2 0.9-2.8 2.4-0.9 1.5-1.1 3.2-0.2 1.8-0.1 3.6l-9.2-0.1q-0.2-1.4 0-3.7 0.1-2.3 1.1-5 1-2.6 3.1-5.1 2.2-2.6 6-4.3 3.8-1.7 7.4-1.8 3.6-0.1 6.6 1.7 3 1.9 5 6.3 1.6 3.6 1.7 6.3 0 2.7-0.7 4.9-0.8 2.2-1.5 4.4-0.6 1.6-1 3.5-0.4 1.8-0.2 3.8 0.2 2.1 1.4 4.6l0.6 1.4zm11 11.8q-2.4 1.1-4.5 0.5-2.1-0.6-3.1-2.7-0.9-2.1 0-4.2 0.9-2.1 3.2-3.1 2.4-1.1 4.5-0.4 2.1 0.7 3 2.8 1 2.1 0.1 4-0.8 2-3.2 3.1z"/>
			</g>
			<g>
				<path class="s4" d="m258.2 56.7l0.5-3.8q0.6-3.6 1.8-5.9 1.3-2.3 3-3.8 1.6-1.5 3.3-2.6 2.2-1.5 3.9-3.1 1.8-1.5 2.2-4.4 0.3-1.6-0.3-2.8-0.7-1.2-1.7-1.9-1-0.8-2.1-1-2.1-0.3-3.6 0.5-1.6 0.7-2.7 2.1-1.1 1.4-2 2.9l-7.7-5.1q0.6-1.2 2-3.1 1.4-1.8 3.7-3.5 2.3-1.7 5.4-2.7 3.2-0.9 7.4-0.2 4.1 0.6 7.1 2.5 3.1 1.9 4.6 5.1 1.5 3.2 0.8 7.9-0.6 3.9-2.1 6.2-1.4 2.3-3.2 3.7-1.9 1.5-3.7 2.9-1.4 1-2.7 2.4-1.4 1.3-2.3 3.1-1 1.8-1.4 4.6l-0.2 1.5zm2.8 15.9q-2.6-0.4-4.1-2.1-1.4-1.6-1.1-3.9 0.4-2.2 2.3-3.5 1.9-1.2 4.4-0.9 2.5 0.4 3.9 2.2 1.4 1.7 1.1 3.9-0.4 2.3-2.2 3.5-1.8 1.2-4.3 0.8z"/>
			</g>
			<g>
				<path class="s4" d="m224.6 100.2l-0.6-3q-0.5-2.9-0.2-5 0.4-2.1 1.2-3.7 0.9-1.6 1.9-2.9 1.3-1.7 2.2-3.4 0.9-1.6 0.5-4-0.2-1.2-1-2-0.8-0.7-1.8-1-1-0.4-1.9-0.2-1.7 0.3-2.6 1.3-1 1-1.5 2.3-0.5 1.4-0.8 2.8l-7.2-1.8q0.1-1.2 0.7-2.9 0.6-1.8 1.8-3.7 1.3-2 3.5-3.5 2.2-1.6 5.6-2.2 3.3-0.6 6.1 0 2.9 0.6 4.9 2.7 2 2 2.7 5.9 0.6 3.2 0.1 5.3-0.5 2.1-1.5 3.7-1 1.6-2.1 3.2-0.8 1.2-1.4 2.5-0.7 1.4-0.9 3-0.3 1.7 0.2 3.9l0.2 1.2zm6.3 11.5q-2 0.3-3.6-0.5-1.5-0.9-1.9-2.8-0.3-1.8 0.8-3.2 1.1-1.5 3.2-1.9 2-0.4 3.5 0.6 1.6 1 1.9 2.8 0.3 1.8-0.7 3.2-1.1 1.4-3.2 1.8z"/>
			</g>
			<g>
				<path class="s4" d="m290.3 100l0.5-2.2q0.6-2.2 1.5-3.4 0.8-1.3 1.9-2.1 1.1-0.8 2.1-1.4 1.4-0.8 2.6-1.6 1.1-0.8 1.5-2.5 0.3-0.9 0-1.7-0.3-0.7-0.9-1.3-0.6-0.5-1.2-0.6-1.2-0.3-2.2 0-1 0.4-1.7 1.1-0.8 0.8-1.4 1.7l-4.3-3.5q0.5-0.7 1.4-1.7 0.9-1.1 2.4-2 1.5-0.9 3.4-1.2 2-0.4 4.4 0.2 2.4 0.6 4.1 1.9 1.7 1.3 2.5 3.3 0.7 2 0 4.8-0.6 2.3-1.6 3.6-1 1.3-2.2 2-1.1 0.8-2.3 1.5-0.9 0.6-1.8 1.3-0.9 0.7-1.5 1.7-0.7 1.1-1.1 2.7l-0.2 0.9zm0.7 9.6q-1.5-0.4-2.3-1.4-0.7-1.1-0.4-2.5 0.3-1.3 1.6-1.9 1.2-0.6 2.6-0.3 1.5 0.4 2.2 1.5 0.8 1.1 0.4 2.5-0.3 1.3-1.4 1.9-1.2 0.6-2.7 0.2z"/>
			</g>
			<g>
				<path class="s4" d="m430.3 272.5l0.4-2.6q0.4-2.5 1.3-4 0.8-1.5 2-2.6 1.1-1 2.3-1.7 1.5-1.1 2.7-2.1 1.2-1 1.5-3 0.2-1-0.2-1.9-0.4-0.8-1.1-1.3-0.7-0.6-1.5-0.7-1.4-0.2-2.4 0.3-1.1 0.5-1.9 1.4-0.7 1-1.4 2l-5.2-3.5q0.5-0.9 1.4-2.1 1-1.3 2.6-2.4 1.5-1.2 3.7-1.8 2.2-0.6 5-0.1 2.8 0.4 4.9 1.8 2 1.3 3 3.5 1 2.2 0.5 5.4-0.4 2.7-1.4 4.2-1 1.5-2.3 2.5-1.3 1-2.5 1.9-1 0.7-1.9 1.6-0.9 0.9-1.6 2.1-0.6 1.3-0.9 3.1l-0.2 1.1zm1.8 10.8q-1.8-0.3-2.8-1.4-0.9-1.1-0.7-2.7 0.3-1.5 1.6-2.3 1.3-0.9 3-0.6 1.7 0.3 2.7 1.5 0.9 1.2 0.6 2.7-0.2 1.6-1.4 2.3-1.3 0.8-3 0.5z"/>
			</g>
			<g>
				<path class="s4" d="m58.4 221.2l-0.1-2.6q-0.1-2.4 0.5-4.1 0.6-1.6 1.5-2.8 0.9-1.2 1.9-2.2 1.3-1.2 2.3-2.4 0.9-1.3 0.9-3.2 0-1.1-0.6-1.8-0.5-0.7-1.3-1.1-0.8-0.4-1.5-0.4-1.4 0-2.4 0.7-0.9 0.7-1.5 1.8-0.6 1-1 2.1l-5.7-2.5q0.3-0.8 1-2.2 0.7-1.4 2-2.8 1.3-1.4 3.3-2.4 2-1 4.8-1.1 2.8 0 5.1 0.9 2.2 0.9 3.6 2.8 1.4 1.9 1.5 5.2 0 2.6-0.7 4.3-0.7 1.7-1.7 2.9-1 1.2-2.1 2.3-0.8 0.9-1.5 1.9-0.8 1-1.2 2.3-0.4 1.4-0.3 3.2v1zm3.7 10.3q-1.8 0-2.9-0.9-1.2-0.9-1.2-2.5 0-1.5 1.1-2.6 1.1-1 2.8-1.1 1.7 0 2.8 1 1.2 1 1.2 2.5 0.1 1.5-1 2.5-1 1-2.8 1.1z"/>
			</g>
		</g>
		<g>
			<g>
				<path class="s9" d="m266.9 500h36.5l-1.3-75q-7.3-4-15.2-7z"/>
				<path class="s4" d="m286.9 418q7.9 3 15.2 7l-1.1-64.5z"/>
			</g>
			<g>
				<path class="s9" d="m400.9 321.1c-2.6-1.8-4.3-3.1-4.7-3.8-2.6-4.2-1.9-46.6-1.9-46.6l-42.9 28.4-0.5 20.4c0 0-4.4 2-10.7 5.4l17 40.1z"/>
				<path class="s4" d="m456.1 373.2c-2.4-18.3-41.3-42.4-55.2-52.1l-43.7 43.9-17-40.1c-13.2 7-34.2 20.4-39.2 35.6-7.4 22.5-5.1 139.5-5.1 139.5h146.3c0 0 1.7-35.2 1.7-50.3 0-15.2 15.1-54.9 12.2-76.5z"/>
			</g>
			<g style="opacity: .3">
				<g id="Clip-Path" clip-path="url(#cp1)">
					<g>
						<g>
							<path fill-rule="evenodd" class="s10" d="m435.4 301.6v237.6"/>
							<path fill-rule="evenodd" class="s10" d="m406.6 301.6v237.6"/>
							<path fill-rule="evenodd" class="s10" d="m377.8 301.6v237.6"/>
							<path fill-rule="evenodd" class="s10" d="m349.1 301.6v237.6"/>
							<path fill-rule="evenodd" class="s10" d="m320.3 301.6v237.6"/>
						</g>
						<g>
							<path fill-rule="evenodd" class="s10" d="m282.6 342.5h175.5"/>
							<path fill-rule="evenodd" class="s10" d="m282.6 363.3h175.5"/>
							<path fill-rule="evenodd" class="s10" d="m282.6 384.2h175.5"/>
							<path fill-rule="evenodd" class="s10" d="m282.6 405h175.5"/>
							<path fill-rule="evenodd" class="s10" d="m282.6 425.8h175.5"/>
							<path fill-rule="evenodd" class="s10" d="m282.6 446.6h175.5"/>
							<path fill-rule="evenodd" class="s10" d="m282.6 467.4h175.5"/>
							<path fill-rule="evenodd" class="s10" d="m282.6 488.3h175.5"/>
							<path fill-rule="evenodd" class="s10" d="m282.6 509.1h175.5"/>
							<path fill-rule="evenodd" class="s10" d="m282.6 529.9h175.5"/>
						</g>
					</g>
				</g>
			</g>
			<g>
				<path class="s9" d="m392.3 261.5c-0.5-2.3-0.4-4.6-0.2-7 0.7-9.1 2.5-17.3 5.3-26-4.2-0.1-8.4-2-11.2-5.2-2.7-3.2-3.5-8-3-12.1-2 3.2-5.5 5.4-9.2 5.8-0.9 0.1-1.9 0-2.8-0.2-2.4-0.8-3.7-3.5-3.7-6-0.1-2.6 0.9-5.1 1.9-7.4-6 7.1-16.1 8.9-25.4 9-5.3 0.1-10.6-0.3-15.6-1.9-2.7-0.9-5.4-2.2-7.7-3.8q-0.8 2.4-1.4 5.1c-6.4 27.6 0.7 68.5 4.6 86.8 1.2 5.8 6.3 10 12.2 10.2 6.5 0.1 14.9-0.2 21.1-2.6 14.3-5.4 29-14.6 41.4-34.8-3-2.8-5.5-6-6.3-9.9z"/>
				<path class="s7" d="m384 177.3c-21.8-4.4-53-2.3-63.3 29.4 2.3 1.6 5 2.9 7.7 3.8 5 1.6 10.3 2 15.5 1.9 9.4-0.1 19.5-1.9 25.5-9-1 2.3-2 4.8-1.9 7.4 0 2.5 1.3 5.2 3.7 6 0.9 0.3 1.9 0.3 2.8 0.2 3.7-0.4 7.2-2.6 9.2-5.8-0.5 4.2 0.3 8.9 3 12.1 2.8 3.2 7 5.1 11.2 5.2-2.8 8.7-4.6 16.9-5.3 26-0.2 2.4-0.3 4.7 0.2 7 0.8 3.9 3.3 7.1 6.3 9.9 4.2-6.8 8.1-14.8 11.7-24.4 14.1-38-3.5-65.2-26.3-69.7z"/>
			</g>
			<g>
				<path class="s9" d="m414.9 256.9c-1.6 5.6-5.4 11-10.2 14.4-1.5 1.1-3.1 2-4.8 2.2-3.7 0.5-6.6-2.5-7.1-6.3-0.6-3.7 0.6-7.9 2.3-11.8 2.2-5 5.7-10.4 10.5-11.9 7.8-2.3 11.2 6.4 9.3 13.4z"/>
				<path class="s9" d="m396.3 268.9c1.7-0.6 3.3-1.8 4.6-3.2 0.3-0.3 0.5-0.6 0.6-1 0.2-0.7-0.2-1.2-0.6-1.7q-1.1-1.4-2.3-2.8c-0.2-0.2-0.3-0.4-0.4-0.7 0-0.3 0.1-0.6 0.3-0.9 1.6-3.9 3.4-8.1 6.7-10.5 0.9-0.6 1.9-1.2 2.9-1.2 1.5-0.2 2.7 0.7 3.5 1.8 0.8 1.2 1.1 2.7 1.4 4.1 0 0-0.4 8.1-6.3 13.3-5.9 5.3-10.4 2.8-10.4 2.8z"/>
				<g>
					<path class="s7" d="m413 252.8c-0.5-1.5-0.9-3.1-2-4.2-0.5-0.6-1.1-1-1.8-1.1q-1-0.3-2 0.2c-1.3 0.6-2.5 1.6-3.4 2.7-1 1.2-1.9 2.5-2.6 3.9-0.7 1.4-1.3 2.8-2 4.3-0.1 0.4-0.3 0.7-0.3 0.8 0 0 0 0.1 0.1 0.2l0.4 0.5q0.7 0.9 1.4 1.9c0.3 0.3 0.5 0.6 0.8 0.9 0.2 0.4 0.5 0.9 0.5 1.5-0.1 0.5-0.4 1-0.6 1.3-0.3 0.3-0.6 0.6-0.9 0.9-1.3 1-2.7 1.9-4.3 2.3 1.4-0.7 2.7-1.7 3.7-2.8 0.5-0.6 1.2-1.3 1.1-1.7 0-0.5-0.6-1.1-1.2-1.7q-0.8-0.9-1.6-1.8l-0.4-0.5c-0.1-0.2-0.3-0.5-0.4-0.9 0-0.7 0.3-1.1 0.4-1.4 0.6-1.5 1.2-3 2-4.5 1.5-2.8 3.6-5.8 6.9-7 0.9-0.3 1.9-0.4 2.7-0.1 0.9 0.3 1.6 0.9 2.1 1.6 1 1.5 1.2 3.1 1.4 4.7z"/>
				</g>
			</g>
			<path class="s7" d="m351.2 307.5c0 0 11.3-2.8 16.9-6.7 12.5-8.3 18.6-17.8 18.6-17.8 0 0-6.7 15.6-16.1 22.7-9.5 7.2-19.6 10.3-19.6 10.3z"/>
			<path class="s7" d="m330.5 244.7c0 2.5-1.2 4.6-2.7 4.6-1.5 0-2.7-2.1-2.7-4.6 0-2.5 1.2-4.5 2.7-4.5 1.5 0 2.7 2 2.7 4.5z"/>
			<path class="s7" d="m362.5 251.3c0 2.5-1.2 4.5-2.7 4.5-1.5 0-2.7-2-2.7-4.5 0-2.5 1.2-4.5 2.7-4.5 1.5 0 2.7 2 2.7 4.5z"/>
			<g>
				<path class="s7" d="m343.4 243.3q-2.1 3.3-3.8 6.7-1.7 3.5-2.8 7.1c-0.8 2.4-1.4 4.8-1.9 7.3q-0.6 3.8-0.7 7.6l-0.6-0.8c3.6 1.4 7.3 2.3 11.2 3.1-4 0.1-7.9-0.4-11.7-1.5l-0.5-0.2-0.1-0.6c-0.1-2.7 0.1-5.3 0.5-7.9 0.4-2.6 1.1-5.2 2-7.6q1.4-3.8 3.5-7.1c1.4-2.2 3-4.3 4.9-6.1z"/>
			</g>
			<path class="s7" d="m339.7 222.3c-9.1 0-17.8 5.4-21.6 13.7 4.9-5.7 13.2-8.4 20.5-6.6 0.5-2.2 0.9-4.8 1.1-7.1z"/>
			<path class="s7" d="m373.7 241.5c-2-3.3-5.2-5.8-8.7-7.4-3.5-1.7-7.3-2.5-11.1-3.3 0.5-2.3 0.9-4.4 1.5-6.7 8 3.1 15.4 9.3 18.3 17.4z"/>
			<g>
				<path class="s7" d="m338 285.5c-3.5-0.6-6.5 0-6.7 1.3-0.2 1.1 1.6 2.4 4.1 3.2 2.1-1.6 4.8-2.6 7.4-2.7-1-0.7-2.7-1.4-4.8-1.8z"/>
				<path class="s11" d="m342.8 287.3c-2.6 0.1-5.3 1.1-7.4 2.7q0.9 0.2 1.8 0.4c3.4 0.6 6.5 0 6.7-1.3 0.1-0.6-0.3-1.2-1.1-1.8z"/>
			</g>
			<g>
				<path class="s9" d="m386.7 407.9l-12.5 16.7-78.5-62.5c0 0-21.2-7.2-27.2-12.6-6-5.4-19.1-33-24.4-31.7-5.4 1.3-9 19.2-5.7 31.1 3.3 11.9 8.4 21.7 13.7 24.7 5.4 3 43.2 10.7 43.2 10.7 0 0 40.2 51 50.6 62 10.5 11 46.5 41.4 46.5 41.4l35.4-37.5c0 0-10.7-15.5-21.7-26.5-11-11.1-19.4-15.8-19.4-15.8z"/>
				<g>
					<path class="s7" d="m380.4 416.3q4.8-8.6 10-16.9 5.3-8.4 10.9-16.5c1.9-2.7 3.8-5.4 5.8-8 2-2.7 4.2-5.2 6.6-7.5 4.8-4.6 10.3-8.4 16.1-11.5-2.7 1.9-5.3 3.8-7.8 6q-3.8 3.1-7.2 6.6-1.7 1.8-3.2 3.6-1.6 1.9-3 3.9c-2 2.6-3.8 5.3-5.7 8l-11.2 16.2q-5.5 8.1-11.3 16.1z"/>
				</g>
				<g>
					<path class="s7" d="m444.8 429c-1.8 2.8-3.7 5.4-5.7 8-2 2.6-4.1 5.2-6.2 7.7-2.2 2.5-4.3 5-6.6 7.4-2.2 2.4-4.5 4.8-6.9 7 1.8-2.7 3.7-5.4 5.7-8 2-2.6 4.1-5.2 6.2-7.7 2.2-2.5 4.3-5 6.6-7.4 2.2-2.4 4.5-4.8 6.9-7z"/>
				</g>
				<g>
					<path class="s7" d="m371.1 422.2c2.6 1.8 5.2 3.5 7.8 5.3 2.6 1.8 5.1 3.6 7.6 5.6 2.5 2 4.8 4.2 6.8 6.7 2 2.6 3.6 5.5 4.3 8.6-1.5-2.8-3.4-5.3-5.5-7.5-2.1-2.3-4.4-4.3-6.8-6.3-2.4-2-4.9-3.8-7.4-5.9-2.4-2-4.8-4.1-6.8-6.5z"/>
				</g>
				<g>
					<path class="s7" d="m237.3 336.3c0.3-0.5 0.9-0.6 1.4-0.5 0.5 0 1 0.4 1.4 0.8 0.7 0.8 1.2 1.7 1.6 2.6 1 1.9 1.6 3.9 2.4 5.8 1.5 3.8 3.1 7.6 5.1 11.3 0.9 1.8 1.9 3.6 3.2 5.1 1.3 1.4 3.1 2.4 5 3.1 3.8 1.3 7.9 2.1 12 2.5l-0.7 1.1c-1-1.2-2.6-2-4.2-2.9-0.9-0.4-1.7-0.8-2.5-1.4q-1.2-0.8-2.2-1.9c-1.2-1.5-2.2-3.2-2.7-5.1-0.5-1.9-0.6-3.8-0.2-5.8l0.1-0.6 0.6 0.1c2.1 0.2 4 0.9 5.8 1.8 1.8 0.9 3.5 1.9 5.2 2.9 1.6 1 3.2 2.1 5 2.9 1.7 0.9 3.5 1.4 5.4 2 1.8 0.5 3.8 1.1 5.5 2.1 1.8 0.9 3.3 2.2 4.7 3.7 2.7 2.8 4.6 6.4 5.7 10.1-1.3-3.6-3.4-7-6.1-9.7-1.4-1.4-3-2.5-4.7-3.4-1.7-0.9-3.5-1.4-5.4-1.9-1.9-0.5-3.8-1-5.6-1.9-1.8-0.8-3.5-1.8-5.2-2.8-3.3-2-6.7-4-10.4-4.4l0.7-0.6c-0.3 1.7-0.2 3.5 0.3 5.1 0.4 1.7 1.3 3.2 2.4 4.5q0.9 1 1.9 1.7c0.7 0.5 1.5 0.9 2.3 1.3 1.6 0.9 3.4 1.8 4.7 3.3l1.1 1.4-1.7-0.2c-4.2-0.5-8.3-1.3-12.3-2.7-2-0.7-4-1.8-5.4-3.5-1.4-1.7-2.3-3.6-3.2-5.5-1.9-3.7-3.5-7.6-4.8-11.5-0.7-2-1.3-4-2.1-5.8-0.4-1-0.9-1.9-1.5-2.7-0.3-0.4-0.7-0.7-1.2-0.8-0.5-0.2-1.1-0.1-1.4 0.4z"/>
				</g>
				<g>
					<path class="s7" d="m239.8 323.6c1.5 0.7 2.5 2.2 3.1 3.6 0.7 1.5 1.3 2.9 1.9 4.4l3.5 8.8c1.3 3 2.3 6 3.8 8.6 0.8 1.4 1.6 2.7 2.5 4 0.9 1.3 1.8 2.6 3.2 3.3l-0.1 0.2c-1.6-0.5-2.8-1.7-3.9-2.9-1.1-1.2-2-2.5-2.9-3.8-1.9-2.8-2.7-5.9-3.8-8.9l-3-9c-0.6-1.5-1-3.1-1.6-4.5-0.5-1.5-1.3-2.9-2.8-3.6z"/>
				</g>
				<g>
					<path class="s7" d="m244.8 318.7c2.4 2.7 4 6 5.3 9.3 1.3 3.3 2.6 6.6 4.3 9.6 1.8 3.1 3.8 5.9 5.9 8.8 2 2.9 4 5.7 6.6 8.2l-0.1 0.1c-1.5-0.9-2.9-2.1-4.2-3.4-1.3-1.2-2.4-2.6-3.5-4-2.3-2.8-4.1-5.9-5.7-9.1-1.7-3.2-2.8-6.6-4-10-1.1-3.3-2.4-6.6-4.7-9.4z"/>
				</g>
			</g>
			<g>
				<path class="s7" d="m297.1 392.7l-0.1 11.9-0.2 11.9c-0.1 7.9-0.3 15.8-0.4 23.7-0.1 7.9-0.1 15.8-0.2 23.7q0 6 0 11.9 0 6 0.1 11.9c-0.4-3.9-0.6-7.9-0.8-11.9q-0.2-5.9-0.4-11.8c-0.2-8-0.2-15.9-0.2-23.8 0.2-7.9 0.4-15.8 0.8-23.8l0.5-11.8c0.3-4 0.5-7.9 0.9-11.9z"/>
			</g>
			<path fill-rule="evenodd" class="s7" d="m406.5 324.9l-5.6-3.8-43.7 43.9-17-40.1-6.2 3.4 20.6 50.8z"/>
			<g style="opacity: .4">
				<g>
					<path class="s4" d="m323.9 200.6c2.2 0 4.4 0 6.6-0.1q3.3-0.2 6.6-0.6c4.3-0.5 8.6-1.4 12.8-2.6 4.3-1.2 8.4-2.7 12.3-4.6 4-1.8 7.8-4.1 10.7-7.3l1.6-1.8-0.8 2.3c-0.5 1.2-0.9 2.6-0.9 3.9 0.1 1.3 0.6 2.6 1.7 3.3 1 0.7 2.5 0.7 3.8 0.4 1.3-0.3 2.6-0.8 3.9-1.3 2.6-1.1 5-2.7 7.1-4.4 2.2-1.8 4.1-3.9 5.7-6.2-2.9 4.8-7.3 8.8-12.5 11.1-1.3 0.6-2.6 1.2-4.1 1.5-1.3 0.3-3 0.5-4.4-0.4-1.3-0.9-2-2.5-2.1-4 0-1.5 0.4-2.9 0.9-4.3l0.8 0.5c-3.1 3.3-6.9 5.8-11 7.6q-6 2.8-12.4 4.5c-4.3 1.2-8.7 1.9-13.1 2.4-4.4 0.4-8.8 0.4-13.2 0.1z"/>
				</g>
				<g>
					<path class="s4" d="m398.6 183.4c-1.7 3.9-3.3 7.9-4.1 12.1-0.8 4.1-0.8 8.5 0.6 12.5 0.7 1.9 1.7 3.8 3 5.4 1.4 1.6 3 2.9 4.8 4.1 1.8 1.1 3.7 2 5.7 2.7 2 0.7 4.1 1.3 6.2 1.1-2.1 0.4-4.3 0-6.4-0.6-2-0.6-4-1.5-5.9-2.6-3.8-2.1-6.9-5.6-8.3-9.8-1.4-4.2-1.4-8.7-0.4-12.9 0.5-2.2 1.2-4.2 2-6.2q1.3-3 2.8-5.8z"/>
				</g>
				<g>
					<path class="s4" d="m405.1 190.1c-0.3 1-0.6 2.1-0.8 3.2q-0.3 1.6-0.3 3.2c0.1 2.1 0.5 4.3 1.3 6.2 0.9 1.9 2.2 3.7 3.8 5.1q1.2 1 2.7 1.7c0.9 0.6 2 0.9 3 1.2-1.1 0-2.2-0.3-3.2-0.7q-1.6-0.6-3-1.6c-1.8-1.4-3.3-3.2-4.2-5.3-0.9-2.1-1.3-4.4-1.1-6.6 0.1-2.3 0.7-4.5 1.8-6.4z"/>
				</g>
				<g>
					<path class="s4" d="m369.9 175.9q-0.7 0.9-1.5 1.7l-1.6 1.6-1.8 1.5-1.9 1.3c-2.7 1.6-5.6 2.8-8.6 3.5-3 0.7-6.1 1-9.2 0.8l-2.3-0.3-2.2-0.4-2.2-0.7q-1.1-0.4-2.2-0.8 1.2 0.3 2.2 0.6l2.3 0.4 2.2 0.3 2.3 0.1c3 0.1 6-0.3 8.9-1 2.9-0.7 5.7-1.8 8.4-3.2 2.6-1.4 5.1-3.3 7.2-5.4z"/>
				</g>
			</g>
		</g>
		<g>
			<g>
				<path class="s7" d="m242.7 453.4l-21.4-76.2-17.8 70.3 2.8 10.2c12.2 2.2 25.1 0.6 36.4-4.3z"/>
				<path class="s9" d="m255.8 500l-13.1-46.6c-11.3 4.9-24.2 6.5-36.4 4.3l11.8 42.3z"/>
			</g>
			<path class="s7" d="m168.2 349.5l-37.8-13.4c0 0-54.3 29.8-59.5 54.9-5.2 25.1 16.4 109 16.4 109h146.4c0 0-21.9-48.1-21.9-59.8 0-11.7 15.9-54.8 8.7-64.2-7.1-9.3-52.6-34.5-52.6-34.5z"/>
			<path class="s9" d="m168.2 349.5c-13.9 2.6-28.6-2.7-37.8-13.4 1.6-7.4 2.2-15.1 2.1-22.7-0.1-3.5-0.4-7.1-1.6-10.5-0.9-2.3-2.1-4.4-3.3-6.5q-5.1-8.7-10.2-17.4c-1.8-3.2-3.7-6.4-4.6-10-1.8-7 0.4-14.4 3.3-21.1 5.7-12.9 14.4-24.9 26.7-31.7 12.3-6.8 28.6-7.4 39.9 1.1 4.4 3.3 10.3 6.4 11.5 11.8 2.8 12.8 5.7 25.6 6.9 38.6 1.2 13 0.7 26.3-3 38.8-1.7 5.7-4.3 11.4-8.9 15-3.1 2.5-7 3.8-10.9 4.7-3.4 0.8-6.9 1.2-10.2 0.3-0.3 7.3-0.3 15.7 0.1 23z"/>
			<path class="s7" d="m107.8 228.1c-3.7 1.9-6.7 4.9-9.1 8.2-9.3 12.9-9.3 31-2.1 45.2 7.1 14.1 21.2 27.2 35.9 33.2 0-7.1-0.9-16.4-2.7-23.3 3.8-0.9 7.3-3.1 9.9-6-3.8-14.6-7.7-28.9-11.5-43.4 8.5 2.1 17.9 0.5 26-2.7 8.2-3.3 15.4-8.6 22-14.4 1.3 3.7 4.3 6.5 7.8 8.4 3.5 1.8 7.4 2.5 11.4 2.6 0.4 2.3 0.8 4.6 1.2 6.9 6.9-4.3 13-12 12.1-20-0.3-2.1-0.9-4.2-1.8-6.1-3.1-7.2-8.8-13.2-15.7-16.7-4.1-2.1-8.6-3.4-13.2-4.3-15.1-3.1-31-2.6-45.9 1.4-4.7 1.3-9.4 2.9-13.4 5.8-7.9 5.5-12.1 15.7-10.9 25.2z"/>
			<g>
				<path class="s9" d="m114.2 287.7c1.6 5.6 5.4 11 10.2 14.4 1.5 1.1 3.2 2 4.8 2.2 3.7 0.5 6.6-2.5 7.2-6.3 0.5-3.7-0.7-7.9-2.4-11.8-2.1-5-5.6-10.4-10.5-11.9-7.7-2.3-11.2 6.4-9.3 13.4z"/>
				<path class="s9" d="m132.8 299.7c-1.6-0.6-3.3-1.8-4.6-3.2-0.2-0.3-0.5-0.6-0.6-1-0.2-0.7 0.2-1.3 0.6-1.7q1.2-1.4 2.3-2.8c0.2-0.2 0.4-0.4 0.4-0.7 0-0.3-0.1-0.6-0.2-0.9-1.6-3.9-3.5-8.1-6.8-10.5-0.9-0.6-1.9-1.2-2.9-1.2-1.5-0.2-2.7 0.7-3.5 1.8-0.7 1.2-1.1 2.7-1.4 4.1 0 0 0.4 8.1 6.3 13.3 5.9 5.2 10.4 2.8 10.4 2.8z"/>
				<g>
					<path class="s7" d="m116.1 283.6c0.2-1.6 0.5-3.2 1.4-4.7 0.5-0.7 1.2-1.3 2.1-1.6 0.9-0.3 1.9-0.2 2.7 0.1 3.3 1.2 5.4 4.2 6.9 7 0.8 1.5 1.4 3 2 4.5 0.1 0.3 0.4 0.7 0.4 1.4 0 0.4-0.2 0.7-0.4 0.9l-0.4 0.5q-0.8 0.9-1.6 1.8c-0.5 0.6-1.1 1.2-1.1 1.7-0.1 0.4 0.5 1.1 1 1.7 1 1.1 2.3 2.1 3.7 2.8-1.5-0.4-3-1.3-4.2-2.3-0.3-0.3-0.6-0.6-0.9-0.9-0.3-0.3-0.6-0.8-0.6-1.3-0.1-0.6 0.2-1.1 0.5-1.5 0.2-0.3 0.5-0.6 0.7-1q0.7-0.9 1.5-1.8l0.3-0.5c0.1-0.1 0.1-0.2 0.1-0.2 0-0.1-0.1-0.4-0.3-0.8-0.6-1.5-1.3-2.9-2-4.3-0.7-1.4-1.5-2.7-2.5-3.9-1-1.1-2.2-2.2-3.5-2.7q-1-0.5-2-0.2c-0.7 0.1-1.3 0.5-1.8 1.1-1 1.1-1.5 2.7-2 4.2z"/>
				</g>
			</g>
			<g>
				<path class="s7" d="m180.2 256.3c0.7 2.4 1.4 4.9 2 7.4q0.9 3.7 1.6 7.4l0.8 3.8c0.2 1.2 0.5 2.3 1.1 3.2 0.5 0.9 1.4 1.7 2.4 2.3 1 0.7 2.1 1.2 3.3 1.7l0.7 0.4-0.3 0.7c-1.6 3.2-4.4 5.7-7.4 7.1 1.3-1.1 2.5-2.2 3.5-3.5 1-1.3 1.9-2.8 2.5-4.3l0.4 1.1c-1.2-0.4-2.5-0.9-3.6-1.6-1.2-0.7-2.4-1.6-3.2-2.8-0.8-1.3-1.1-2.7-1.4-3.9l-0.6-3.8q-0.6-3.8-1.1-7.6c-0.3-2.5-0.6-5.1-0.7-7.6z"/>
			</g>
			<path class="s7" d="m167.1 269.4c0 2.5-1.2 4.5-2.7 4.5-1.5 0-2.7-2-2.7-4.5 0-2.5 1.2-4.5 2.7-4.5 1.5 0 2.7 2 2.7 4.5z"/>
			<path class="s7" d="m195.9 265.9c0 2.5-1.3 4.5-2.8 4.5-1.5 0-2.7-2-2.7-4.5 0-2.5 1.2-4.5 2.7-4.5 1.5 0 2.8 2 2.8 4.5z"/>
			<g>
				<path class="s7" d="m147.4 261.5c0.6-2.2 1.5-4.4 2.7-6.4 1.2-2.1 2.7-4 4.5-5.6 1-0.8 1.9-1.6 3-2.3 1-0.7 2.2-1.2 3.4-1.5 1.3-0.3 2.5-0.4 3.8-0.2 1.3 0.1 2.5 0.5 3.6 1.2v0.4l-3.3 1.2q-1.5 0.6-2.9 1.2-1.4 0.6-2.8 1.2c-1 0.3-1.9 0.7-2.8 1.3-1.8 1.2-3.4 2.6-4.9 4.2-1.5 1.6-2.8 3.5-3.9 5.5z"/>
			</g>
			<g>
				<path class="s7" d="m199.4 255.3c-1.3-1.5-2.7-2.8-4.3-3.9-1.5-1-3.2-1.9-4.9-2.5-0.9-0.3-1.8-0.5-2.7-0.6q-1.3-0.2-2.6-0.6c-1.8-0.6-3.5-1.2-5.5-2.2v-0.4c1.9-1.2 4.1-1.5 6.2-1.4 2.2 0.1 4.1 1.3 5.9 2.3 1.9 1.1 3.6 2.4 5 3.9 1.3 1.6 2.5 3.3 3.2 5.2z"/>
			</g>
			<g>
				<path class="s7" d="m185.2 302.2c3.5-0.6 6.5 0 6.7 1.3 0.2 1.1-1.5 2.4-4.1 3.1-2.1-1.6-4.8-2.5-7.4-2.6 1-0.8 2.8-1.4 4.8-1.8z"/>
				<path class="s11" d="m180.4 304c2.6 0.1 5.3 1 7.4 2.6q-0.8 0.3-1.8 0.4c-3.4 0.7-6.4 0.1-6.7-1.3-0.1-0.5 0.3-1.1 1.1-1.7z"/>
			</g>
			<g>
				<path class="s9" d="m128 423.5l16.1 16.7c0 0 13.1-96.7 12.8-104.4-0.3-7.8-5.5-26.3-1.3-27 4.2-0.7 12.5 17.7 12.5 17.7 0 0 53.2-9.5 57.4-8.7 4.2 0.8-2.1 5.3-8 7.4-6 2.1-11.2 3.2-11.2 3.2 0 0 1.8 2.1 2.4 4.7 0.4 1.5 0 4.8 0 4.8 0 0 0.5 3.5 0.1 5.1-0.4 1.3-1.6 3.1-1.6 3.1 0 0 0.4 3.6-0.4 4.8-1.2 1.9-3.2 2.7-3.2 2.7-5.7 6.1-12.7 0.7-12.7 0.7l-4.4-0.1-13.3-0.3c0 0-1.8 66.3-2.7 86.3-0.9 20-6.9 51.8-6.9 51.8l-51.4-30.3c0 0 3-14.1 7.6-24.6 4.5-10.6 8.2-13.6 8.2-13.6z"/>
				<g>
					<path class="s7" d="m155.5 350.4c0-3.6 0.1-7.2 0.2-10.8 0-1.8 0.1-3.6 0-5.4q0-2.7-0.3-5.4c-0.3-3.6-0.8-7.2-1.1-10.8-0.4-3.6-0.6-7.2-0.6-10.9v-0.5l0.5-0.1c2.5-0.7 5.2 0.1 7 1.9 0.9 0.9 1.5 1.9 2 3 0.5 1.1 0.9 2.1 1.3 3.3 0.3 1.1 0.5 2.4 0.3 3.6-0.1 1.2-0.3 2.2 0 3.2 0.3 1 0.8 1.9 1.4 2.8q0.9 1.4 2.2 2.4l-0.5-0.1 12-2.2c4-0.7 8-1.4 12-2-3.9 1-7.9 1.8-11.9 2.8l-11.9 2.6h-0.3l-0.2-0.2c-1.9-1.5-3.3-3.4-4.1-5.8-0.3-1.3-0.1-2.5 0-3.6 0.1-1-0.1-2.1-0.4-3.1-0.3-1-0.7-2.1-1.2-3.1-0.5-1-1-1.9-1.7-2.6-1.5-1.4-3.7-2-5.6-1.5l0.5-0.7c0 3.5 0.2 7.1 0.5 10.7l0.5 5.4q0.2 2.7 0.4 5.4c0.2 3.7 0.2 7.3-0.1 10.9-0.3 3.6-0.6 7.2-0.9 10.8z"/>
				</g>
				<g>
					<path class="s7" d="m206.3 328.4c-1.2 0.6-2.6 1.1-3.9 1.5-1.3 0.4-2.6 0.8-4 1.1-1.3 0.2-2.7 0.5-4.1 0.7-1.3 0.2-2.7 0.3-4.1 0.3 1.2-0.6 2.6-1 3.9-1.4 1.3-0.5 2.6-0.8 4-1.1 1.3-0.3 2.7-0.6 4.1-0.7 1.3-0.2 2.7-0.4 4.1-0.4z"/>
				</g>
				<g>
					<path class="s7" d="m191.2 338.7c1.4-0.4 2.9-0.6 4.3-0.8 1.5-0.2 3-0.3 4.4-0.4 1.5 0 2.9-0.1 4.4 0 1.5 0 3 0.1 4.4 0.4-1.4 0.4-2.9 0.6-4.3 0.8-1.5 0.2-2.9 0.3-4.4 0.3-1.5 0.1-2.9 0.1-4.4 0.1-1.5-0.1-2.9-0.2-4.4-0.4z"/>
				</g>
				<g>
					<path class="s7" d="m191.9 345.8c1.3-0.4 2.6-0.6 3.8-0.8 1.3-0.1 2.6-0.1 3.9-0.1q1.9 0.1 3.8 0.4c1.3 0.2 2.5 0.4 3.8 0.8-1.3 0.3-2.6 0.3-3.9 0.4-1.2 0-2.5 0-3.8-0.1q-1.9 0-3.8-0.2c-1.2-0.1-2.5-0.2-3.8-0.4z"/>
				</g>
				<g>
					<path class="s7" d="m201 353.9c-1 0.3-2 0.5-3 0.6q-1.5 0.2-3 0.2-1.6 0.1-3.1-0.1c-1-0.1-2-0.2-3-0.5 1-0.4 2-0.5 3-0.7q1.5-0.1 3-0.2 1.6 0 3.1 0.2c1 0.1 2 0.2 3 0.5z"/>
				</g>
				<g>
					<path class="s7" d="m143.9 437.4c0.1 1.8 0 3.5 0 5.2-0.1 1.6-0.2 3.3-0.3 5-0.2 1.7-0.3 3.4-0.5 5.1-0.2 1.7-0.4 3.4-0.8 5.1-0.2-1.7-0.3-3.5-0.4-5.2 0-1.7 0.1-3.4 0.2-5.1 0.1-1.7 0.3-3.4 0.6-5.1 0.3-1.7 0.6-3.3 1.2-5z"/>
				</g>
			</g>
			<g>
				<path class="s4" d="m129 424.8c-3.4-3.8-6.6-7.7-9.8-11.5-3.2-3.9-6.4-7.8-9.6-11.7-3.1-3.9-6.3-7.8-9.8-11.4-3.5-3.6-7.3-6.9-11.7-9.3 2.3 1 4.4 2.4 6.5 3.8 2 1.5 3.9 3.2 5.8 4.9 3.6 3.6 6.8 7.5 10 11.4 3.1 3.9 6.3 7.8 9.4 11.8 3.1 4 6.2 7.9 9.2 12z"/>
			</g>
			<g>
				<path class="s4" d="m112.4 461c-0.4 1.8-0.8 3.5-1.1 5.3-0.2 1.8-0.5 3.6-0.7 5.5-0.2 1.8-0.3 3.6-0.4 5.4q-0.2 2.7-0.2 5.4v1l-0.7-0.6q-3.1-2.3-6-4.8-2.9-2.6-5.6-5.2c-3.6-3.6-7-7.5-10.1-11.6 3.4 3.8 7 7.5 10.7 11q2.7 2.6 5.7 5 2.9 2.5 5.8 4.9l-0.7 0.3q0-2.7 0.2-5.5c0.1-1.8 0.4-3.6 0.6-5.4 0.3-1.8 0.6-3.7 1-5.4 0.4-1.8 0.9-3.6 1.5-5.3z"/>
			</g>
			<g>
				<path class="s4" d="m216.8 459l-2.8-9.3-2.6-9.4v-0.1c0.3-4.9 0.8-9.8 1.2-14.7 0.3-4.8 0.8-9.7 1.2-14.6l0.7-7.3 0.7-7.3q0.7-7.3 1.6-14.6-0.4 7.3-0.9 14.7l-0.6 7.3-0.6 7.3c-0.4 4.9-0.7 9.8-1.2 14.6-0.5 4.9-0.9 9.8-1.4 14.6v-0.1l2.4 9.5z"/>
			</g>
			<g style="opacity: .5">
				<g>
					<path class="s4" d="m108.3 223.2c6.2 1.9 12.7 1.9 19.1 2 6.4 0 12.9-0.6 19.1-1.9 6.3-1.2 12.4-3.4 17.9-6.6 2.8-1.6 5.4-3.4 7.8-5.5 2.4-2.1 4.6-4.4 6.5-7l0.7-1 0.1 1.2c0.2 3.4 1.4 6.6 3.1 9.5 1.7 2.9 3.9 5.5 6.5 7.7 5.2 4.4 12.1 6.7 18.9 6.1-6.8 0.8-13.9-1.2-19.3-5.6-2.7-2.2-5-4.8-6.8-7.8-1.8-2.9-3-6.3-3.3-9.8l0.8 0.2c-3.8 5.3-8.9 9.7-14.5 12.9-5.6 3.2-11.9 5.3-18.2 6.6q-4.8 1-9.6 1.3-4.9 0.3-9.7 0.2c-3.2 0-6.4-0.2-9.7-0.5-3.2-0.3-6.4-0.9-9.4-2z"/>
				</g>
				<g>
					<path class="s4" d="m207.8 219.6c-1.3 0-2.6-0.3-3.9-0.6q-2-0.5-3.8-1.5c-2.3-1.2-4.4-2.9-6.2-4.9-1.8-2.1-3.2-4.4-4.2-6.8q-0.8-1.8-1.4-3.7c-0.3-1.3-0.7-2.6-0.9-3.9 0.5 1.3 0.9 2.5 1.4 3.7q0.7 1.8 1.6 3.6c1.2 2.3 2.5 4.5 4.2 6.4 1.7 2 3.7 3.6 5.9 5 2.2 1.3 4.7 2.2 7.3 2.7z"/>
				</g>
				<g>
					<path class="s4" d="m171.2 194.8c-1.4 2.1-3.3 4-5.3 5.5-2 1.6-4.2 2.8-6.5 3.9-4.6 2.2-9.5 3.8-14.4 4.9q-3.8 0.7-7.6 1.1c-2.5 0.1-5.1 0.1-7.6-0.1q-3.8-0.3-7.5-1.3c-2.5-0.8-4.8-1.7-7.1-2.9 2.4 1 4.8 1.8 7.2 2.4q3.7 0.8 7.4 1.1c2.5 0.1 5 0 7.5-0.2q3.8-0.3 7.5-1.1c4.9-1 9.7-2.5 14.3-4.5 2.3-1.1 4.5-2.2 6.6-3.7 2-1.4 3.9-3.1 5.5-5.1z"/>
				</g>
				<g>
					<path class="s4" d="m119.1 242.8c0.3 1.9 0.4 3.9 0.4 5.8q-0.1 2.9-0.7 5.8c-0.8 3.9-2.3 7.6-4.4 10.9-2.1 3.3-4.9 6.2-8 8.5q-2.4 1.8-5 3.1c-1.8 0.8-3.6 1.5-5.5 2 1.8-0.7 3.6-1.5 5.2-2.5q2.6-1.4 4.8-3.2c3-2.4 5.6-5.2 7.7-8.5 2.1-3.1 3.6-6.7 4.5-10.4 0.9-3.8 1.2-7.6 1-11.5z"/>
				</g>
				<g>
					<path class="s4" d="m106.2 237.5c-0.6 4.1-2.5 8-5 11.3-2.6 3.3-5.9 6.1-9.7 7.8 3.4-2.4 6.4-5.2 8.9-8.4 2.5-3.2 4.4-6.8 5.8-10.7z"/>
				</g>
			</g>
		</g>
	</g>
</svg>